<?xml version="1.0" encoding="UTF-8" standalone="no"?>
<svg
   xmlns:dc="http://purl.org/dc/elements/1.1/"
   xmlns:cc="http://creativecommons.org/ns#"
   xmlns:rdf="http://www.w3.org/1999/02/22-rdf-syntax-ns#"
   xmlns:svg="http://www.w3.org/2000/svg"
   xmlns="http://www.w3.org/2000/svg"
   xmlns:sodipodi="http://sodipodi.sourceforge.net/DTD/sodipodi-0.dtd"
   xmlns:inkscape="http://www.inkscape.org/namespaces/inkscape"
   version="1.1"
   width="500"
   height="200"
   id="svg37"
   viewBox="0 0 500 200"
   sodipodi:docname="faperj.svg"
   inkscape:version="0.92.4 5da689c313, 2019-01-14">
  <metadata
     id="metadata43">
    <rdf:RDF>
      <cc:Work
         rdf:about="">
        <dc:format>image/svg+xml</dc:format>
        <dc:type
           rdf:resource="http://purl.org/dc/dcmitype/StillImage" />
        <dc:title></dc:title>
      </cc:Work>
    </rdf:RDF>
  </metadata>
  <defs
     id="defs41" />
  <sodipodi:namedview
     pagecolor="#ffffff"
     bordercolor="#666666"
     borderopacity="1"
     objecttolerance="10"
     gridtolerance="10"
     guidetolerance="10"
     inkscape:pageopacity="0"
     inkscape:pageshadow="2"
     inkscape:window-width="1576"
     inkscape:window-height="1774"
     id="namedview39"
     showgrid="false"
     fit-margin-top="0"
     fit-margin-left="0"
     fit-margin-right="0"
     fit-margin-bottom="0"
     inkscape:zoom="0.39645504"
     inkscape:cx="319.25747"
     inkscape:cy="66.610826"
     inkscape:window-x="1609"
     inkscape:window-y="11"
     inkscape:window-maximized="0"
     inkscape:current-layer="svg37" />
  <g
     id="Layer1000"
     transform="matrix(0.66647161,0,0,0.66647161,-25.744839,-59.964083)">
    <path
       d="m 305.8734,218.2801 v 19.6343 h 27.0885 c 3.6655,0.0407 7.1485,-0.6316 10.4482,-2.0365 v 17.9024 c -2.3421,-1.1206 -4.3989,-1.792 -6.1511,-2.0161 -1.792,-0.2853 -4.1138,-0.4279 -6.9856,-0.4279 h -24.4 v 22.8525 c 0.163,5.3769 1.2827,9.4091 3.4016,12.118 h -37.7812 c 2.1171,-2.8311 3.2377,-6.8633 3.4007,-12.118 V 216.916 c -0.163,-5.214 -1.2836,-9.2268 -3.4007,-12.0579 h 71.3255 l 2.5051,15.3983 c -2.5866,-0.9983 -4.9287,-1.5688 -7.0467,-1.7318 -1.7513,-0.1223 -5.0713,-0.2037 -9.9602,-0.2445 z m 68.1286,-13.422 h 35.9281 l 28.5748,71.8358 c 1.5475,3.5034 3.6664,6.7012 6.3336,9.6129 H 403.84 c 1.3642,-1.5883 2.0365,-3.3812 2.0365,-5.3769 0,-2.2607 -0.6723,-4.9288 -2.0365,-7.984 l -3.7479,-8.7173 H 366.608 l -5.0713,11.1613 c -0.9576,2.1393 -1.4253,4.0332 -1.4253,5.6622 0,1.3243 0.5085,3.0756 1.5475,5.2547 h -22.8524 c 3.5849,-4.0119 6.8235,-9.124 9.7157,-15.3362 l 28.7582,-61.2856 c -0.8344,-1.8328 -1.9143,-3.4423 -3.2784,-4.8269 z m 20.5909,46.2337 -10.4482,-25.2353 -11.3855,25.2353 z m 86.6422,5.9678 v 17.1292 c 0.163,5.3362 1.304,9.3684 3.4627,12.118 h -37.4755 c 2.1179,-2.8311 3.2385,-6.8633 3.4006,-12.118 V 216.916 c -0.1621,-5.214 -1.2827,-9.2268 -3.4006,-12.0579 h 66.6412 c 5.2556,0 9.2879,0.4483 12.0578,1.3651 6.2123,2.3217 9.3897,7.4746 9.5518,15.5196 v 18.4933 c -0.1213,5.6825 -1.8327,9.9593 -5.1324,12.832 -2.1384,1.8735 -5.0714,3.0747 -8.7776,3.6248 -1.467,0.2445 -4.0332,0.3667 -7.6996,0.3667 z m 0,-13.4219 h 15.6419 c 3.6053,0.0407 5.9474,-0.6724 7.0272,-2.1384 0.6724,-1.0798 1.0187,-3.5238 1.0187,-7.3532 v -6.3744 c 0,-3.5442 -0.3463,-6.0289 -1.0187,-7.4542 -0.6316,-1.1206 -1.629,-1.7522 -2.9737,-1.9152 -0.2445,-0.0814 -1.0585,-0.1222 -2.444,-0.1222 h -17.2514 z m 95.4208,-25.3576 v 19.7565 h 24.95 c 4.9704,0 8.8193,-0.6112 11.5689,-1.8531 v 17.4134 c -1.629,-1.3437 -4.7046,-2.0568 -9.2471,-2.1383 h -27.2718 v 21.4262 h 30.1843 c 2.7496,0 6.6198,-0.9372 11.5893,-2.8107 l -2.6885,16.2327 h -73.4648 c 2.118,-2.8311 3.2386,-6.843 3.4007,-12.0569 V 216.916 c -0.1621,-5.214 -1.2827,-9.2268 -3.4007,-12.0579 h 71.7339 l 2.3829,15.2761 c -2.933,-1.0391 -5.5196,-1.6096 -7.7598,-1.7319 -1.3855,-0.0814 -3.585,-0.1222 -6.6198,-0.1222 z m 90.9402,33.3007 h -9.5527 v 22.6691 c 0.163,5.2954 1.2836,9.3073 3.4016,12.0569 h -37.7812 c 2.118,-2.8311 3.2385,-6.843 3.4006,-12.0569 V 216.916 c -0.1621,-5.214 -1.2826,-9.2268 -3.4006,-12.0579 h 67.0089 c 5.2537,0 9.3073,0.4483 12.118,1.3651 6.2123,2.3217 9.3897,7.4949 9.5527,15.5196 v 17.5561 c 0,3.6868 -0.4686,6.3752 -1.4262,8.0459 -1.7105,2.9117 -4.4804,4.3583 -8.3099,4.3583 -0.5908,0 -1.3437,-0.0408 -2.2606,-0.1223 l 11.1614,23.6258 c 1.955,4.2572 4.0322,7.9644 6.2725,11.1002 h -35.8049 z m -9.5527,-13.422 h 17.3125 c 2.6477,0 4.4397,-0.5093 5.3566,-1.5484 0.6723,-1.0382 1.0178,-2.8913 1.0178,-5.5594 v -4.0535 c 0,-3.8702 -0.3455,-6.2734 -1.0178,-7.231 -0.9169,-1.0382 -2.9737,-1.5271 -6.191,-1.4864 h -16.4781 z m 58.8203,48.148 -2.444,-16.1716 c 2.7506,1.9143 7.2514,2.8311 13.5442,2.7496 h 17.3126 c 3.4423,0.0408 5.8048,-0.7742 7.0272,-2.444 0.6714,-1.2011 1.0178,-3.5645 1.0178,-7.1078 v -46.417 c -0.163,-5.3362 -1.2827,-9.349 -3.4006,-12.0579 h 37.7811 c -2.118,2.7089 -3.2385,6.7217 -3.4015,12.0579 v 46.0707 c -0.0408,7.9024 -1.5679,13.4831 -4.6027,16.7012 -2.2616,2.5866 -5.3974,4.4805 -9.4305,5.6613 -2.2199,0.6325 -4.5009,0.9576 -6.8634,0.9576 z"
       style="fill:#911140;fill-rule:evenodd"
       id="path2"
       inkscape:connector-curvature="0" />
    <g
       id="Layer1001">
      <path
         d="m 120.4246,260.1508 10.5929,-14.2714 c 23.1559,0 53.1627,-16.8098 70.5233,-40.183 l 14.3867,0.0356 c -22.5787,30.3986 -65.0257,54.4188 -95.5029,54.4188 z"
         style="fill:#911140;fill-rule:evenodd"
         id="path4"
         inkscape:connector-curvature="0" />
      <path
         d="m 202.1099,150.2039 -10.5703,14.2215 c -22.596,0 -54.4609,18.5094 -71.3936,41.3066 l -14.4978,-0.0214 c 23.3762,-31.4723 64.8719,-55.5067 96.4617,-55.5067 z"
         style="fill:#911140;fill-rule:evenodd"
         id="path6"
         inkscape:connector-curvature="0" />
      <path
         d="m 212.8594,135.7121 c 37.5546,0 45.2868,32.4394 17.4076,70.0128 l -14.2749,0.007 c 22.9115,-30.8466 17.2417,-55.6064 -13.8385,-55.6064 z"
         style="fill:#911140;fill-rule:evenodd"
         id="path8"
         inkscape:connector-curvature="0" />
      <path
         d="m 109.7615,274.5359 c -37.1957,0 -46.9932,-30.9248 -18.8922,-68.7968 h 14.7147 c -22.901,30.8323 -16.5146,54.753 14.6014,54.753 z"
         style="fill:#911140;fill-rule:evenodd"
         id="path10"
         inkscape:connector-curvature="0" />
      <path
         d="m 223.2343,121.7536 -10.3836,13.9798 c -37.8103,0.4409 -95.1752,32.6883 -121.9896,70.0554 l -14.338,-0.0142 c 34.5045,-46.4547 102.0218,-84.021 146.7112,-84.021 z"
         style="fill:#911140;fill-rule:evenodd"
         id="path12"
         inkscape:connector-curvature="0" />
      <path
         d="M 99.4504,288.8144 109.74,274.5359 c 37.5897,-0.4338 93.7451,-31.4297 120.5701,-68.811 h 14.3055 c -33.6912,45.3596 -99.9877,83.0895 -145.1652,83.0895 z"
         style="fill:#911140;fill-rule:evenodd"
         id="path14"
         inkscape:connector-curvature="0" />
      <path
         d="m 258.9101,205.7106 -14.3538,0.007 c 33.2581,-44.7766 24.2314,-84.0352 -21.2979,-84.0352 l 10.8344,-14.5771 c 53.6403,0 64.2918,45.4592 24.8173,98.6052 z"
         style="fill:#911140;fill-rule:evenodd"
         id="path16"
         inkscape:connector-curvature="0" />
      <path
         d="M 77.9713,317.3073 88.471,303.171 c 53.4393,0 129.2308,-41.9607 170.4535,-97.4604 l 14.5658,0.007 C 226.3733,269.153 141.1294,317.3073 77.9713,317.3073 Z"
         style="fill:#911140;fill-rule:evenodd"
         id="path18"
         inkscape:connector-curvature="0" />
      <path
         d="m 120.1399,205.6822 14.6175,-0.0142 c -13.744,17.528 -11.5943,25.293 6.9754,26.2103 l -10.733,14.0154 c -29.7451,0 -26.189,-19.5831 -10.8599,-40.2115 z"
         style="fill:#911140;fill-rule:evenodd"
         id="path20"
         inkscape:connector-curvature="0" />
      <path
         d="m 201.6723,205.732 -14.7884,-0.007 c 11.2234,-15.1105 9.7572,-26.7721 -6.1274,-26.7721 l 10.7687,-14.5274 c 20.2121,0.32 30.0551,14.0012 10.1471,41.3066 z"
         style="fill:#911140;fill-rule:evenodd"
         id="path22"
         inkscape:connector-curvature="0" />
      <path
         d="m 244.5225,93.0829 -10.3919,14.0296 c -55.596,-0.3626 -132.0458,44.6202 -172.1647,98.6337 H 47.7394 C 94.0271,143.4273 182.5989,93.0829 244.5225,93.0829 Z"
         style="fill:#911140;fill-rule:evenodd"
         id="path24"
         inkscape:connector-curvature="0" />
      <path
         d="m 62.046,205.6964 14.6352,-0.0284 c -34.0239,45.8076 -23.4945,83.1108 22.4726,83.1108 l -10.7427,14.4633 c -54.0207,0 -66.0404,-44.1295 -26.3651,-97.5457 z"
         style="fill:#911140;fill-rule:evenodd"
         id="path26"
         inkscape:connector-curvature="0" />
    </g>
    <g
       id="Layer1002">
      <path
         d="m 48.7445,328.988 v 5.0204 h 6.9263 c 0.9372,0.0111 1.8282,-0.1612 2.6718,-0.5205 v 4.5768 c -0.5992,-0.2853 -1.1243,-0.4575 -1.5725,-0.5159 -0.4584,-0.0722 -1.052,-0.1083 -1.7864,-0.1083 h -6.2392 v 5.8437 c 0.0417,1.3743 0.3288,2.4051 0.8696,3.0978 H 39.954 c 0.5408,-0.7233 0.8279,-1.755 0.8696,-3.0978 v -14.6454 c -0.0417,-1.3326 -0.3288,-2.3588 -0.8696,-3.082 h 18.2377 l 0.6408,3.9359 c -0.6621,-0.2547 -1.2613,-0.4001 -1.8022,-0.4418 -0.4482,-0.0324 -1.2965,-0.0527 -2.5467,-0.0629 z m 32.257,1.9846 v 11.5299 c 0.0111,1.2549 0.0528,2.0884 0.1204,2.5051 0.0519,0.427 0.2186,0.8845 0.5047,1.3744 h -7.1235 l -0.3029,-1.4373 c -0.1972,0.4788 -0.4158,0.8122 -0.6714,0.9946 -0.4167,0.2964 -1.1354,0.4427 -2.1559,0.4427 h -5.8122 c -0.9845,0 -1.7652,-0.0834 -2.3329,-0.2445 -0.5677,-0.1612 -1.0576,-0.4371 -1.4632,-0.8233 -0.6409,-0.6196 -1.0049,-1.4836 -1.0836,-2.594 -0.0315,-0.3066 -0.0472,-0.8585 -0.0472,-1.6661 v -6.2067 c -0.0102,-1.2502 -0.0519,-2.0837 -0.1195,-2.5005 -0.0518,-0.4269 -0.2185,-0.8853 -0.5056,-1.3743 h 8.1617 v 10.4464 c -0.063,1.4271 0.4844,2.1087 1.6346,2.0467 h 1.8123 c 0.7761,0 1.2873,-0.1306 1.5263,-0.3955 0.2139,-0.2657 0.3232,-0.7612 0.3232,-1.4789 v -6.7439 c -0.0111,-1.2613 -0.0528,-2.0939 -0.1204,-2.5005 -0.0519,-0.4167 -0.2177,-0.8751 -0.5047,-1.3743 z m 10.1769,0 0.3186,1.541 c 0.2853,-0.5464 0.6029,-0.9372 0.9632,-1.1613 0.4158,-0.2556 1.0038,-0.3797 1.7707,-0.3797 h 5.6445 c 1.078,0 1.9273,0.1565 2.5468,0.4742 1.6031,0.9159 2.3847,2.4578 2.3329,4.6231 v 6.4373 c 0.0101,1.2502 0.0518,2.0837 0.1194,2.5004 0.0528,0.427 0.2195,0.8845 0.5057,1.3744 h -8.7859 c 0.2861,-0.4899 0.4538,-0.9474 0.5056,-1.3744 0.0676,-0.438 0.1093,-1.2706 0.1195,-2.5004 v -6.6967 c -0.0102,-0.7399 -0.0991,-1.2344 -0.2602,-1.4789 -0.2029,-0.2973 -0.652,-0.4427 -1.3429,-0.4427 h -2.318 c -0.4584,0 -0.7974,0.1093 -1.0215,0.3223 -0.1973,0.1926 -0.2964,0.589 -0.3066,1.1872 v 7.1088 c 0.0102,1.2298 0.0519,2.0624 0.1195,2.5004 0.063,0.427 0.2288,0.8845 0.5057,1.3744 h -8.7859 c 0.2861,-0.4899 0.4528,-0.9474 0.5056,-1.3744 0.0676,-0.4167 0.1093,-1.2502 0.1195,-2.5004 v -7.6709 c -0.0102,-1.2345 -0.0519,-2.0624 -0.1195,-2.4894 -0.0528,-0.4269 -0.2195,-0.8853 -0.5056,-1.3743 z m 36.6782,-5.4158 v 16.9504 c 0.0111,1.2502 0.0528,2.0837 0.1204,2.5004 0.0519,0.427 0.2195,0.8845 0.5047,1.3744 h -7.1393 l -0.3334,-1.3901 c -0.3491,0.5723 -0.7242,0.9372 -1.1298,1.0984 -0.5001,0.1935 -1.1873,0.2917 -2.0624,0.2917 h -5.3538 c -1.5568,-0.0102 -2.6301,-0.2445 -3.2182,-0.7029 -0.7603,-0.5677 -1.2502,-1.266 -1.4632,-2.0884 -0.1621,-0.6307 -0.2445,-1.1974 -0.2445,-1.6985 v -6.6595 c -0.0213,-1.2132 0.3121,-2.2143 0.989,-3.0108 0.7965,-0.864 1.8124,-1.2808 3.0515,-1.2493 h 6.1818 c 1.24,0.0102 2.0939,0.489 2.5625,1.4373 v -2.9793 c -0.0111,-1.2604 -0.0528,-2.0939 -0.1204,-2.4995 -0.0519,-0.4177 -0.2176,-0.8752 -0.5047,-1.3743 z m -10.9354,17.9089 h 1.7078 c 0.6714,-0.0111 1.1354,-0.1723 1.3854,-0.4899 0.2028,-0.2816 0.3075,-0.7965 0.3075,-1.5364 v -5.7233 c 0,-0.5566 -0.026,-0.9057 -0.0787,-1.0511 -0.1195,-0.2927 -0.2918,-0.4955 -0.5103,-0.6103 -0.2186,-0.1093 -0.552,-0.1658 -0.9993,-0.1658 h -2.0735 c -0.5825,0 -0.9845,0.1352 -1.2077,0.4112 -0.2546,0.3074 -0.3806,0.7547 -0.3806,1.3428 v 6.1771 c 0.0111,0.6298 0.1676,1.0678 0.4742,1.3123 0.2861,0.213 0.739,0.3223 1.3752,0.3334 z m 14.8417,-12.4931 h 14.0351 c 1.0779,-0.0111 1.9216,0.088 2.531,0.2917 0.4575,0.1612 0.9011,0.4418 1.328,0.8381 0.427,0.3955 0.7548,0.828 0.9789,1.2966 0.2547,0.5362 0.3806,1.1974 0.3806,1.9846 v 7.1402 c 0.009,1.2382 0.0519,2.0671 0.1195,2.4838 0.0519,0.427 0.2186,0.8845 0.5057,1.3744 h -7.4894 c -0.2241,-0.4168 -0.3751,-0.9632 -0.4584,-1.6355 -0.1408,0.5732 -0.5001,1.015 -1.0678,1.328 -0.2445,0.1565 -0.8122,0.2556 -1.7078,0.3075 h -5.6297 c -0.9057,0 -1.6198,-0.0574 -2.1347,-0.1658 -0.8863,-0.2149 -1.5419,-0.6575 -1.9689,-1.3243 -0.4269,-0.6659 -0.6408,-1.5772 -0.6408,-2.7385 v -2.6042 c 0.0111,-1.3225 0.4686,-2.3013 1.3752,-2.932 0.4575,-0.3121 0.9734,-0.5047 1.5512,-0.5622 0.3807,-0.0416 0.7094,-0.062 0.9947,-0.062 h 7.1717 c 0.6464,-0.0111 1.0669,-0.0472 1.2651,-0.1102 0.3648,-0.1297 0.5473,-0.4631 0.5473,-1.0048 0,-0.4066 -0.125,-0.677 -0.3797,-0.8233 -0.2149,-0.1093 -0.6363,-0.1658 -1.266,-0.1658 h -7.3227 c -1.2595,-0.0213 -2.3375,0.2241 -3.233,0.7344 z m 11.717,7.9357 h -3.6293 c -0.7233,0.0112 -1.2132,0.1779 -1.4633,0.5057 -0.2028,0.2806 -0.3075,0.7659 -0.3075,1.4475 v 0.6668 c 0,0.6714 0.1047,1.1511 0.3075,1.4317 0.2501,0.3288 0.74,0.4946 1.4633,0.5057 h 1.8429 c 0.7344,-0.0111 1.2243,-0.1769 1.4642,-0.5057 0.213,-0.2806 0.3222,-0.7603 0.3222,-1.4317 z m 19.9306,7.4737 v 1.266 h 0.8067 c 1.1196,0 1.8864,0.15 2.3078,0.4574 0.5047,0.3964 0.7594,1.0262 0.7594,1.8902 v 0.9641 c 0,0.589 -0.0611,1.0419 -0.1815,1.3493 -0.125,0.3121 -0.3343,0.5362 -0.6251,0.6816 -0.4168,0.214 -1.3651,0.3334 -2.8376,0.3649 h -3.5886 l -0.4112,-2.6255 c 0.4269,0.1936 0.8483,0.3075 1.265,0.3492 0.339,0.0314 0.7761,0.0472 1.3123,0.0472 h 0.765 c 0.5223,-0.0111 0.8751,-0.0371 1.0687,-0.0787 0.3167,-0.0565 0.4732,-0.2853 0.4732,-0.6863 0,-0.4065 -0.1454,-0.651 -0.4426,-0.7297 -0.2029,-0.063 -0.577,-0.0936 -1.1299,-0.0936 h -1.5253 v -3.1561 h -2.2606 c -0.2343,-0.0102 -0.9529,-0.0723 -2.1504,-0.1825 -0.5473,-0.1139 -1.0844,-0.3639 -1.6049,-0.7547 -0.5149,-0.3909 -0.9057,-0.8446 -1.1706,-1.354 -0.3084,-0.5779 -0.4594,-1.2447 -0.4594,-2.0004 v -6.9679 c 0.2242,-2.8172 1.943,-4.2027 5.1566,-4.1499 h 11.4929 l 0.6251,3.7072 c -0.4584,-0.3121 -0.9011,-0.5159 -1.328,-0.6094 -0.5103,-0.1195 -1.0836,-0.1815 -1.7235,-0.1815 h -4.5472 c -0.7751,0 -1.3113,0.1037 -1.6188,0.3176 -0.3491,0.2862 -0.5214,0.7807 -0.5214,1.4837 v 6.1456 c 0,0.6612 0.1982,1.115 0.5937,1.3697 0.2861,0.1722 0.8233,0.2602 1.6095,0.2602 h 4.286 c 0.8233,0 1.4892,-0.0834 1.9948,-0.2445 0.3288,-0.1 0.7446,-0.3075 1.2549,-0.6251 l -0.6251,3.7859 z m 10.5252,-15.4094 h 14.035 c 1.078,-0.0111 1.9217,0.088 2.531,0.2917 0.4575,0.1612 0.9011,0.4418 1.3281,0.8381 0.4269,0.3955 0.7547,0.828 0.9789,1.2966 0.2546,0.5362 0.3806,1.1974 0.3806,1.9846 v 7.1402 c 0.009,1.2382 0.0509,2.0671 0.1185,2.4838 0.0519,0.427 0.2195,0.8845 0.5057,1.3744 h -7.4885 c -0.2241,-0.4168 -0.376,-0.9632 -0.4584,-1.6355 -0.1408,0.5732 -0.5001,1.015 -1.0678,1.328 -0.2445,0.1565 -0.8122,0.2556 -1.7077,0.3075 h -5.6298 c -0.9057,0 -1.6197,-0.0574 -2.1356,-0.1658 -0.8853,-0.2149 -1.541,-0.6575 -1.9679,-1.3243 -0.427,-0.6659 -0.6409,-1.5772 -0.6409,-2.7385 v -2.6042 c 0.0111,-1.3225 0.4686,-2.3013 1.3753,-2.932 0.4575,-0.3121 0.9733,-0.5047 1.5512,-0.5622 0.3806,-0.0416 0.7085,-0.062 0.9946,-0.062 h 7.1717 c 0.6455,-0.0111 1.0669,-0.0472 1.2651,-0.1102 0.3649,-0.1297 0.5473,-0.4631 0.5473,-1.0048 0,-0.4066 -0.1259,-0.677 -0.3806,-0.8233 -0.2139,-0.1093 -0.6353,-0.1658 -1.266,-0.1658 h -7.3217 c -1.2595,-0.0213 -2.3375,0.2241 -3.234,0.7344 z m 11.717,7.9357 h -3.6294 c -0.7233,0.0112 -1.2132,0.1779 -1.4632,0.5057 -0.2029,0.2806 -0.3075,0.7659 -0.3075,1.4475 v 0.6668 c 0,0.6714 0.1046,1.1511 0.3075,1.4317 0.25,0.3288 0.7399,0.4946 1.4632,0.5057 h 1.8429 c 0.7344,-0.0111 1.2243,-0.1769 1.4642,-0.5057 0.213,-0.2806 0.3223,-0.7603 0.3223,-1.4317 z m 0.9168,-14.4036 h 3.6035 v 2.4421 c 0,0.7391 -0.1047,1.3021 -0.3075,1.6772 -0.3121,0.6085 -0.9631,0.9168 -1.9522,0.9168 -0.865,0 -2.6403,-0.4019 -5.3279,-1.2039 -0.6927,-0.2028 -1.1761,-0.3075 -1.4484,-0.3075 -0.3269,0 -0.5881,0.1464 -0.7798,0.4427 -0.1305,0.2038 -0.1981,0.4899 -0.1981,0.8539 0,0.0426 0.005,0.0991 0.005,0.1824 h -3.6035 v -2.2597 c 0,-0.8751 0.1352,-1.5215 0.4112,-1.9374 0.3649,-0.5575 0.9956,-0.839 1.88,-0.839 0.6409,0 1.8846,0.2658 3.7387,0.7927 1.7188,0.4881 2.7505,0.7335 3.095,0.7335 0.5714,0 0.8687,-0.5001 0.8844,-1.4938 z m 14.6185,6.4679 h 9.9463 c 1.4114,0 2.469,0.1083 3.1719,0.3223 1.7605,0.6983 2.6098,2.2134 2.5468,4.5462 v 6.1456 c 0.0306,3.0932 -1.6985,4.5564 -5.1871,4.3953 h -9.7907 c -1.5466,0 -2.6144,-0.0834 -3.209,-0.2445 -0.4417,-0.1195 -0.8686,-0.3547 -1.2808,-0.7029 -0.4056,-0.3445 -0.7186,-0.74 -0.9418,-1.1873 -0.3176,-0.6408 -0.4742,-1.4595 -0.4742,-2.443 v -6.5559 c -0.0111,-1.5577 0.6039,-2.7561 1.843,-3.5896 0.6047,-0.3843 1.2974,-0.6084 2.0948,-0.6714 0.2232,-0.0102 0.6501,-0.0148 1.2808,-0.0148 z m 2.3171,4.6398 v 6.0409 c 0,0.6983 0.1454,1.1873 0.4427,1.4632 0.276,0.2242 0.7344,0.3381 1.3753,0.3492 h 2.2393 c 0.7029,-0.0111 1.1826,-0.1769 1.4317,-0.5057 0.213,-0.3009 0.3223,-0.7696 0.3223,-1.4002 v -5.7344 c -0.009,-0.6816 -0.1241,-1.1503 -0.3482,-1.4049 -0.3279,-0.3445 -0.9011,-0.5224 -1.7235,-0.5316 h -1.9216 c -1.2345,0 -1.8384,0.5723 -1.818,1.7235 z m 41.4115,-10.0556 0.7298,4.285 c -0.4844,-0.3436 -0.9891,-0.5779 -1.5105,-0.7029 -0.5047,-0.0991 -1.3021,-0.1509 -2.3801,-0.1509 h -4.3638 c -0.6982,0 -1.1567,0.0416 -1.3697,0.1194 -0.5315,0.1677 -0.839,0.6298 -0.9325,1.3901 -0.0102,0.1047 -0.0149,0.4797 -0.0149,1.1308 v 8.8322 c 0,1.0002 0.2288,1.6975 0.6863,2.0939 0.2658,0.2028 0.5992,0.3223 1.0057,0.364 0.2445,0.0213 0.589,0.0324 1.0373,0.0324 h 4.1193 c 1.5771,0.009 2.9051,-0.2093 3.9831,-0.6576 l -0.6408,4.0888 h -12.7849 c -1.7299,-0.0213 -3.0783,-0.5835 -4.0461,-1.6929 -0.3751,-0.4159 -0.651,-0.8169 -0.8233,-1.2086 -0.1713,-0.3853 -0.2963,-0.8742 -0.364,-1.4623 -0.0629,-0.4899 -0.0935,-1.0215 -0.0935,-1.5985 v -8.9007 c 0,-1.1873 0.1028,-2.0828 0.3065,-2.682 0.1621,-0.5001 0.4538,-0.9946 0.8697,-1.479 0.4167,-0.4899 0.8807,-0.8696 1.3854,-1.1456 0.7863,-0.438 1.7087,-0.6556 2.7653,-0.6556 z m 4.0841,5.4158 h 14.0341 c 1.078,-0.0111 1.9226,0.088 2.5311,0.2917 0.4584,0.1612 0.9011,0.4418 1.328,0.8381 0.4269,0.3955 0.7557,0.828 0.9789,1.2966 0.2556,0.5362 0.3806,1.1974 0.3806,1.9846 v 7.1402 c 0.0102,1.2382 0.0519,2.0671 0.1195,2.4838 0.0518,0.427 0.2185,0.8845 0.5056,1.3744 h -7.4893 c -0.2242,-0.4168 -0.3751,-0.9632 -0.4575,-1.6355 -0.1417,0.5732 -0.5011,1.015 -1.0688,1.328 -0.2445,0.1565 -0.8112,0.2556 -1.7077,0.3075 h -5.6298 c -0.9057,0 -1.6188,-0.0574 -2.1346,-0.1658 -0.8863,-0.2149 -1.542,-0.6575 -1.9689,-1.3243 -0.4269,-0.6659 -0.6409,-1.5772 -0.6409,-2.7385 v -2.6042 c 0.0112,-1.3225 0.4686,-2.3013 1.3753,-2.932 0.4584,-0.3121 0.9733,-0.5047 1.5521,-0.5622 0.3797,-0.0416 0.7085,-0.062 0.9937,-0.062 h 7.1718 c 0.6464,-0.0111 1.0668,-0.0472 1.265,-0.1102 0.3658,-0.1297 0.5473,-0.4631 0.5473,-1.0048 0,-0.4066 -0.125,-0.677 -0.3797,-0.8233 -0.2139,-0.1093 -0.6362,-0.1658 -1.2659,-0.1658 h -7.3227 c -1.2595,-0.0213 -2.3375,0.2241 -3.233,0.7344 z m 11.717,7.9357 h -3.6303 c -0.7233,0.0112 -1.2132,0.1779 -1.4632,0.5057 -0.2028,0.2806 -0.3075,0.7659 -0.3075,1.4475 v 0.6668 c 0,0.6714 0.1047,1.1511 0.3075,1.4317 0.25,0.3288 0.7399,0.4946 1.4632,0.5057 h 1.8439 c 0.7344,-0.0111 1.2234,-0.1769 1.4632,-0.5057 0.213,-0.2806 0.3232,-0.7603 0.3232,-1.4317 z m 17.7108,-7.9357 0.1982,2.5357 c 0.2028,-0.6715 0.4065,-1.1354 0.6149,-1.3901 0.6307,-0.8076 1.7448,-1.1873 3.3386,-1.1456 h 3.8016 v 5.0973 c -0.3287,-0.3066 -0.6668,-0.5205 -1.0215,-0.64 -0.4991,-0.1621 -1.2132,-0.2445 -2.1402,-0.2445 h -1.5419 c -0.8122,0 -1.4475,0.213 -1.906,0.64 -0.4269,0.3963 -0.6399,0.9538 -0.6399,1.6623 v 5.0361 c 0.0102,1.2382 0.0519,2.0671 0.1195,2.4838 0.0518,0.427 0.2185,0.8845 0.5056,1.3744 h -8.7859 c 0.2862,-0.4899 0.4529,-0.9474 0.5057,-1.3744 0.0676,-0.4167 0.1092,-1.2456 0.1194,-2.4838 v -7.6718 c -0.0102,-1.2548 -0.0518,-2.0883 -0.1194,-2.5051 -0.0528,-0.4269 -0.2195,-0.8853 -0.5057,-1.3743 z m 17.3217,-5.4158 v 16.9504 c 0.0112,1.2502 0.0528,2.0837 0.1204,2.5004 0.0519,0.427 0.2177,0.8845 0.5048,1.3744 h -8.785 c 0.2852,-0.4899 0.4528,-0.9474 0.5038,-1.3744 0.0676,-0.4167 0.1102,-1.2502 0.1204,-2.5004 v -13.0766 c -0.0102,-1.2493 -0.0528,-2.0828 -0.1204,-2.4995 -0.051,-0.4269 -0.2186,-0.8863 -0.5038,-1.3743 z m 7.9525,5.4158 h 9.9472 c 1.4105,0 2.469,0.1083 3.1719,0.3223 1.7605,0.6983 2.6088,2.2134 2.5468,4.5462 v 6.1456 c 0.0305,3.0932 -1.6985,4.5564 -5.188,4.3953 h -9.7898 c -1.5466,0 -2.6144,-0.0834 -3.209,-0.2445 -0.4417,-0.1195 -0.8687,-0.3547 -1.2808,-0.7029 -0.4056,-0.3445 -0.7186,-0.74 -0.9427,-1.1873 -0.3168,-0.6408 -0.4733,-1.4595 -0.4733,-2.443 v -6.5559 c -0.0111,-1.5577 0.6038,-2.7561 1.843,-3.5896 0.6047,-0.3843 1.2965,-0.6084 2.0939,-0.6714 0.2241,-0.0102 0.651,-0.0148 1.2808,-0.0148 z m 2.318,4.6398 v 6.0409 c 0,0.6983 0.1454,1.1873 0.4417,1.4632 0.277,0.2242 0.7354,0.3381 1.3762,0.3492 h 2.2393 c 0.702,-0.0111 1.1817,-0.1769 1.4318,-0.5057 0.213,-0.3009 0.3223,-0.7696 0.3223,-1.4002 v -5.7344 c -0.0102,-0.6816 -0.1241,-1.1503 -0.3482,-1.4049 -0.3288,-0.3445 -0.9021,-0.5224 -1.7235,-0.5316 h -1.9217 c -1.2345,0 -1.8383,0.5723 -1.8179,1.7235 z m 33.7462,-4.6398 0.7344,3.8748 c -0.5576,-0.4177 -1.0521,-0.6723 -1.479,-0.777 -0.5214,-0.1195 -1.2919,-0.1815 -2.3227,-0.1815 h -6.4058 c -0.6196,0.009 -0.9743,0.0352 -1.0521,0.0778 -0.2028,0.0991 -0.3074,0.3019 -0.3074,0.6094 0,0.3648 0.1667,0.5936 0.5047,0.6816 0.1417,0.0314 0.4075,0.0472 0.7927,0.0472 h 5.9206 c 3.1043,-0.151 4.6296,1.2762 4.5777,4.2869 v 2.1967 c 0,1.6309 -0.5473,2.8487 -1.6355,3.6609 -0.4056,0.2973 -0.7807,0.501 -1.1243,0.6205 -0.3491,0.1139 -0.8335,0.2028 -1.453,0.2491 -0.6298,0.0417 -1.0891,0.063 -1.3707,0.063 h -13.1858 l -0.6862,-3.9535 c 0.7603,0.3963 1.3688,0.6667 1.817,0.8075 0.5575,0.151 1.4003,0.2297 2.531,0.2297 h 6.592 c 0.4594,0 0.7816,-0.0371 0.965,-0.1047 0.2751,-0.125 0.4112,-0.375 0.4112,-0.7492 0,-0.3862 -0.1195,-0.6362 -0.3649,-0.7455 -0.1352,-0.0518 -0.4167,-0.0778 -0.8437,-0.0778 h -6.6818 c -0.9372,0 -1.666,-0.1204 -2.1819,-0.3639 -1.1826,-0.652 -1.7864,-1.88 -1.817,-3.6776 v -2.4421 c 0,-1.1975 0.3538,-2.1763 1.0669,-2.9274 0.3862,-0.4103 0.8131,-0.7131 1.2817,-0.9159 0.4686,-0.2038 1.078,-0.3482 1.8328,-0.427 0.4371,-0.0426 1.1298,-0.062 2.0726,-0.062 z m 28.6739,-5.4158 0.7297,4.285 c -0.4852,-0.3436 -0.989,-0.5779 -1.5114,-0.7029 -0.5038,-0.0991 -1.3011,-0.1509 -2.3791,-0.1509 h -4.3638 c -0.6983,0 -1.1567,0.0416 -1.3697,0.1194 -0.5316,0.1677 -0.839,0.6298 -0.9326,1.3901 -0.0102,0.1047 -0.0148,0.4797 -0.0148,1.1308 v 8.8322 c 0,1.0002 0.2288,1.6975 0.6862,2.0939 0.2658,0.2028 0.5992,0.3223 1.0058,0.364 0.2445,0.0213 0.589,0.0324 1.0363,0.0324 h 4.1193 c 1.5781,0.009 2.9052,-0.2093 3.9841,-0.6576 l -0.6409,4.0888 h -12.7848 c -1.73,-0.0213 -3.0784,-0.5835 -4.0461,-1.6929 -0.376,-0.4159 -0.6511,-0.8169 -0.8233,-1.2086 -0.1714,-0.3853 -0.2964,-0.8742 -0.3649,-1.4623 -0.0621,-0.4899 -0.0936,-1.0215 -0.0936,-1.5985 v -8.9007 c 0,-1.1873 0.1038,-2.0828 0.3066,-2.682 0.163,-0.5001 0.4538,-0.9946 0.8705,-1.479 0.4168,-0.4899 0.8807,-0.8696 1.3855,-1.1456 0.7862,-0.438 1.7086,-0.6556 2.7653,-0.6556 z m 10.8113,0 v 6.3475 c 0.3658,-0.6298 0.9955,-0.9428 1.8799,-0.9317 h 5.9475 c 1.0409,0 1.8596,0.1083 2.4588,0.3223 1.7281,0.6983 2.5875,2.1458 2.5773,4.3332 v 6.8791 c 0.0102,1.2502 0.0519,2.0837 0.1195,2.5004 0.0527,0.427 0.2194,0.8845 0.5056,1.3744 h -8.7859 c 0.2862,-0.4899 0.4538,-0.9474 0.5057,-1.3744 0.0676,-0.4278 0.1092,-1.2613 0.1194,-2.5004 v -6.7911 c 0.0834,-1.1873 -0.4945,-1.7967 -1.7244,-1.8272 h -2.0615 c -0.5881,0 -1.0057,0.1556 -1.2502,0.4732 -0.1917,0.2658 -0.2917,0.6724 -0.2917,1.2188 v 6.9263 c 0.0111,1.2715 0.0528,2.1041 0.1204,2.5004 0.0518,0.4159 0.2176,0.8752 0.5047,1.3744 h -8.785 c 0.2852,-0.4899 0.4529,-0.9474 0.5047,-1.3744 0.0676,-0.4167 0.1093,-1.2502 0.1204,-2.5004 v -13.0766 c -0.0111,-1.2493 -0.0528,-2.0828 -0.1204,-2.4995 -0.0518,-0.4269 -0.2195,-0.8863 -0.5047,-1.3743 z m 16.8587,5.4158 h 14.035 c 1.078,-0.0111 1.9217,0.088 2.5311,0.2917 0.4575,0.1612 0.9001,0.4418 1.3271,0.8381 0.4269,0.3955 0.7557,0.828 0.9798,1.2966 0.2547,0.5362 0.3797,1.1974 0.3797,1.9846 v 7.1402 c 0.0102,1.2382 0.0518,2.0671 0.1195,2.4838 0.0518,0.427 0.2194,0.8845 0.5056,1.3744 h -7.4894 c -0.2241,-0.4168 -0.375,-0.9632 -0.4575,-1.6355 -0.1417,0.5732 -0.501,1.015 -1.0678,1.328 -0.2454,0.1565 -0.8121,0.2556 -1.7077,0.3075 h -5.6307 c -0.9057,0 -1.6188,-0.0574 -2.1346,-0.1658 -0.8854,-0.2149 -1.542,-0.6575 -1.9689,-1.3243 -0.427,-0.6659 -0.6409,-1.5772 -0.6409,-2.7385 v -2.6042 c 0.0111,-1.3225 0.4695,-2.3013 1.3762,-2.932 0.4575,-0.3121 0.9733,-0.5047 1.5512,-0.5622 0.3797,-0.0416 0.7085,-0.062 0.9946,-0.062 h 7.1718 c 0.6455,-0.0111 1.0668,-0.0472 1.2641,-0.1102 0.3658,-0.1297 0.5482,-0.4631 0.5482,-1.0048 0,-0.4066 -0.1259,-0.677 -0.3806,-0.8233 -0.2139,-0.1093 -0.6362,-0.1658 -1.266,-0.1658 h -7.3217 c -1.2604,-0.0213 -2.3384,0.2241 -3.2339,0.7344 z m 11.717,7.9357 h -3.6294 c -0.7242,0.0112 -1.2132,0.1779 -1.4632,0.5057 -0.2028,0.2806 -0.3075,0.7659 -0.3075,1.4475 v 0.6668 c 0,0.6714 0.1047,1.1511 0.3075,1.4317 0.25,0.3288 0.739,0.4946 1.4632,0.5057 h 1.843 c 0.7344,-0.0111 1.2243,-0.1769 1.4641,-0.5057 0.213,-0.2806 0.3223,-0.7603 0.3223,-1.4317 z m 24.0758,-7.9357 h 7.3533 c -0.2871,0.489 -0.4529,0.9474 -0.5048,1.3743 -0.0676,0.427 -0.1092,1.2549 -0.1203,2.4894 v 11.5151 c 0,1.1086 -0.0565,1.9411 -0.1667,2.5051 -0.1816,0.9632 -0.6928,1.7957 -1.5253,2.4829 -0.4899,0.401 -1.1002,0.6668 -1.8337,0.8131 -0.7603,0.1093 -1.8281,0.1713 -3.2025,0.1824 h -12.369 l -0.5519,-3.7395 c 0.3695,0.2917 0.7807,0.5 1.24,0.6251 0.6187,0.1306 1.5772,0.1982 2.8793,0.1982 h 5.6297 c 1.0363,-0.0112 1.6976,-0.1417 1.9847,-0.3964 0.2343,-0.2028 0.3593,-0.5205 0.3806,-0.9474 0,-0.1093 0,-0.3232 0,-0.6409 v -2.1976 c -0.2352,0.4371 -0.564,0.7446 -0.9909,0.9168 -0.427,0.1399 -1.078,0.2186 -1.9522,0.2288 h -4.5157 c -1.0984,0 -1.8902,-0.0473 -2.3634,-0.1352 -1.2243,-0.2353 -2.1041,-0.9539 -2.6403,-2.156 -0.3084,-0.6622 -0.4594,-1.3854 -0.4594,-2.1828 v -6.4938 c -0.0305,-1.5985 0.5103,-2.8061 1.6142,-3.634 0.7872,-0.5483 1.7716,-0.8187 2.9645,-0.8076 h 6.2697 c 0.8325,0.0102 1.4317,0.1148 1.7966,0.3065 0.2658,0.151 0.5473,0.4381 0.839,0.8539 z m -0.8066,10.6909 v -5.9622 c 0,-0.5992 -0.0324,-0.9799 -0.0954,-1.141 -0.1195,-0.2556 -0.2908,-0.4316 -0.5093,-0.526 -0.2186,-0.0991 -0.5677,-0.1454 -1.0419,-0.1454 h -2.1976 c -0.4899,0 -0.7974,0.0305 -0.9326,0.0935 -0.2862,0.1093 -0.4686,0.3593 -0.5464,0.7446 -0.0417,0.1408 -0.0621,0.4797 -0.0621,1.0048 v 5.9317 c 0,1.2243 0.5307,1.8235 1.5883,1.8022 h 2.181 c 0.688,-0.0111 1.1363,-0.1463 1.3391,-0.4121 0.1815,-0.2547 0.2769,-0.7187 0.2769,-1.3901 z m 11.1641,-10.6909 h 14.0351 c 1.078,-0.0111 1.9216,0.088 2.531,0.2917 0.4575,0.1612 0.9002,0.4418 1.3271,0.8381 0.4279,0.3955 0.7557,0.828 0.9798,1.2966 0.2547,0.5362 0.3797,1.1974 0.3797,1.9846 v 7.1402 c 0.0102,1.2382 0.0519,2.0671 0.1195,2.4838 0.0519,0.427 0.2195,0.8845 0.5056,1.3744 h -7.4884 c -0.2241,-0.4168 -0.376,-0.9632 -0.4584,-1.6355 -0.1408,0.5732 -0.5001,1.015 -1.0678,1.328 -0.2445,0.1565 -0.8122,0.2556 -1.7077,0.3075 h -5.6298 c -0.9057,0 -1.6197,-0.0574 -2.1356,-0.1658 -0.8853,-0.2149 -1.541,-0.6575 -1.9679,-1.3243 -0.427,-0.6659 -0.6409,-1.5772 -0.6409,-2.7385 v -2.6042 c 0.0102,-1.3225 0.4686,-2.3013 1.3752,-2.932 0.4575,-0.3121 0.9734,-0.5047 1.5513,-0.5622 0.3806,-0.0416 0.7084,-0.062 0.9946,-0.062 h 7.1717 c 0.6455,-0.0111 1.0669,-0.0472 1.2651,-0.1102 0.3649,-0.1297 0.5473,-0.4631 0.5473,-1.0048 0,-0.4066 -0.126,-0.677 -0.3806,-0.8233 -0.214,-0.1093 -0.6353,-0.1658 -1.266,-0.1658 h -7.3218 c -1.2604,-0.0213 -2.3374,0.2241 -3.2339,0.7344 z m 11.7171,7.9357 h -3.6294 c -0.7233,0.0112 -1.2132,0.1779 -1.4633,0.5057 -0.2028,0.2806 -0.3074,0.7659 -0.3074,1.4475 v 0.6668 c 0,0.6714 0.1046,1.1511 0.3074,1.4317 0.2501,0.3288 0.74,0.4946 1.4633,0.5057 h 1.8429 c 0.7344,-0.0111 1.2243,-0.1769 1.4642,-0.5057 0.213,-0.2806 0.3223,-0.7603 0.3223,-1.4317 z m 28.4247,-7.9357 0.7344,3.8748 c -0.5575,-0.4177 -1.052,-0.6723 -1.4789,-0.777 -0.5214,-0.1195 -1.2919,-0.1815 -2.3236,-0.1815 h -6.4049 c -0.6205,0.009 -0.9743,0.0352 -1.0521,0.0778 -0.2028,0.0991 -0.3074,0.3019 -0.3074,0.6094 0,0.3648 0.1657,0.5936 0.5047,0.6816 0.1407,0.0314 0.4065,0.0472 0.7918,0.0472 h 5.9206 c 3.1042,-0.151 4.6305,1.2762 4.5786,4.2869 v 2.1967 c 0,1.6309 -0.5473,2.8487 -1.6355,3.6609 -0.4056,0.2973 -0.7807,0.501 -1.1243,0.6205 -0.3491,0.1139 -0.8344,0.2028 -1.453,0.2491 -0.6307,0.0417 -1.0891,0.063 -1.3707,0.063 h -13.1858 l -0.6871,-3.9535 c 0.7603,0.3963 1.3697,0.6667 1.8179,0.8075 0.5566,0.151 1.4003,0.2297 2.5301,0.2297 h 6.5929 c 0.4584,0 0.7816,-0.0371 0.9641,-0.1047 0.2759,-0.125 0.4112,-0.375 0.4112,-0.7492 0,-0.3862 -0.1195,-0.6362 -0.364,-0.7455 -0.1352,-0.0518 -0.4167,-0.0778 -0.8437,-0.0778 h -6.6827 c -0.9363,0 -1.6661,-0.1204 -2.181,-0.3639 -1.1826,-0.652 -1.7864,-1.88 -1.8179,-3.6776 v -2.4421 c 0,-1.1975 0.3547,-2.1763 1.0669,-2.9274 0.3861,-0.4103 0.8131,-0.7131 1.2817,-0.9159 0.4695,-0.2038 1.078,-0.3482 1.8337,-0.427 0.4371,-0.0426 1.1298,-0.062 2.0716,-0.062 z m 19.3778,-1.9846 v 5.0204 h 6.9263 c 0.9372,0.0111 1.8281,-0.1612 2.6718,-0.5205 v 4.5768 c -0.5992,-0.2853 -1.1243,-0.4575 -1.5726,-0.5159 -0.4584,-0.0722 -1.052,-0.1083 -1.7864,-0.1083 h -6.2391 v 5.8437 c 0.0416,1.3743 0.3287,2.4051 0.8705,3.0978 h -9.6611 c 0.5409,-0.7233 0.828,-1.755 0.8696,-3.0978 v -14.6454 c -0.0416,-1.3326 -0.3287,-2.3588 -0.8696,-3.082 h 18.2377 l 0.6409,3.9359 c -0.6622,-0.2547 -1.2614,-0.4001 -1.8022,-0.4418 -0.4482,-0.0324 -1.2966,-0.0527 -2.5468,-0.0629 z m 19.712,-3.4312 v 3.8887 h -7.5357 v -3.8887 z m 0,5.4158 v 11.5346 c 0.0102,1.2502 0.0519,2.0837 0.1195,2.5004 0.0518,0.427 0.2185,0.8845 0.5056,1.3744 h -8.7859 c 0.2862,-0.4899 0.4529,-0.9474 0.5057,-1.3744 0.0676,-0.4167 0.1092,-1.2502 0.1194,-2.5004 v -7.6598 c -0.0102,-1.24 -0.0518,-2.0735 -0.1194,-2.5005 -0.0528,-0.4269 -0.2195,-0.8853 -0.5057,-1.3743 z m 10.8169,-5.4158 v 16.9504 c 0.0101,1.2502 0.0527,2.0837 0.1203,2.5004 0.051,0.427 0.2177,0.8845 0.5038,1.3744 h -8.7849 c 0.2861,-0.4899 0.4528,-0.9474 0.5047,-1.3744 0.0676,-0.4167 0.1093,-1.2502 0.1204,-2.5004 v -13.0766 c -0.0111,-1.2493 -0.0528,-2.0828 -0.1204,-2.4995 -0.0519,-0.4269 -0.2186,-0.8863 -0.5047,-1.3743 z m 10.6659,0 v 6.3475 c 0.3648,-0.6298 0.9946,-0.9428 1.8799,-0.9317 h 5.9474 c 1.041,0 1.8587,0.1083 2.4579,0.3223 1.729,0.6983 2.5885,2.1458 2.5783,4.3332 v 6.8791 c 0.0102,1.2502 0.0518,2.0837 0.1194,2.5004 0.0528,0.427 0.2186,0.8845 0.5057,1.3744 h -8.7859 c 0.2862,-0.4899 0.4538,-0.9474 0.5047,-1.3744 0.0685,-0.4278 0.1102,-1.2613 0.1195,-2.5004 v -6.7911 c 0.0843,-1.1873 -0.4946,-1.7967 -1.7235,-1.8272 h -2.0624 c -0.5881,0 -1.0048,0.1556 -1.2493,0.4732 -0.1927,0.2658 -0.2917,0.6724 -0.2917,1.2188 v 6.9263 c 0.0111,1.2715 0.0527,2.1041 0.1203,2.5004 0.0519,0.4159 0.2177,0.8752 0.5048,1.3744 h -8.785 c 0.2852,-0.4899 0.4528,-0.9474 0.5038,-1.3744 0.0676,-0.4167 0.1102,-1.2502 0.1204,-2.5004 v -13.0766 c -0.0102,-1.2493 -0.0528,-2.0828 -0.1204,-2.4995 -0.051,-0.4269 -0.2186,-0.8863 -0.5038,-1.3743 z m 20.8733,5.4158 h 9.9463 c 1.4114,0 2.469,0.1083 3.1719,0.3223 1.7605,0.6983 2.6098,2.2134 2.5468,4.5462 v 6.1456 c 0.0306,3.0932 -1.6985,4.5564 -5.1871,4.3953 h -9.7907 c -1.5466,0 -2.6144,-0.0834 -3.208,-0.2445 -0.4427,-0.1195 -0.8696,-0.3547 -1.2817,-0.7029 -0.4057,-0.3445 -0.7178,-0.74 -0.9419,-1.1873 -0.3176,-0.6408 -0.4742,-1.4595 -0.4742,-2.443 v -6.5559 c -0.0111,-1.5577 0.6048,-2.7561 1.843,-3.5896 0.6047,-0.3843 1.2975,-0.6084 2.0948,-0.6714 0.2232,-0.0102 0.6501,-0.0148 1.2808,-0.0148 z m 2.3181,4.6398 v 6.0409 c 0,0.6983 0.1444,1.1873 0.4417,1.4632 0.276,0.2242 0.7344,0.3381 1.3753,0.3492 h 2.2393 c 0.7029,-0.0111 1.1826,-0.1769 1.4317,-0.5057 0.213,-0.3009 0.3232,-0.7696 0.3232,-1.4002 v -5.7344 c -0.0102,-0.6816 -0.125,-1.1503 -0.3491,-1.4049 -0.3279,-0.3445 -0.9011,-0.5224 -1.7235,-0.5316 h -1.9216 c -1.2345,0 -1.8384,0.5723 -1.817,1.7235 z m 43.785,-10.0556 v 16.9504 c 0.0112,1.2502 0.0528,2.0837 0.1204,2.5004 0.0519,0.427 0.2195,0.8845 0.5048,1.3744 h -7.1394 l -0.3333,-1.3901 c -0.3492,0.5723 -0.7243,0.9372 -1.1299,1.0984 -0.5001,0.1935 -1.1872,0.2917 -2.0624,0.2917 h -5.3529 c -1.5577,-0.0102 -2.631,-0.2445 -3.2191,-0.7029 -0.7603,-0.5677 -1.2502,-1.266 -1.4632,-2.0884 -0.1621,-0.6307 -0.2445,-1.1974 -0.2445,-1.6985 v -6.6595 c -0.0213,-1.2132 0.3121,-2.2143 0.989,-3.0108 0.7965,-0.864 1.8124,-1.2808 3.0515,-1.2493 h 6.1818 c 1.24,0.0102 2.0939,0.489 2.5625,1.4373 v -2.9793 c -0.0111,-1.2604 -0.0528,-2.0939 -0.1204,-2.4995 -0.0519,-0.4177 -0.2176,-0.8752 -0.5047,-1.3743 z m -10.9354,17.9089 h 1.7078 c 0.6723,-0.0111 1.1354,-0.1723 1.3854,-0.4899 0.2028,-0.2816 0.3075,-0.7965 0.3075,-1.5364 v -5.7233 c 0,-0.5566 -0.0259,-0.9057 -0.0787,-1.0511 -0.1195,-0.2927 -0.2918,-0.4955 -0.5103,-0.6103 -0.2176,-0.1093 -0.551,-0.1658 -0.9993,-0.1658 h -2.0735 c -0.5825,0 -0.9835,0.1352 -1.2076,0.4112 -0.2547,0.3074 -0.3807,0.7547 -0.3807,1.3428 v 6.1771 c 0.0111,0.6298 0.1676,1.0678 0.4742,1.3123 0.2862,0.213 0.739,0.3223 1.3752,0.3334 z"
         style="fill:#911140;fill-rule:evenodd"
         id="path29"
         inkscape:connector-curvature="0" />
      <path
         d="m 632.9442,340.1743 h -12.7116 v 1.2651 c 0,0.6094 0.0574,1.0215 0.1667,1.2345 0.1824,0.4056 0.5417,0.6566 1.0678,0.7455 0.1454,0.0305 0.5047,0.0463 1.0826,0.0463 h 6.8374 c 1.5271,-0.0315 2.6255,-0.2658 3.2978,-0.7038 l -0.5473,3.6201 h -13.723 c -1.1761,0 -2.0716,-0.0778 -2.6819,-0.2288 -0.6094,-0.1519 -1.1456,-0.438 -1.6031,-0.8538 -0.9122,-0.8345 -1.391,-2.2088 -1.4327,-4.1193 v -4.9899 c -0.0417,-3.5988 1.7188,-5.338 5.2751,-5.2176 h 9.4786 c 1.354,0 2.3653,0.1083 3.0367,0.3325 0.5205,0.1982 0.9844,0.526 1.3956,0.9955 0.4103,0.4686 0.6872,0.9789 0.8168,1.5411 0.1621,0.6297 0.2445,1.3956 0.2445,2.3022 z m -7.4458,-2.9172 v -1.6605 c 0,-0.6612 -0.0787,-1.115 -0.2306,-1.3595 -0.1287,-0.1926 -0.3121,-0.3019 -0.5362,-0.3325 -0.088,-0.0111 -0.2964,-0.0157 -0.6242,-0.0157 h -2.4431 c -0.4528,0 -0.739,0.0204 -0.8538,0.062 -0.2501,0.0889 -0.4223,0.3066 -0.5001,0.6566 -0.051,0.2232 -0.0778,0.5622 -0.0778,1.0206 v 1.629 z m 24.3194,-11.7003 h 9.186 l 7.3069,18.3673 c 0.3954,0.8955 0.9372,1.7133 1.6197,2.4579 h -10.4825 c 0.3482,-0.4057 0.5205,-0.865 0.5205,-1.3744 0,-0.5778 -0.1723,-1.2613 -0.5205,-2.042 l -0.9585,-2.2282 h -8.5627 l -1.2966,2.8533 c -0.2445,0.5473 -0.3639,1.0308 -0.3639,1.4475 0,0.339 0.1296,0.7863 0.3954,1.3438 h -5.8427 c 0.9168,-1.0261 1.7447,-2.3329 2.4838,-3.9211 l 7.3532,-15.6706 c -0.213,-0.4686 -0.4899,-0.8807 -0.8381,-1.2335 z m 5.2648,11.8216 -2.6708,-6.454 -2.9117,6.454 z m 21.1022,-6.4058 0.1982,1.5253 c 0.15,-0.6094 0.3593,-1.0002 0.6251,-1.1771 0.3334,-0.2334 0.8168,-0.3482 1.4475,-0.3482 h 7.8579 c 0.9743,0.0102 1.6559,0.1037 2.0421,0.276 0.3806,0.1815 0.6658,0.5992 0.8687,1.2493 0.1676,-0.589 0.376,-0.9789 0.6316,-1.1771 0.2917,-0.2241 0.7908,-0.338 1.4938,-0.3482 h 6.0307 c 0.9845,0 1.7661,0.1037 2.3495,0.3065 0.5668,0.214 1.0613,0.5622 1.4836,1.0521 0.4223,0.4899 0.6974,1.0307 0.8178,1.6299 0.1408,0.6409 0.2186,1.5049 0.2287,2.5829 v 5.9632 c 0,1.3956 0.0102,2.2291 0.0315,2.5004 0.0528,0.4001 0.2186,0.8539 0.5057,1.3744 h -8.698 c 0.2871,-0.4992 0.4529,-0.9585 0.5057,-1.3744 0.0676,-0.4074 0.1093,-1.24 0.1195,-2.5004 v -6.6504 c 0,-0.6084 -0.0362,-1.0001 -0.1093,-1.177 -0.1408,-0.3538 -0.364,-0.5881 -0.6724,-0.6974 -0.1704,-0.063 -0.4575,-0.0935 -0.8538,-0.0935 h -1.8745 c -0.6353,0 -1.0622,0.0833 -1.2863,0.2445 -0.2658,0.213 -0.401,0.7288 -0.4121,1.5568 v 6.817 c 0.0111,1.2502 0.0481,2.0837 0.1102,2.5004 0.0574,0.4159 0.2297,0.8752 0.5001,1.3744 h -8.7859 c 0.2861,-0.4899 0.4584,-0.9474 0.5204,-1.3744 0.0676,-0.4278 0.1093,-1.2613 0.1204,-2.5004 v -6.6818 c 0,-0.64 -0.0833,-1.104 -0.2445,-1.3901 -0.1824,-0.3547 -0.5834,-0.5372 -1.2039,-0.5464 h -2.3069 c -0.5668,0 -0.9585,0.1241 -1.1715,0.3797 -0.1927,0.2343 -0.2908,0.6881 -0.2908,1.3595 v 6.8791 c 0.009,1.2187 0.0509,2.0522 0.1194,2.5004 0.0621,0.427 0.2343,0.8845 0.5205,1.3744 h -8.8016 c 0.287,-0.4899 0.4528,-0.9474 0.5056,-1.3744 0.0676,-0.4167 0.1093,-1.2502 0.1195,-2.5004 v -7.6709 c -0.0102,-1.2345 -0.0519,-2.0624 -0.1195,-2.4894 -0.0528,-0.4269 -0.2186,-0.8853 -0.5056,-1.3743 z m 28.9286,20.8252 v -16.9615 c -0.009,-1.2345 -0.051,-2.0624 -0.1186,-2.4894 -0.0518,-0.4269 -0.2195,-0.8853 -0.5056,-1.3743 h 7.1976 l 0.3538,1.4049 c 0.1713,-0.3065 0.3176,-0.5251 0.4427,-0.6557 0.3852,-0.4899 1.3021,-0.739 2.744,-0.7492 h 5.3593 c 1.5049,0.0102 2.557,0.2436 3.1562,0.7029 0.7603,0.5668 1.2437,1.2651 1.4475,2.0874 0.1722,0.6835 0.2602,1.2456 0.2602,1.6828 v 6.6762 c 0,1.2345 -0.3334,2.2338 -1.0048,3.0098 -0.7863,0.865 -1.8013,1.2808 -3.0515,1.2503 h -6.1826 c -1.2392,-0.0102 -2.093,-0.4899 -2.5616,-1.4373 v 2.9792 c 0.0101,1.2179 0.0518,2.0523 0.1194,2.4996 0.0621,0.4269 0.2297,0.8853 0.5057,1.3743 z m 9.4008,-8.3321 h 1.7087 c 0.6714,-0.0111 1.1344,-0.1723 1.3854,-0.4899 0.1973,-0.2816 0.2964,-0.7965 0.3065,-1.5364 v -5.7233 c 0,-0.5566 -0.0259,-0.9057 -0.0778,-1.0511 -0.1203,-0.2927 -0.2917,-0.4955 -0.5102,-0.6103 -0.2195,-0.1093 -0.5575,-0.1658 -1.015,-0.1658 h -2.0736 c -0.5834,0 -0.9844,0.1352 -1.2085,0.4112 -0.2547,0.3167 -0.3797,0.7603 -0.3797,1.3428 v 6.1771 c 0.0101,0.6298 0.1722,1.0678 0.4899,1.3123 0.275,0.213 0.7279,0.3223 1.3743,0.3334 z m 14.4305,-12.4931 h 14.035 c 1.078,-0.0111 1.9217,0.088 2.5311,0.2917 0.4575,0.1612 0.9011,0.4418 1.328,0.8381 0.4269,0.3955 0.7548,0.828 0.9789,1.2966 0.2547,0.5362 0.3806,1.1974 0.3806,1.9846 v 7.1402 c 0.009,1.2382 0.0519,2.0671 0.1195,2.4838 0.0518,0.427 0.2185,0.8845 0.5056,1.3744 h -7.4893 c -0.2242,-0.4168 -0.3751,-0.9632 -0.4585,-1.6355 -0.1407,0.5732 -0.5001,1.015 -1.0678,1.328 -0.2444,0.1565 -0.8121,0.2556 -1.7077,0.3075 h -5.6297 c -0.9058,0 -1.6198,-0.0574 -2.1347,-0.1658 -0.8863,-0.2149 -1.542,-0.6575 -1.9689,-1.3243 -0.4269,-0.6659 -0.6409,-1.5772 -0.6409,-2.7385 v -2.6042 c 0.0112,-1.3225 0.4686,-2.3013 1.3753,-2.932 0.4575,-0.3121 0.9733,-0.5047 1.5512,-0.5622 0.3806,-0.0416 0.7094,-0.062 0.9946,-0.062 h 7.1718 c 0.6455,-0.0111 1.0668,-0.0472 1.265,-0.1102 0.3649,-0.1297 0.5473,-0.4631 0.5473,-1.0048 0,-0.4066 -0.125,-0.677 -0.3806,-0.8233 -0.2139,-0.1093 -0.6353,-0.1658 -1.265,-0.1658 h -7.3227 c -1.2595,-0.0213 -2.3375,0.2241 -3.233,0.7344 z m 11.717,7.9357 h -3.6294 c -0.7233,0.0112 -1.2132,0.1779 -1.4632,0.5057 -0.2028,0.2806 -0.3075,0.7659 -0.3075,1.4475 v 0.6668 c 0,0.6714 0.1047,1.1511 0.3075,1.4317 0.25,0.3288 0.7399,0.4946 1.4632,0.5057 h 1.843 c 0.7344,-0.0111 1.2243,-0.1769 1.4641,-0.5057 0.213,-0.2806 0.3223,-0.7603 0.3223,-1.4317 z m 17.7117,-7.9357 0.1982,2.5357 c 0.2028,-0.6715 0.4056,-1.1354 0.6149,-1.3901 0.6297,-0.8076 1.7448,-1.1873 3.3377,-1.1456 h 3.8025 v 5.0973 c -0.3287,-0.3066 -0.6668,-0.5205 -1.0215,-0.64 -0.4991,-0.1621 -1.2132,-0.2445 -2.1411,-0.2445 h -1.541 c -0.8122,0 -1.4475,0.213 -1.906,0.64 -0.4269,0.3963 -0.6399,0.9538 -0.6399,1.6623 v 5.0361 c 0.0102,1.2382 0.0519,2.0671 0.1195,2.4838 0.0518,0.427 0.2185,0.8845 0.5056,1.3744 h -8.7859 c 0.2862,-0.4899 0.4529,-0.9474 0.5057,-1.3744 0.0676,-0.4167 0.1092,-1.2456 0.1185,-2.4838 v -7.6718 c -0.009,-1.2548 -0.0509,-2.0883 -0.1185,-2.5051 -0.0528,-0.4269 -0.2195,-0.8853 -0.5057,-1.3743 z m 14.8065,0 h 9.9463 c 1.4114,0 2.469,0.1083 3.1719,0.3223 1.7605,0.6983 2.6097,2.2134 2.5467,4.5462 v 6.1456 c 0.0306,3.0932 -1.6975,4.5564 -5.187,4.3953 h -9.7908 c -1.5466,0 -2.6144,-0.0834 -3.208,-0.2445 -0.4417,-0.1195 -0.8687,-0.3547 -1.2808,-0.7029 -0.4065,-0.3445 -0.7186,-0.74 -0.9427,-1.1873 -0.3177,-0.6408 -0.4742,-1.4595 -0.4742,-2.443 v -6.5559 c -0.0102,-1.5577 0.6047,-2.7561 1.8439,-3.5896 0.6038,-0.3843 1.2965,-0.6084 2.0939,-0.6714 0.2241,-0.0102 0.651,-0.0148 1.2808,-0.0148 z m 2.318,4.6398 v 6.0409 c 0,0.6983 0.1454,1.1873 0.4417,1.4632 0.2769,0.2242 0.7344,0.3381 1.3753,0.3492 h 2.2393 c 0.7029,-0.0111 1.1826,-0.1769 1.4318,-0.5057 0.213,-0.3009 0.3232,-0.7696 0.3232,-1.4002 v -5.7344 c -0.0102,-0.6816 -0.1251,-1.1503 -0.3482,-1.4049 -0.3288,-0.3445 -0.9021,-0.5224 -1.7244,-0.5316 h -1.9217 c -1.2345,0 -1.8383,0.5723 -1.817,1.7235 z M 41.282,366.1246 h 14.0351 c 1.0779,-0.0111 1.9216,0.088 2.531,0.2917 0.4584,0.1611 0.9011,0.4417 1.328,0.8381 0.427,0.3964 0.7548,0.828 0.9789,1.2966 0.2547,0.5362 0.3806,1.1974 0.3806,1.9846 v 7.1402 c 0.0102,1.2391 0.0519,2.0671 0.1195,2.4838 0.0519,0.427 0.2186,0.8845 0.5057,1.3744 h -7.4894 c -0.2241,-0.4168 -0.3751,-0.9632 -0.4584,-1.6355 -0.1408,0.5732 -0.5001,1.0159 -1.0678,1.328 -0.2445,0.1565 -0.8122,0.2556 -1.7078,0.3075 h -5.6297 c -0.9058,0 -1.6198,-0.0575 -2.1347,-0.1658 -0.8863,-0.2139 -1.5419,-0.6575 -1.9689,-1.3243 -0.4269,-0.6659 -0.6408,-1.5772 -0.6408,-2.7385 v -2.6033 c 0.0111,-1.3234 0.4686,-2.3023 1.3752,-2.932 0.4575,-0.313 0.9734,-0.5057 1.5522,-0.5631 0.3797,-0.0417 0.7084,-0.062 0.9937,-0.062 h 7.1717 c 0.6464,-0.0111 1.0669,-0.0473 1.265,-0.1093 0.3649,-0.1306 0.5474,-0.464 0.5474,-1.0058 0,-0.4056 -0.1251,-0.6769 -0.3797,-0.8233 -0.214,-0.1092 -0.6363,-0.1657 -1.266,-0.1657 h -7.3227 c -1.2595,-0.0213 -2.3375,0.2241 -3.233,0.7344 z m 11.717,7.9357 h -3.6294 c -0.7232,0.0111 -1.2131,0.1778 -1.4632,0.5057 -0.2028,0.2806 -0.3075,0.7659 -0.3075,1.4475 v 0.6668 c 0,0.6714 0.1047,1.1511 0.3075,1.4317 0.2501,0.3288 0.74,0.4955 1.4632,0.5057 h 1.843 c 0.7353,-0.0102 1.2243,-0.1769 1.4641,-0.5057 0.2131,-0.2806 0.3223,-0.7603 0.3223,-1.4317 z m -7.0772,-14.4036 h 5.0935 l 2.1977,4.988 h -4.1351 z m 39.124,14.399 v 4.3805 c 0.0417,1.3641 0.3334,2.3948 0.8844,3.0978 h -9.5823 c 0.5417,-0.7233 0.8279,-1.7541 0.8696,-3.0978 v -14.6454 c -0.0417,-1.3327 -0.3279,-2.3588 -0.8696,-3.0821 h 17.0402 c 1.3438,0 2.3755,0.114 3.083,0.3483 1.5883,0.5936 2.4014,1.9114 2.4421,3.9683 v 4.7287 c -0.0305,1.453 -0.4677,2.5458 -1.3123,3.2811 -0.5473,0.4788 -1.2965,0.7854 -2.2439,0.9271 -0.3751,0.062 -1.0317,0.0935 -1.9689,0.0935 z m 0,-3.4312 h 3.9998 c 0.9215,0.009 1.5198,-0.1723 1.7957,-0.5473 0.1714,-0.276 0.2603,-0.9011 0.2603,-1.88 v -1.6309 c 0,-0.9057 -0.0889,-1.541 -0.2603,-1.9059 -0.1611,-0.2862 -0.4167,-0.4473 -0.7603,-0.489 -0.062,-0.0213 -0.2704,-0.0315 -0.6251,-0.0315 h -4.4101 z m 36.204,4.7018 h -12.7125 v 1.2651 c 0,0.6093 0.0574,1.0215 0.1667,1.2345 0.1824,0.4056 0.5417,0.6566 1.0687,0.7455 0.1444,0.0305 0.5038,0.0463 1.0826,0.0463 h 6.8374 c 1.5262,-0.0315 2.6255,-0.2658 3.2969,-0.7029 l -0.5473,3.6192 h -13.7221 c -1.177,0 -2.0726,-0.0778 -2.6829,-0.2288 -0.6084,-0.1509 -1.1456,-0.438 -1.603,-0.8539 -0.9113,-0.8344 -1.3901,-2.2087 -1.4318,-4.1192 v -4.9889 c -0.0426,-3.5989 1.7188,-5.339 5.2741,-5.2186 h 9.4787 c 1.3539,0 2.3652,0.1083 3.0367,0.3324 0.5204,0.1982 0.9844,0.527 1.3956,0.9956 0.4112,0.4686 0.6881,0.9789 0.8168,1.541 0.1621,0.6307 0.2454,1.3957 0.2454,2.3023 z m -7.4467,-2.9163 v -1.6614 c 0,-0.6612 -0.0788,-1.115 -0.2297,-1.3595 -0.1297,-0.1917 -0.313,-0.3019 -0.5372,-0.3325 -0.0879,-0.0111 -0.2963,-0.0157 -0.6232,-0.0157 h -2.444 c -0.4529,0 -0.739,0.0203 -0.8539,0.0629 -0.2491,0.088 -0.4213,0.3066 -0.4991,0.6557 -0.0519,0.2241 -0.0787,0.5622 -0.0787,1.0206 v 1.6299 z m 27.8145,-6.2854 0.7343,3.8748 c -0.5575,-0.4177 -1.052,-0.6724 -1.4789,-0.7761 -0.5214,-0.1195 -1.2919,-0.1824 -2.3236,-0.1824 h -6.4049 c -0.6205,0.0102 -0.9743,0.0361 -1.0521,0.0778 -0.2028,0.0991 -0.3074,0.3019 -0.3074,0.6093 0,0.3649 0.1657,0.5937 0.5047,0.6826 0.1407,0.0305 0.4065,0.0463 0.7918,0.0463 h 5.9206 c 3.1042,-0.151 4.6305,1.2761 4.5786,4.2869 v 2.1976 c 0,1.63 -0.5473,2.8478 -1.6355,3.66 -0.4056,0.2973 -0.7807,0.501 -1.1243,0.6205 -0.3491,0.1139 -0.8344,0.2028 -1.453,0.2491 -0.6298,0.0426 -1.0891,0.063 -1.3707,0.063 h -13.1858 l -0.6871,-3.9526 c 0.7603,0.3954 1.3697,0.6668 1.8179,0.8066 0.5566,0.151 1.4003,0.2297 2.5301,0.2297 h 6.5929 c 0.4584,0 0.7816,-0.0361 0.9641,-0.1038 0.276,-0.1259 0.4112,-0.376 0.4112,-0.7501 0,-0.3862 -0.1195,-0.6353 -0.364,-0.7455 -0.1352,-0.0509 -0.4167,-0.0769 -0.8437,-0.0769 h -6.6827 c -0.9363,0 -1.6661,-0.1204 -2.181,-0.3649 -1.1826,-0.6519 -1.7864,-1.8799 -1.8179,-3.6775 v -2.4421 c 0,-1.1975 0.3547,-2.1764 1.0669,-2.9265 0.3861,-0.4112 0.8131,-0.714 1.2817,-0.9168 0.4695,-0.2029 1.078,-0.3483 1.8337,-0.427 0.4371,-0.0416 1.1298,-0.062 2.0716,-0.062 z m 15.6853,20.8252 v -6.4985 c -0.3538,0.703 -1.1456,1.0623 -2.3643,1.0827 h -5.5242 c -1.7818,0.0518 -3.0886,-0.4168 -3.9378,-1.4059 -0.4538,-0.5677 -0.7455,-1.2604 -0.865,-2.0726 -0.0722,-0.4797 -0.1092,-0.8233 -0.1092,-1.0372 v -5.7641 c 0,-0.8862 0.0889,-1.6206 0.2657,-2.1976 0.1769,-0.5844 0.4788,-1.0937 0.8956,-1.5419 0.3223,-0.3696 0.651,-0.6354 0.9844,-0.802 0.3288,-0.1667 0.765,-0.302 1.3179,-0.4057 0.6927,-0.1204 1.2808,-0.1824 1.7707,-0.1824 h 4.9259 c 1.6096,0.0305 2.5986,0.5158 2.9737,1.4521 l 0.2612,-1.4521 h 7.5671 c -0.2871,0.489 -0.4538,0.9474 -0.5056,1.3743 -0.0676,0.4269 -0.1102,1.2549 -0.1195,2.4894 v 13.0876 c 0.009,1.2503 0.0519,2.0828 0.1195,2.4996 0.0518,0.4269 0.2185,0.8853 0.5056,1.3743 z m 0,-9.7796 v -6.6809 c 0.0111,-0.9845 -0.5566,-1.4697 -1.7077,-1.4484 h -1.88 c -0.6196,0.0102 -1.0521,0.1305 -1.2965,0.3639 -0.2445,0.2454 -0.3705,0.6881 -0.3807,1.3281 v 6.1919 c 0.0102,0.6408 0.1362,1.0835 0.3807,1.328 0.2444,0.2352 0.6769,0.3547 1.2965,0.3649 h 1.88 c 1.1511,0.0213 1.7188,-0.4631 1.7077,-1.4475 z m 31.1892,-11.0456 v 11.5299 c 0.0111,1.2549 0.0528,2.0884 0.1204,2.5051 0.0519,0.427 0.2186,0.8845 0.5047,1.3744 h -7.1235 l -0.3029,-1.4373 c -0.1972,0.4787 -0.4158,0.8121 -0.6714,0.9946 -0.4167,0.2963 -1.1354,0.4427 -2.156,0.4427 h -5.8122 c -0.9844,0 -1.7651,-0.0834 -2.3328,-0.2445 -0.5677,-0.1612 -1.0576,-0.4372 -1.4632,-0.8233 -0.6409,-0.6187 -1.0049,-1.4836 -1.0836,-2.594 -0.0315,-0.3066 -0.0472,-0.8585 -0.0472,-1.6661 v -6.2067 c -0.0102,-1.2503 -0.0519,-2.0828 -0.1195,-2.5005 -0.0518,-0.4269 -0.2185,-0.8853 -0.5056,-1.3743 h 8.1617 v 10.4464 c -0.063,1.4271 0.4843,2.1087 1.6346,2.0467 h 1.8123 c 0.7761,0 1.2873,-0.1297 1.5262,-0.3955 0.214,-0.2658 0.3233,-0.7603 0.3233,-1.479 v -6.7438 c -0.0112,-1.2614 -0.0528,-2.0939 -0.1204,-2.5005 -0.0519,-0.4167 -0.2177,-0.8742 -0.5048,-1.3743 z m 10.9687,-5.4159 v 3.8897 h -7.5356 v -3.8897 z m 0,5.4159 v 11.5346 c 0.0102,1.2502 0.0519,2.0837 0.1195,2.5004 0.0519,0.427 0.2186,0.8845 0.5057,1.3744 H 191.3 c 0.2862,-0.4899 0.4529,-0.9474 0.5057,-1.3744 0.0676,-0.4167 0.1093,-1.2502 0.1195,-2.5004 v -7.6598 c -0.0102,-1.2401 -0.0519,-2.0736 -0.1195,-2.5005 -0.0528,-0.4269 -0.2195,-0.8853 -0.5057,-1.3743 z m 20.9929,0 0.7344,3.8748 c -0.5575,-0.4177 -1.0521,-0.6724 -1.479,-0.7761 -0.5214,-0.1195 -1.2919,-0.1824 -2.3227,-0.1824 h -6.4058 c -0.6196,0.0102 -0.9743,0.0361 -1.0521,0.0778 -0.2028,0.0991 -0.3074,0.3019 -0.3074,0.6093 0,0.3649 0.1667,0.5937 0.5047,0.6826 0.1417,0.0305 0.4075,0.0463 0.7927,0.0463 h 5.9206 c 3.1043,-0.151 4.6296,1.2761 4.5777,4.2869 v 2.1976 c 0,1.63 -0.5473,2.8478 -1.6345,3.66 -0.4066,0.2973 -0.7817,0.501 -1.1253,0.6205 -0.3491,0.1139 -0.8334,0.2028 -1.453,0.2491 -0.6298,0.0426 -1.0891,0.063 -1.3706,0.063 h -13.1859 l -0.6862,-3.9526 c 0.7603,0.3954 1.3688,0.6668 1.817,0.8066 0.5575,0.151 1.4003,0.2297 2.531,0.2297 h 6.592 c 0.4594,0 0.7817,-0.0361 0.965,-0.1038 0.2751,-0.1259 0.4112,-0.376 0.4112,-0.7501 0,-0.3862 -0.1195,-0.6353 -0.3649,-0.7455 -0.1352,-0.0509 -0.4167,-0.0769 -0.8436,-0.0769 h -6.6819 c -0.9372,0 -1.666,-0.1204 -2.1819,-0.3649 -1.1826,-0.6519 -1.7864,-1.8799 -1.817,-3.6775 v -2.4421 c 0,-1.1975 0.3538,-2.1764 1.0669,-2.9265 0.3862,-0.4112 0.8131,-0.714 1.2817,-0.9168 0.4686,-0.2029 1.078,-0.3483 1.8328,-0.427 0.4371,-0.0416 1.1298,-0.062 2.0726,-0.062 z m 4.1045,0 h 14.035 c 1.078,-0.0111 1.9217,0.088 2.531,0.2917 0.4575,0.1611 0.9002,0.4417 1.3271,0.8381 0.427,0.3964 0.7557,0.828 0.9798,1.2966 0.2547,0.5362 0.3797,1.1974 0.3797,1.9846 v 7.1402 c 0.0102,1.2391 0.0519,2.0671 0.1195,2.4838 0.0519,0.427 0.2195,0.8845 0.5057,1.3744 h -7.4894 c -0.2241,-0.4168 -0.3751,-0.9632 -0.4575,-1.6355 -0.1417,0.5732 -0.501,1.0159 -1.0678,1.328 -0.2454,0.1565 -0.8122,0.2556 -1.7077,0.3075 h -5.6307 c -0.9057,0 -1.6188,-0.0575 -2.1347,-0.1658 -0.8853,-0.2139 -1.541,-0.6575 -1.9689,-1.3243 -0.4269,-0.6659 -0.6408,-1.5772 -0.6408,-2.7385 v -2.6033 c 0.0111,-1.3234 0.4695,-2.3023 1.3762,-2.932 0.4575,-0.313 0.9733,-0.5057 1.5512,-0.5631 0.3806,-0.0417 0.7084,-0.062 0.9946,-0.062 h 7.1717 c 0.6455,-0.0111 1.0669,-0.0473 1.2642,-0.1093 0.3658,-0.1306 0.5482,-0.464 0.5482,-1.0058 0,-0.4056 -0.1259,-0.6769 -0.3806,-0.8233 -0.2139,-0.1092 -0.6362,-0.1657 -1.266,-0.1657 h -7.3217 c -1.2605,-0.0213 -2.3384,0.2241 -3.234,0.7344 z m 11.717,7.9357 h -3.6294 c -0.7242,0.0111 -1.2132,0.1778 -1.4633,0.5057 -0.2028,0.2806 -0.3074,0.7659 -0.3074,1.4475 v 0.6668 c 0,0.6714 0.1046,1.1511 0.3074,1.4317 0.2501,0.3288 0.7391,0.4955 1.4633,0.5057 h 1.8429 c 0.7344,-0.0102 1.2243,-0.1769 1.4642,-0.5057 0.213,-0.2806 0.3223,-0.7603 0.3223,-1.4317 z m 43.8101,-13.3516 v 16.9505 c 0.0101,1.2502 0.0518,2.0837 0.1204,2.5004 0.0509,0.427 0.2185,0.8845 0.5038,1.3744 h -7.1394 l -0.3333,-1.3901 c -0.3483,0.5723 -0.7243,0.9372 -1.1299,1.0983 -0.4992,0.1936 -1.1873,0.2918 -2.0624,0.2918 h -5.3529 c -1.5577,-0.0102 -2.631,-0.2445 -3.2191,-0.703 -0.7603,-0.5677 -1.2502,-1.2659 -1.4632,-2.0883 -0.1621,-0.6307 -0.2445,-1.1975 -0.2445,-1.6985 v -6.6596 c -0.0204,-1.2132 0.313,-2.2133 0.989,-3.0107 0.7965,-0.8641 1.8124,-1.2808 3.0515,-1.2493 h 6.1818 c 1.24,0.0102 2.0939,0.489 2.5625,1.4373 v -2.9793 c -0.0111,-1.2604 -0.0528,-2.0939 -0.1204,-2.4995 -0.0519,-0.4168 -0.2176,-0.8752 -0.5047,-1.3744 z m -10.9364,17.909 h 1.7078 c 0.6723,-0.0102 1.1354,-0.1723 1.3854,-0.489 0.2028,-0.2815 0.3075,-0.7974 0.3075,-1.5373 v -5.7233 c 0,-0.5566 -0.0259,-0.9058 -0.0787,-1.0512 -0.1195,-0.2926 -0.2918,-0.4954 -0.5103,-0.6103 -0.2176,-0.1092 -0.551,-0.1657 -0.9993,-0.1657 h -2.0726 c -0.5834,0 -0.9844,0.1352 -1.2085,0.4112 -0.2547,0.3074 -0.3807,0.7547 -0.3807,1.3437 v 6.1762 c 0.0111,0.6297 0.1676,1.0678 0.4742,1.3123 0.2862,0.213 0.739,0.3232 1.3752,0.3334 z m 18.8573,-12.4931 h 9.9463 c 1.4114,0 2.469,0.1083 3.1719,0.3223 1.7605,0.6982 2.6098,2.2133 2.5468,4.5462 v 6.1456 c 0.0305,3.0932 -1.6976,4.5564 -5.1871,4.3953 h -9.7907 c -1.5466,0 -2.6144,-0.0834 -3.208,-0.2445 -0.4427,-0.1195 -0.8697,-0.3547 -1.2808,-0.7029 -0.4066,-0.3446 -0.7187,-0.7391 -0.9428,-1.1873 -0.3177,-0.6409 -0.4742,-1.4586 -0.4742,-2.4431 v -6.5558 c -0.0111,-1.5577 0.6048,-2.7561 1.8439,-3.5887 0.6038,-0.3852 1.2965,-0.6093 2.0939,-0.6723 0.2232,-0.0102 0.651,-0.0148 1.2808,-0.0148 z m 2.318,4.6397 v 6.041 c 0,0.6983 0.1454,1.1873 0.4418,1.4632 0.2769,0.2241 0.7344,0.339 1.3752,0.3492 h 2.2393 c 0.703,-0.0102 1.1827,-0.1769 1.4318,-0.5057 0.213,-0.301 0.3232,-0.7696 0.3232,-1.4002 v -5.7345 c -0.0102,-0.6816 -0.125,-1.1502 -0.3491,-1.4049 -0.3279,-0.3445 -0.9011,-0.5213 -1.7235,-0.5315 h -1.9217 c -1.2345,0 -1.8383,0.5723 -1.817,1.7234 z m 37.4608,-6.6244 v 5.0519 h 6.3799 c 1.2706,0 2.255,-0.1556 2.9579,-0.4741 v 4.4526 c -0.4167,-0.3435 -1.2039,-0.526 -2.3643,-0.5464 h -6.9735 v 5.4789 h 7.7181 c 0.7029,0 1.692,-0.2399 2.9626,-0.7187 l -0.6863,4.1499 h -18.785 c 0.5409,-0.7233 0.828,-1.7494 0.8696,-3.083 v -14.6602 c -0.0416,-1.3327 -0.3287,-2.3588 -0.8696,-3.0821 h 18.3424 l 0.6084,3.9054 c -0.7501,-0.2658 -1.4114,-0.4112 -1.9846,-0.4427 -0.3529,-0.0213 -0.9159,-0.0315 -1.692,-0.0315 z m 30.2529,1.9847 0.7344,3.8748 c -0.5575,-0.4177 -1.0521,-0.6724 -1.479,-0.7761 -0.5214,-0.1195 -1.2919,-0.1824 -2.3236,-0.1824 h -6.4049 c -0.6205,0.0102 -0.9742,0.0361 -1.052,0.0778 -0.2029,0.0991 -0.3075,0.3019 -0.3075,0.6093 0,0.3649 0.1658,0.5937 0.5047,0.6826 0.1408,0.0305 0.4066,0.0463 0.7918,0.0463 h 5.9206 c 3.1043,-0.151 4.6305,1.2761 4.5786,4.2869 v 2.1976 c 0,1.63 -0.5473,2.8478 -1.6355,3.66 -0.4056,0.2973 -0.7807,0.501 -1.1242,0.6205 -0.3492,0.1139 -0.8345,0.2028 -1.4531,0.2491 -0.6297,0.0426 -1.0891,0.063 -1.3706,0.063 h -13.1858 l -0.6872,-3.9526 c 0.7603,0.3954 1.3697,0.6668 1.8179,0.8066 0.5566,0.151 1.4003,0.2297 2.5301,0.2297 h 6.5929 c 0.4585,0 0.7817,-0.0361 0.9641,-0.1038 0.276,-0.1259 0.4112,-0.376 0.4112,-0.7501 0,-0.3862 -0.1195,-0.6353 -0.364,-0.7455 -0.1352,-0.0509 -0.4167,-0.0769 -0.8436,-0.0769 h -6.6828 c -0.9363,0 -1.666,-0.1204 -2.1809,-0.3649 -1.1827,-0.6519 -1.7865,-1.8799 -1.818,-3.6775 v -2.4421 c 0,-1.1975 0.3547,-2.1764 1.0669,-2.9265 0.3862,-0.4112 0.8131,-0.714 1.2817,-0.9168 0.4695,-0.2029 1.078,-0.3483 1.8337,-0.427 0.4371,-0.0416 1.1298,-0.062 2.0717,-0.062 z m 18.4451,0 v 2.9163 h -6.379 v 7.1495 c 0.0102,0.6408 0.0306,1.0779 0.063,1.3132 0.0769,0.5316 0.364,0.8585 0.8539,0.9937 0.301,0.0787 0.739,0.1204 1.3113,0.1204 h 2.0477 c 1.3271,-0.0102 2.343,-0.2862 3.0357,-0.8224 l -0.5825,3.7387 h -7.9793 c -1.5679,-0.0102 -2.6662,-0.0936 -3.296,-0.2445 -0.9066,-0.1936 -1.6568,-0.7085 -2.255,-1.542 -0.427,-0.5779 -0.6668,-1.4892 -0.7187,-2.7292 l -0.0167,-1.6494 v -6.328 h -2.3328 v -2.9163 h 2.3328 v -3.1719 l 7.5366,-0.3232 v 3.4951 z m 3.6618,0 h 14.0351 c 1.078,-0.0111 1.9216,0.088 2.531,0.2917 0.4575,0.1611 0.9002,0.4417 1.3271,0.8381 0.4279,0.3964 0.7557,0.828 0.9798,1.2966 0.2547,0.5362 0.3797,1.1974 0.3797,1.9846 v 7.1402 c 0.0102,1.2391 0.0519,2.0671 0.1195,2.4838 0.0518,0.427 0.2195,0.8845 0.5056,1.3744 h -7.4884 c -0.2241,-0.4168 -0.376,-0.9632 -0.4584,-1.6355 -0.1408,0.5732 -0.5001,1.0159 -1.0678,1.328 -0.2445,0.1565 -0.8122,0.2556 -1.7078,0.3075 h -5.6297 c -0.9057,0 -1.6198,-0.0575 -2.1356,-0.1658 -0.8854,-0.2139 -1.541,-0.6575 -1.968,-1.3243 -0.4269,-0.6659 -0.6408,-1.5772 -0.6408,-2.7385 v -2.6033 c 0.0102,-1.3234 0.4686,-2.3023 1.3752,-2.932 0.4575,-0.313 0.9734,-0.5057 1.5513,-0.5631 0.3806,-0.0417 0.7084,-0.062 0.9946,-0.062 h 7.1717 c 0.6455,-0.0111 1.0669,-0.0473 1.2651,-0.1093 0.3648,-0.1306 0.5473,-0.464 0.5473,-1.0058 0,-0.4056 -0.126,-0.6769 -0.3806,-0.8233 -0.214,-0.1092 -0.6354,-0.1657 -1.266,-0.1657 h -7.3218 c -1.2604,-0.0213 -2.3374,0.2241 -3.2339,0.7344 z m 11.717,7.9357 h -3.6293 c -0.7233,0.0111 -1.2132,0.1778 -1.4633,0.5057 -0.2028,0.2806 -0.3074,0.7659 -0.3074,1.4475 v 0.6668 c 0,0.6714 0.1046,1.1511 0.3074,1.4317 0.2501,0.3288 0.74,0.4955 1.4633,0.5057 h 1.8429 c 0.7344,-0.0102 1.2243,-0.1769 1.4642,-0.5057 0.213,-0.2806 0.3222,-0.7603 0.3222,-1.4317 z m 30.653,-13.3516 v 16.9505 c 0.0111,1.2502 0.0528,2.0837 0.1204,2.5004 0.0519,0.427 0.2186,0.8845 0.5047,1.3744 h -7.1402 l -0.3334,-1.3901 c -0.3482,0.5723 -0.7233,0.9372 -1.1298,1.0983 -0.4992,0.1936 -1.1873,0.2918 -2.0624,0.2918 h -5.3529 c -1.5577,-0.0102 -2.6301,-0.2445 -3.2191,-0.703 -0.7604,-0.5677 -1.2493,-1.2659 -1.4623,-2.0883 -0.163,-0.6307 -0.2455,-1.1975 -0.2455,-1.6985 v -6.6596 c -0.0203,-1.2132 0.3131,-2.2133 0.9891,-3.0107 0.7965,-0.8641 1.8124,-1.2808 3.0515,-1.2493 h 6.1817 c 1.2401,0.0102 2.0939,0.489 2.5626,1.4373 v -2.9793 c -0.0102,-1.2604 -0.0528,-2.0939 -0.1204,-2.4995 -0.0519,-0.4168 -0.2177,-0.8752 -0.5038,-1.3744 z m -10.9363,17.909 h 1.7077 c 0.6724,-0.0102 1.1364,-0.1723 1.3855,-0.489 0.2037,-0.2815 0.3075,-0.7974 0.3075,-1.5373 v -5.7233 c 0,-0.5566 -0.026,-0.9058 -0.0778,-1.0512 -0.1195,-0.2926 -0.2918,-0.4954 -0.5112,-0.6103 -0.2177,-0.1092 -0.5511,-0.1657 -0.9993,-0.1657 h -2.0726 c -0.5835,0 -0.9845,0.1352 -1.2086,0.4112 -0.2547,0.3074 -0.3797,0.7547 -0.3797,1.3437 v 6.1762 c 0.0102,0.6297 0.1667,1.0678 0.4733,1.3123 0.287,0.213 0.7399,0.3232 1.3752,0.3334 z m 18.8573,-12.4931 h 9.9463 c 1.4114,0 2.469,0.1083 3.1719,0.3223 1.7605,0.6982 2.6097,2.2133 2.5467,4.5462 v 6.1456 c 0.0306,3.0932 -1.6975,4.5564 -5.187,4.3953 h -9.7898 c -1.5466,0 -2.6153,-0.0834 -3.209,-0.2445 -0.4417,-0.1195 -0.8687,-0.3547 -1.2808,-0.7029 -0.4065,-0.3446 -0.7186,-0.7391 -0.9427,-1.1873 -0.3177,-0.6409 -0.4742,-1.4586 -0.4742,-2.4431 v -6.5558 c -0.0102,-1.5577 0.6047,-2.7561 1.8439,-3.5887 0.6038,-0.3852 1.2965,-0.6093 2.0939,-0.6723 0.2241,-0.0102 0.651,-0.0148 1.2808,-0.0148 z m 2.318,4.6397 v 6.041 c 0,0.6983 0.1454,1.1873 0.4417,1.4632 0.2769,0.2241 0.7344,0.339 1.3753,0.3492 h 2.2393 c 0.7029,-0.0102 1.1826,-0.1769 1.4327,-0.5057 0.213,-0.301 0.3223,-0.7696 0.3223,-1.4002 v -5.7345 c -0.0102,-0.6816 -0.1251,-1.1502 -0.3482,-1.4049 -0.3288,-0.3445 -0.9021,-0.5213 -1.7244,-0.5315 h -1.9217 c -1.2336,0 -1.8383,0.5723 -1.817,1.7234 z m 49.1315,-10.0556 v 16.9505 c 0.0111,1.2502 0.0527,2.0837 0.1203,2.5004 0.0519,0.427 0.2186,0.8845 0.5048,1.3744 h -7.1403 l -0.3334,-1.3901 c -0.3482,0.5723 -0.7232,0.9372 -1.1298,1.0983 -0.4992,0.1936 -1.1873,0.2918 -2.0624,0.2918 h -5.3529 c -1.5577,-0.0102 -2.6301,-0.2445 -3.2191,-0.703 -0.7603,-0.5677 -1.2493,-1.2659 -1.4623,-2.0883 -0.163,-0.6307 -0.2454,-1.1975 -0.2454,-1.6985 v -6.6596 c -0.0204,-1.2132 0.313,-2.2133 0.989,-3.0107 0.7965,-0.8641 1.8124,-1.2808 3.0515,-1.2493 h 6.1818 c 1.24,0.0102 2.0939,0.489 2.5625,1.4373 v -2.9793 c -0.0102,-1.2604 -0.0528,-2.0939 -0.1204,-2.4995 -0.0519,-0.4168 -0.2176,-0.8752 -0.5038,-1.3744 z m -10.9364,17.909 h 1.7078 c 0.6723,-0.0102 1.1363,-0.1723 1.3854,-0.489 0.2038,-0.2815 0.3075,-0.7974 0.3075,-1.5373 v -5.7233 c 0,-0.5566 -0.026,-0.9058 -0.0778,-1.0512 -0.1195,-0.2926 -0.2917,-0.4954 -0.5112,-0.6103 -0.2177,-0.1092 -0.551,-0.1657 -0.9993,-0.1657 h -2.0726 c -0.5834,0 -0.9844,0.1352 -1.2086,0.4112 -0.2546,0.3074 -0.3797,0.7547 -0.3797,1.3437 v 6.1762 c 0.0102,0.6297 0.1667,1.0678 0.4733,1.3123 0.2871,0.213 0.7399,0.3232 1.3752,0.3334 z m 18.8573,-12.4931 h 9.9463 c 1.4114,0 2.469,0.1083 3.1719,0.3223 1.7605,0.6982 2.6097,2.2133 2.5468,4.5462 v 6.1456 c 0.0305,3.0932 -1.6976,4.5564 -5.1871,4.3953 h -9.7898 c -1.5466,0 -2.6153,-0.0834 -3.209,-0.2445 -0.4417,-0.1195 -0.8686,-0.3547 -1.2807,-0.7029 -0.4066,-0.3446 -0.7187,-0.7391 -0.9428,-1.1873 -0.3177,-0.6409 -0.4742,-1.4586 -0.4742,-2.4431 v -6.5558 c -0.0102,-1.5577 0.6048,-2.7561 1.8439,-3.5887 0.6038,-0.3852 1.2965,-0.6093 2.0939,-0.6723 0.2241,-0.0102 0.651,-0.0148 1.2808,-0.0148 z m 2.318,4.6397 v 6.041 c 0,0.6983 0.1454,1.1873 0.4418,1.4632 0.2769,0.2241 0.7344,0.339 1.3752,0.3492 h 2.2393 c 0.7029,-0.0102 1.1827,-0.1769 1.4327,-0.5057 0.213,-0.301 0.3223,-0.7696 0.3223,-1.4002 v -5.7345 c -0.0102,-0.6816 -0.125,-1.1502 -0.3482,-1.4049 -0.3288,-0.3445 -0.902,-0.5213 -1.7244,-0.5315 h -1.9217 c -1.2335,0 -1.8383,0.5723 -1.817,1.7234 z"
         style="fill:#911140;fill-rule:evenodd"
         id="path31"
         inkscape:connector-curvature="0" />
      <path
         d="m 532.0271,372.6545 h -2.4421 v 5.7965 c 0.0416,1.3539 0.3287,2.38 0.8696,3.083 h -9.6602 c 0.5409,-0.7233 0.828,-1.7494 0.8696,-3.083 v -14.6602 c -0.0416,-1.3327 -0.3287,-2.3588 -0.8696,-3.0821 h 17.1338 c 1.3438,0 2.3801,0.114 3.0987,0.3483 1.5883,0.5936 2.4005,1.917 2.4422,3.9683 v 4.4888 c 0,0.9428 -0.1195,1.6309 -0.3649,2.0578 -0.4371,0.7446 -1.1456,1.1141 -2.1245,1.1141 -0.1509,0 -0.3436,-0.0102 -0.5779,-0.0315 l 2.8543,6.041 c 0.4991,1.0891 1.0307,2.0365 1.603,2.8385 h -9.1554 z m -2.4421,-3.4312 h 4.4267 c 0.677,0 1.1354,-0.1306 1.3697,-0.3964 0.1723,-0.2658 0.2612,-0.7399 0.2612,-1.4215 v -1.0373 c 0,-0.989 -0.0889,-1.603 -0.2612,-1.8475 -0.2343,-0.2658 -0.7603,-0.3918 -1.5836,-0.3807 h -4.2128 z m 24.5287,-8.5146 v 3.8897 h -7.5357 v -3.8897 z m 0,5.4159 v 11.5346 c 0.0101,1.2502 0.0518,2.0837 0.1194,2.5004 0.0519,0.427 0.2195,0.8845 0.5057,1.3744 h -8.7859 c 0.2871,-0.4899 0.4528,-0.9474 0.5056,-1.3744 0.0676,-0.4167 0.1093,-1.2502 0.1195,-2.5004 v -7.6598 c -0.0102,-1.2401 -0.0519,-2.0736 -0.1195,-2.5005 -0.0528,-0.4269 -0.2185,-0.8853 -0.5056,-1.3743 z m 8.1033,0 h 9.9463 c 1.4114,0 2.47,0.1083 3.1719,0.3223 1.7615,0.6982 2.6098,2.2133 2.5468,4.5462 v 6.1456 c 0.0315,3.0932 -1.6975,4.5564 -5.1871,4.3953 h -9.7898 c -1.5466,0 -2.6144,-0.0834 -3.2089,-0.2445 -0.4418,-0.1195 -0.8687,-0.3547 -1.2808,-0.7029 -0.4056,-0.3446 -0.7187,-0.7391 -0.9428,-1.1873 -0.3167,-0.6409 -0.4732,-1.4586 -0.4732,-2.4431 v -6.5558 c -0.0111,-1.5577 0.6038,-2.7561 1.8429,-3.5887 0.6038,-0.3852 1.2966,-0.6093 2.0939,-0.6723 0.2242,-0.0102 0.6511,-0.0148 1.2808,-0.0148 z m 2.3181,4.6397 v 6.041 c 0,0.6983 0.1454,1.1873 0.4417,1.4632 0.2769,0.2241 0.7344,0.339 1.3762,0.3492 h 2.2384 c 0.7029,-0.0102 1.1826,-0.1769 1.4327,-0.5057 0.213,-0.301 0.3222,-0.7696 0.3222,-1.4002 v -5.7345 c -0.0101,-0.6816 -0.1241,-1.1502 -0.3482,-1.4049 -0.3287,-0.3445 -0.902,-0.5213 -1.7234,-0.5315 h -1.9217 c -1.2345,0 -1.8383,0.5723 -1.8179,1.7234 z m 49.1314,-10.0556 v 16.9505 c 0.0111,1.2502 0.0528,2.0837 0.1204,2.5004 0.0519,0.427 0.2186,0.8845 0.5047,1.3744 h -7.1402 l -0.3334,-1.3901 c -0.3482,0.5723 -0.7233,0.9372 -1.1289,1.0983 -0.5001,0.1936 -1.1882,0.2918 -2.0624,0.2918 h -5.3538 c -1.5577,-0.0102 -2.6301,-0.2445 -3.2182,-0.703 -0.7603,-0.5677 -1.2502,-1.2659 -1.4632,-2.0883 -0.1621,-0.6307 -0.2445,-1.1975 -0.2445,-1.6985 v -6.6596 c -0.0213,-1.2132 0.3121,-2.2133 0.989,-3.0107 0.7965,-0.8641 1.8124,-1.2808 3.0515,-1.2493 h 6.1808 c 1.241,0.0102 2.0949,0.489 2.5635,1.4373 v -2.9793 c -0.0111,-1.2604 -0.0528,-2.0939 -0.1204,-2.4995 -0.0519,-0.4168 -0.2186,-0.8752 -0.5047,-1.3744 z m -10.9354,17.909 h 1.7078 c 0.6714,-0.0102 1.1354,-0.1723 1.3854,-0.489 0.2028,-0.2815 0.3075,-0.7974 0.3075,-1.5373 v -5.7233 c 0,-0.5566 -0.026,-0.9058 -0.0787,-1.0512 -0.1195,-0.2926 -0.2918,-0.4954 -0.5103,-0.6103 -0.2186,-0.1092 -0.552,-0.1657 -0.9993,-0.1657 H 602.47 c -0.5835,0 -0.9845,0.1352 -1.2086,0.4112 -0.2547,0.3074 -0.3797,0.7547 -0.3797,1.3437 v 6.1762 c 0.0111,0.6297 0.1667,1.0678 0.4733,1.3123 0.287,0.213 0.7399,0.3232 1.3761,0.3334 z m 33.9277,-3.2914 h -12.7126 v 1.2651 c 0,0.6093 0.0584,1.0215 0.1677,1.2345 0.1815,0.4056 0.5408,0.6566 1.0678,0.7455 0.1454,0.0305 0.5047,0.0463 1.0826,0.0463 h 6.8374 c 1.5271,-0.0315 2.6255,-0.2658 3.2969,-0.7029 l -0.5473,3.6192 h -13.7221 c -1.1761,0 -2.0726,-0.0778 -2.682,-0.2288 -0.6093,-0.1509 -1.1455,-0.438 -1.604,-0.8539 -0.9112,-0.8344 -1.39,-2.2087 -1.4317,-4.1192 v -4.9889 c -0.0417,-3.5989 1.7188,-5.339 5.2751,-5.2186 h 9.4786 c 1.353,0 2.3643,0.1083 3.0367,0.3324 0.5204,0.1982 0.9835,0.527 1.3947,0.9956 0.4112,0.4686 0.6881,0.9789 0.8177,1.541 0.1621,0.6307 0.2445,1.3957 0.2445,2.3023 z M 629.212,372.41 v -1.6614 c 0,-0.6612 -0.0787,-1.115 -0.2296,-1.3595 -0.1297,-0.1917 -0.3121,-0.3019 -0.5362,-0.3325 -0.0889,-0.0111 -0.2964,-0.0157 -0.6242,-0.0157 h -2.4431 c -0.4528,0 -0.7399,0.0203 -0.8539,0.0629 -0.25,0.088 -0.4223,0.3066 -0.5,0.6557 -0.0519,0.2241 -0.0788,0.5622 -0.0788,1.0206 v 1.6299 z m 21.4735,9.124 -0.6251,-4.1351 c 0.7029,0.4899 1.8541,0.7242 3.4636,0.7039 h 4.4259 c 0.8807,0.009 1.4854,-0.1982 1.7975,-0.6252 0.1713,-0.3074 0.2602,-0.9122 0.2602,-1.8179 v -11.8689 c -0.0426,-1.3641 -0.3278,-2.3893 -0.8705,-3.0821 h 9.6611 c -0.5418,0.6928 -0.8279,1.718 -0.8696,3.0821 v 11.7809 c -0.0102,2.0199 -0.401,3.447 -1.1762,4.2693 -0.5788,0.6622 -1.3808,1.1466 -2.4115,1.4485 -0.5687,0.1611 -1.1521,0.2445 -1.7559,0.2445 z m 21.0716,-15.4094 h 14.035 c 1.078,-0.0111 1.9217,0.088 2.5311,0.2917 0.4575,0.1611 0.9001,0.4417 1.3271,0.8381 0.4269,0.3964 0.7557,0.828 0.9798,1.2966 0.2547,0.5362 0.3797,1.1974 0.3797,1.9846 v 7.1402 c 0.0102,1.2391 0.0518,2.0671 0.1194,2.4838 0.0519,0.427 0.2195,0.8845 0.5057,1.3744 h -7.4894 c -0.2232,-0.4168 -0.375,-0.9632 -0.4575,-1.6355 -0.1417,0.5732 -0.5001,1.0159 -1.0678,1.328 -0.2445,0.1565 -0.8122,0.2556 -1.7077,0.3075 h -5.6307 c -0.9048,0 -1.6188,-0.0575 -2.1346,-0.1658 -0.8854,-0.2139 -1.5411,-0.6575 -1.968,-1.3243 -0.4269,-0.6659 -0.6409,-1.5772 -0.6409,-2.7385 v -2.6033 c 0.0102,-1.3234 0.4686,-2.3023 1.3753,-2.932 0.4575,-0.313 0.9733,-0.5057 1.5512,-0.5631 0.3806,-0.0417 0.7085,-0.062 0.9946,-0.062 h 7.1718 c 0.6455,-0.0111 1.0668,-0.0473 1.265,-0.1093 0.3649,-0.1306 0.5473,-0.464 0.5473,-1.0058 0,-0.4056 -0.1259,-0.6769 -0.3806,-0.8233 -0.2139,-0.1092 -0.6362,-0.1657 -1.266,-0.1657 h -7.3217 c -1.2604,-0.0213 -2.3375,0.2241 -3.234,0.7344 z m 11.717,7.9357 h -3.6294 c -0.7242,0.0111 -1.2132,0.1778 -1.4632,0.5057 -0.2028,0.2806 -0.3075,0.7659 -0.3075,1.4475 v 0.6668 c 0,0.6714 0.1047,1.1511 0.3075,1.4317 0.25,0.3288 0.739,0.4955 1.4632,0.5057 h 1.843 c 0.7344,-0.0102 1.2243,-0.1769 1.4641,-0.5057 0.213,-0.2806 0.3223,-0.7603 0.3223,-1.4317 z m 17.6228,-7.9357 0.3185,1.541 c 0.2853,-0.5464 0.6029,-0.9372 0.9632,-1.1604 0.4158,-0.2565 1.0048,-0.3806 1.7707,-0.3806 h 5.6455 c 1.077,0 1.9263,0.1565 2.5468,0.4741 1.603,0.916 2.3847,2.4579 2.3328,4.6241 v 6.4364 c 0.009,1.2502 0.0519,2.0837 0.1195,2.5004 0.0528,0.427 0.2185,0.8845 0.5056,1.3744 h -8.7868 c 0.2871,-0.4899 0.4538,-0.9474 0.5056,-1.3744 0.0676,-0.438 0.1102,-1.2706 0.1195,-2.5004 v -6.6967 c -0.009,-0.739 -0.0982,-1.2345 -0.2593,-1.479 -0.2028,-0.2972 -0.652,-0.4426 -1.3438,-0.4426 h -2.318 c -0.4575,0 -0.7974,0.1092 -1.0206,0.3223 -0.1972,0.1935 -0.2972,0.589 -0.3065,1.1872 v 7.1088 c 0.009,1.2298 0.0509,2.0624 0.1195,2.5004 0.062,0.427 0.2287,0.8845 0.5047,1.3744 h -8.7859 c 0.2871,-0.4899 0.4528,-0.9474 0.5056,-1.3744 0.0676,-0.4167 0.1093,-1.2502 0.1195,-2.5004 v -7.6709 c -0.0102,-1.2345 -0.0519,-2.0625 -0.1195,-2.4894 -0.0528,-0.4269 -0.2185,-0.8853 -0.5056,-1.3743 z m 36.6318,9.2017 h -12.7116 v 1.2651 c 0,0.6093 0.0574,1.0215 0.1667,1.2345 0.1824,0.4056 0.5418,0.6566 1.0678,0.7455 0.1454,0.0305 0.5047,0.0463 1.0826,0.0463 h 6.8374 c 1.5271,-0.0315 2.6255,-0.2658 3.2978,-0.7029 l -0.5473,3.6192 h -13.7229 c -1.1762,0 -2.0717,-0.0778 -2.682,-0.2288 -0.6094,-0.1509 -1.1456,-0.438 -1.6031,-0.8539 -0.9122,-0.8344 -1.391,-2.2087 -1.4327,-4.1192 v -4.9889 c -0.0417,-3.5989 1.7189,-5.339 5.2751,-5.2186 h 9.4786 c 1.354,0 2.3653,0.1083 3.0367,0.3324 0.5205,0.1982 0.9845,0.527 1.3956,0.9956 0.4103,0.4686 0.6872,0.9789 0.8169,1.541 0.162,0.6307 0.2444,1.3957 0.2444,2.3023 z m -7.4458,-2.9163 v -1.6614 c 0,-0.6612 -0.0787,-1.115 -0.2306,-1.3595 -0.1287,-0.1917 -0.3121,-0.3019 -0.5362,-0.3325 -0.088,-0.0111 -0.2964,-0.0157 -0.6242,-0.0157 h -2.443 c -0.4529,0 -0.7391,0.0203 -0.8539,0.0629 -0.2501,0.088 -0.4223,0.3066 -0.5001,0.6557 -0.0509,0.2241 -0.0778,0.5622 -0.0778,1.0206 v 1.6299 z m 17.8043,-11.7013 v 3.8897 h -7.5357 v -3.8897 z m 0,5.4159 v 11.5346 c 0.0102,1.2502 0.0518,2.0837 0.1194,2.5004 0.0519,0.427 0.2195,0.8845 0.5057,1.3744 h -8.7859 c 0.2871,-0.4899 0.4528,-0.9474 0.5056,-1.3744 0.0676,-0.4167 0.1093,-1.2502 0.1195,-2.5004 v -7.6598 c -0.0102,-1.2401 -0.0519,-2.0736 -0.1195,-2.5005 -0.0528,-0.4269 -0.2185,-0.8853 -0.5056,-1.3743 z m 10.2806,0 0.1973,2.5356 c 0.2037,-0.6714 0.4065,-1.1354 0.6158,-1.39 0.6298,-0.8076 1.7439,-1.1873 3.3377,-1.1456 h 3.8016 v 5.0982 c -0.3278,-0.3066 -0.6668,-0.5214 -1.0205,-0.64 -0.5001,-0.163 -1.2132,-0.2454 -2.1412,-0.2454 h -1.5419 c -0.8122,0 -1.4466,0.213 -1.9059,0.6399 -0.427,0.3964 -0.64,0.9539 -0.64,1.6624 v 5.0361 c 0.0102,1.2391 0.0519,2.0671 0.1195,2.4838 0.0519,0.427 0.2195,0.8845 0.5056,1.3744 h -8.7859 c 0.2871,-0.4899 0.4529,-0.9474 0.5057,-1.3744 0.0676,-0.4167 0.1093,-1.2447 0.1195,-2.4838 v -7.6718 c -0.0102,-1.2549 -0.0519,-2.0874 -0.1195,-2.5051 -0.0528,-0.4269 -0.2186,-0.8853 -0.5057,-1.3743 z m 14.8056,0 h 9.9472 c 1.4105,0 2.469,0.1083 3.1719,0.3223 1.7605,0.6982 2.6088,2.2133 2.5468,4.5462 v 6.1456 c 0.0306,3.0932 -1.6985,4.5564 -5.188,4.3953 h -9.7898 c -1.5466,0 -2.6144,-0.0834 -3.209,-0.2445 -0.4417,-0.1195 -0.8686,-0.3547 -1.2808,-0.7029 -0.4056,-0.3446 -0.7186,-0.7391 -0.9427,-1.1873 -0.3168,-0.6409 -0.4733,-1.4586 -0.4733,-2.4431 v -6.5558 c -0.0111,-1.5577 0.6038,-2.7561 1.843,-3.5887 0.6038,-0.3852 1.2965,-0.6093 2.0939,-0.6723 0.2241,-0.0102 0.651,-0.0148 1.2808,-0.0148 z m 2.318,4.6397 v 6.041 c 0,0.6983 0.1454,1.1873 0.4418,1.4632 0.2769,0.2241 0.7353,0.339 1.3761,0.3492 h 2.2394 c 0.7019,-0.0102 1.1817,-0.1769 1.4317,-0.5057 0.213,-0.301 0.3223,-0.7696 0.3223,-1.4002 v -5.7345 c -0.0102,-0.6816 -0.1241,-1.1502 -0.3482,-1.4049 -0.3288,-0.3445 -0.902,-0.5213 -1.7235,-0.5315 h -1.9217 c -1.2344,0 -1.8383,0.5723 -1.8179,1.7234 z"
         style="fill:#911140;fill-rule:evenodd"
         id="path33"
         inkscape:connector-curvature="0" />
    </g>
  </g>
</svg>
