<?xml version="1.0" encoding="UTF-8" standalone="no"?>
<!-- Generator: Adobe Illustrator 13.0.0, SVG Export Plug-In . SVG Version: 6.00 Build 14948)  -->

<svg
   xmlns:dc="http://purl.org/dc/elements/1.1/"
   xmlns:cc="http://creativecommons.org/ns#"
   xmlns:rdf="http://www.w3.org/1999/02/22-rdf-syntax-ns#"
   xmlns:svg="http://www.w3.org/2000/svg"
   xmlns="http://www.w3.org/2000/svg"
   xmlns:sodipodi="http://sodipodi.sourceforge.net/DTD/sodipodi-0.dtd"
   xmlns:inkscape="http://www.inkscape.org/namespaces/inkscape"
   version="1.1"
   id="Camada_1"
   x="0px"
   y="0px"
   width="500"
   height="220"
   viewBox="0 0 499.99999 220.00001"
   enable-background="new 0 0 418.32 178.68"
   xml:space="preserve"
   sodipodi:docname="cnpq.svg"
   inkscape:version="0.92.4 5da689c313, 2019-01-14"><metadata
   id="metadata21"><rdf:RDF><cc:Work
       rdf:about=""><dc:format>image/svg+xml</dc:format><dc:type
         rdf:resource="http://purl.org/dc/dcmitype/StillImage" /><dc:title></dc:title></cc:Work></rdf:RDF></metadata><defs
   id="defs19" /><sodipodi:namedview
   pagecolor="#ffffff"
   bordercolor="#666666"
   borderopacity="1"
   objecttolerance="10"
   gridtolerance="10"
   guidetolerance="10"
   inkscape:pageopacity="0"
   inkscape:pageshadow="2"
   inkscape:window-width="3200"
   inkscape:window-height="1800"
   id="namedview17"
   showgrid="false"
   inkscape:zoom="1.320797"
   inkscape:cx="142.53357"
   inkscape:cy="82.525929"
   inkscape:window-x="0"
   inkscape:window-y="0"
   inkscape:window-maximized="0"
   inkscape:current-layer="Camada_1" />






<g
   id="g838"
   transform="translate(4.4e-4,-3.2160087)"><path
     style="fill:#0067a6;stroke-width:1.19525492"
     inkscape:connector-curvature="0"
     id="path2"
     d="m 123.40769,56.48913 c 2.49568,9.982769 2.23751,15.404446 0.51634,23.407873 -2.23751,8.950069 -7.14284,15.576563 -11.78999,19.707364 L 128.7433,156.31683 H 112.30615 C 106.79842,135.57676 99.913751,112.68524 94.233899,91.945172 97.590176,90.137948 106.97054,84.80233 108.5196,72.323868 109.98257,60.619931 102.66762,51.497745 97.676234,48.141469 93.287258,45.473661 86.832881,43.40826 80.808796,44.613077 69.10486,45.903953 61.187492,54.94008 59.380266,64.922849 c -0.258175,1.376934 -0.258175,2.0654 -0.430292,3.958685 0,0 -4.561093,12.822694 -6.110144,16.867437 h 3.442334 l -0.08606,33.304589 h 39.586845 l 4.561091,16.17897 H 39.845019 V 97.969259 h -8.34766 c 3.012042,-9.036129 10.757294,-29.087725 10.757294,-29.087725 0.946643,-7.228902 1.376934,-21.084298 16.092913,-32.444 6.884668,-5.76591 17.641963,-9.638537 29.173782,-8.691895 19.018902,2.323576 31.669482,15.318388 35.886342,28.743491 z" /><path
     style="fill:#0067a6;stroke-width:1.19525492"
     inkscape:connector-curvature="0"
     id="path4"
     d="m 140.27513,41.687093 c 12.04815,26.592032 4.21685,51.548955 -4.73322,63.338947 l 13.68328,50.86049 h -16.17897 l -15.83474,-54.73311 c 9.81065,-9.380364 15.9208,-28.485319 11.18759,-44.233999 -4.30291,-15.920794 -17.55591,-29.345899 -36.316628,-33.046408 -20.137657,-4.130801 -39.156553,6.196202 -47.246038,20.48189 -5.163502,7.831309 -6.024085,15.318386 -6.884668,24.526631 0,0 -10.154887,24.354514 -13.597221,33.218526 h 10.757294 l 0.08606,37.43538 h 66.350991 l 4.64715,16.60926 H 18.760722 V 116.72998 L 0,116.64392 c 0,0 20.309772,-46.385452 20.223714,-47.762386 1.204817,-16.26503 8.519777,-36.488743 24.010281,-48.536913 7.917369,-6.196202 18.502547,-12.1342287 32.616117,-13.5111617 15.318387,-1.462993 21.858823,1.290875 32.099758,4.7332087 17.12562,7.314961 28.74349,23.838165 31.32526,30.120425 z" /><path
     style="fill:#0067a6;stroke-width:1.19525492"
     inkscape:connector-curvature="0"
     id="path6"
     d="m 67.55581,69.397884 c 0,-9.036127 7.31496,-16.351088 16.265028,-16.351088 9.036129,0 16.351092,7.314961 16.351092,16.351088 0,8.950069 -7.314963,16.17897 -16.351092,16.17897 -8.950068,0 -16.265028,-7.228901 -16.265028,-16.17897 z" /><path
     style="stroke-width:1.19525492"
     inkscape:connector-curvature="0"
     id="path8"
     d="m 263.6828,184.19974 v -2.4957 c 0.68847,-0.17211 1.20482,-0.51635 1.63511,-1.0327 0.68847,-0.77452 1.11876,-1.72117 1.29088,-2.66781 0.0861,-0.0861 0.0861,-0.17212 0.0861,-0.25817 0,-0.0861 0,-0.0861 0,-0.17212 0.0861,-0.25818 0.0861,-0.43029 0.0861,-0.68847 0.0861,-0.17211 0.0861,-0.43029 0.0861,-0.60241 0,-0.77453 -0.17211,-1.37693 -0.51634,-1.89327 -0.34424,-0.51636 -0.94664,-0.77453 -1.80724,-0.77453 -0.34423,0 -0.6024,0.0861 -0.86058,0.0861 v -3.09811 h 0.0861 c 0.17211,0 0.25817,0 0.34423,0 0.86058,0 1.54905,0.17211 2.0654,0.4303 0.43029,0.34423 0.77452,0.6024 1.0327,1.0327 0.0861,0.0861 0.17212,0.17211 0.17212,0.34423 0.0861,0.0861 0.17211,0.17212 0.17211,0.25818 h 0.0861 l 1.37693,-6.45438 h 3.5284 l -3.87263,18.15831 h -3.44234 l 0.34424,-1.72117 h -0.0861 c -0.43029,0.60242 -0.86058,1.0327 -1.37693,1.29089 -0.17212,0.0861 -0.34423,0.17211 -0.4303,0.25817 z m 0,-13.59723 v 3.09811 c -0.77453,0.17211 -1.29087,0.60241 -1.80722,1.20481 -0.60241,0.86059 -1.0327,1.80723 -1.20482,2.83993 v 0 c -0.0861,0.25817 -0.0861,0.4303 -0.17211,0.68847 0,0.25817 0,0.51634 0,0.68847 0,0.68847 0.17211,1.29086 0.43029,1.89327 0.34423,0.51636 0.94664,0.86059 1.72117,0.86059 0.34423,0 0.68846,-0.0861 1.03269,-0.17212 v 2.4957 c -0.43029,0.17211 -0.77453,0.34423 -1.20481,0.43028 -0.17211,0 -0.4303,0.0861 -0.60241,0.0861 -0.25817,0 -0.51635,0 -0.68847,0 -1.63511,0 -2.75387,-0.4303 -3.35628,-1.37694 -0.68846,-0.94664 -1.03269,-2.15146 -1.03269,-3.52838 0,-0.34424 0,-0.77453 0.0861,-1.11877 0,-0.43029 0.0861,-0.77453 0.17211,-1.20481 0.43029,-2.15147 1.29087,-3.78657 2.49569,-4.90533 1.29088,-1.20482 2.58176,-1.80724 3.95868,-1.97935 0.0861,0 0.0861,0 0.17212,0 z m -29.25984,13.42511 v -2.06541 c 0.4303,-0.17211 0.86058,-0.34423 1.20482,-0.68847 0.60242,-0.43028 1.03269,-0.94664 1.11875,-1.72116 v 0 l 0.34424,-1.72117 c -0.17211,0.17212 -0.4303,0.25818 -0.86057,0.4303 -0.34424,0.0861 -0.86059,0.17212 -1.63512,0.34423 -0.0861,0 -0.17212,0 -0.17212,0 v -2.32358 l 1.80724,-0.25817 c 0.0861,0 0.1721,0 0.25816,0 0,0 0.0861,0 0.17211,-0.0861 0.25819,0 0.4303,-0.0861 0.68847,-0.25818 0.17212,-0.17212 0.34423,-0.34423 0.4303,-0.68846 0,-0.0861 0,-0.17212 0,-0.17212 0,-0.0861 0,-0.17211 0,-0.25817 0,-0.43029 -0.17212,-0.68847 -0.4303,-0.86058 -0.25817,-0.0861 -0.60241,-0.25818 -0.94664,-0.25818 -0.0861,0 -0.25816,0 -0.34423,0 -0.0861,0 -0.25817,0 -0.34423,0 -0.51635,0 -0.94664,0.0861 -1.29088,0.25818 v -2.83993 c 0.4303,-0.17213 0.94665,-0.17213 1.37694,-0.25818 0.17211,0 0.34424,0 0.51634,0 0.0861,0 0.25818,0 0.43029,0 0.25818,0 0.51636,0 0.86059,0 0.25818,0.0861 0.60241,0.0861 0.86058,0.17211 0.77453,0.0861 1.463,0.4303 2.06541,0.86059 0.60241,0.43029 0.86058,1.11876 0.86058,1.97935 0,0.17211 0,0.25817 0,0.43029 0,0.17212 -0.0861,0.25818 -0.0861,0.43029 v 0 l -1.54906,7.31496 c -0.0861,0.25817 -0.0861,0.43029 -0.0861,0.68847 -0.0861,0.17211 -0.0861,0.34423 -0.0861,0.43028 0,0.34424 0.0861,0.60242 0.17211,0.68847 0.0861,0.17212 0.17211,0.25819 0.34423,0.25819 l -0.0861,0.51634 h -3.87261 c 0,-0.0861 0,-0.17211 0,-0.34423 0,-0.0861 0,-0.17211 0,-0.25818 v -0.0861 0 c 0,-0.17211 0,-0.25817 0,-0.43029 0,-0.0861 0,-0.25818 0,-0.43029 -0.0861,0.0861 -0.17213,0.17211 -0.25819,0.25818 -0.17211,0.0861 -0.25817,0.17211 -0.34423,0.25817 -0.34424,0.25817 -0.68847,0.51636 -1.11876,0.68847 z m 11.61789,0.34423 h -3.52841 l 3.87264,-18.15831 h 3.52838 z m -11.61789,-13.51116 v 2.83993 c -0.0861,0 -0.17212,0.0861 -0.25817,0.17211 -0.34423,0.25818 -0.60242,0.51636 -0.77453,0.86059 0,0.0861 -0.0861,0.17211 -0.0861,0.25817 -0.0861,0.17211 -0.0861,0.25817 -0.0861,0.34423 l -3.44232,-0.0861 c 0.51634,-1.80722 1.37691,-3.01204 2.49568,-3.61445 0.68847,-0.34423 1.37693,-0.6024 2.15146,-0.77452 z m 0,5.42167 v 2.32358 c -0.6024,0.17212 -1.20481,0.34423 -1.63511,0.51636 -0.51635,0.25817 -0.86059,0.77452 -1.0327,1.46298 0,0.0861 0,0.17212 0,0.17212 0,0.0861 -0.0861,0.0861 -0.0861,0.17211 v 0.0861 c 0,0 0,0 0,0.0861 0,0.34424 0.0861,0.60241 0.34423,0.77453 0.17213,0.17211 0.4303,0.25817 0.68847,0.34424 0,0 0.0861,0 0.17212,0 0.0861,0 0.0861,0 0.17212,0 0.0861,0 0.25817,0 0.34423,0 0.0861,0 0.25817,0 0.34424,-0.0861 0.25817,0 0.43029,-0.0861 0.68846,-0.17212 v 2.06541 c -0.17212,0.0861 -0.34423,0.17212 -0.6024,0.25818 -0.60242,0.34423 -1.463,0.43029 -2.40964,0.43029 -0.86058,0 -1.6351,-0.17212 -2.32357,-0.68847 -0.68847,-0.43029 -1.0327,-1.20482 -1.0327,-2.23752 0,-0.0861 0,-0.25817 0,-0.4303 0,-0.17211 0.0861,-0.34423 0.0861,-0.51634 0.25817,-1.29087 0.86058,-2.32357 1.72116,-3.01204 0.94665,-0.68847 1.97934,-1.11876 3.0981,-1.29088 l 1.46299,-0.25818 z m -29.51802,8.34766 v -2.92598 c 0.60241,-0.17211 1.20483,-0.4303 1.54906,-0.86058 0.60241,-0.60242 1.03269,-1.29088 1.29088,-1.97935 0.0861,-0.17211 0.17211,-0.43028 0.25817,-0.6024 0.0861,-0.17212 0.0861,-0.4303 0.17211,-0.60241 v 0 c 0,-0.17211 0,-0.25817 0.0861,-0.4303 0,-0.17211 0,-0.34423 0,-0.51634 0,-0.0861 0,-0.17212 0,-0.25818 0,-0.0861 0,-0.17212 0,-0.25818 0,-0.68847 -0.17211,-1.29087 -0.51634,-1.80721 -0.34424,-0.51636 -0.94665,-0.77453 -1.97935,-0.77453 -0.34423,0 -0.60242,0 -0.86059,0 v -2.92599 c 0.34424,0 0.68847,-0.0861 1.0327,-0.0861 0.0861,0 0.17213,0 0.17213,0 0.0861,0 0.17211,0 0.25817,0 1.54905,0 2.92599,0.4303 3.95868,1.29088 1.11876,0.77453 1.63511,2.15146 1.63511,3.87263 0,0.25817 0,0.6024 0,0.94664 0,0.25817 -0.0861,0.6024 -0.17211,0.94664 v 0 c -0.51636,2.32358 -1.463,4.04474 -3.01204,5.24955 -1.20483,0.86059 -2.4957,1.463 -3.87264,1.72117 z m 22.03094,-9.55247 -1.89327,9.2943 h -3.61447 l 1.80724,-8.17555 c 0,-0.0861 0,-0.25817 0.0861,-0.34423 0,-0.17212 0,-0.34424 0,-0.51635 0,0 0,0 0,-0.0861 v -0.0861 c 0,-0.43029 -0.0861,-0.77451 -0.34424,-1.11876 -0.25817,-0.34422 -0.77453,-0.43028 -1.54906,-0.43028 -0.77452,0 -1.46297,0.25817 -2.15144,0.77453 -0.60241,0.51634 -1.0327,1.29086 -1.29088,2.32357 l -1.63512,7.65919 h -3.52838 l 2.83991,-13.4251 h 3.44235 l -0.43029,1.97934 h 0.0861 c 0.0861,-0.17212 0.17212,-0.25817 0.34424,-0.43029 0.0861,-0.17212 0.25818,-0.34424 0.43029,-0.51635 0.4303,-0.34424 0.94663,-0.68847 1.46299,-0.94665 0.60241,-0.25818 1.37694,-0.43029 2.23752,-0.43029 1.20482,0 2.0654,0.25818 2.83992,0.86058 0.68847,0.51636 1.0327,1.37694 1.0327,2.4957 0,0.17212 0,0.34424 -0.0861,0.51635 0,0.25817 0,0.43029 -0.0861,0.6024 z m -22.03094,-4.38898 v 2.92599 c -0.68846,0.17211 -1.2048,0.43029 -1.6351,0.86058 -0.60241,0.60241 -1.0327,1.29088 -1.29087,1.97934 -0.0861,0.25818 -0.0861,0.43029 -0.17213,0.60241 -0.0861,0.25817 -0.0861,0.4303 -0.17211,0.60241 0,0.25817 -0.0861,0.51636 -0.0861,0.77453 -0.0861,0.25817 -0.0861,0.51634 -0.0861,0.77452 0,0.60242 0.17212,1.20481 0.51636,1.80722 0.43028,0.51636 1.0327,0.77453 2.06539,0.77453 0.25818,0 0.60241,0 0.86058,-0.0861 v 2.92598 c -0.34423,0 -0.68846,0.0861 -1.03269,0.0861 -0.0861,0 -0.17211,0 -0.25817,0 -0.0861,0 -0.17213,0 -0.25818,0 -1.54906,0 -2.83993,-0.4303 -3.9587,-1.20482 -1.03269,-0.86059 -1.6351,-2.15147 -1.6351,-3.87263 0,-0.34423 0.0861,-0.6024 0.0861,-0.94664 0,-0.34423 0.0861,-0.68847 0.17212,-1.0327 0.51635,-2.32358 1.46298,-4.04474 3.01203,-5.1635 1.20483,-0.94665 2.4957,-1.54905 3.87263,-1.80724 z m -36.66086,13.33905 v -2.06541 c 0.4303,-0.17211 0.86059,-0.34423 1.29089,-0.68847 0.6024,-0.43028 0.94664,-0.94664 1.11875,-1.72116 v 0 l 0.34423,-1.72117 c -0.17211,0.17212 -0.51634,0.25818 -0.86058,0.4303 -0.34423,0.0861 -0.94664,0.17212 -1.72117,0.34423 0,0 -0.0861,0 -0.17212,0 v -2.32358 l 1.89329,-0.25817 c 0.0861,0 0.17212,0 0.17212,0 0.0861,0 0.17212,0 0.17212,-0.0861 0.25817,0 0.51634,-0.0861 0.68847,-0.25818 0.25817,-0.17212 0.34423,-0.34423 0.43028,-0.68846 0,-0.0861 0,-0.17212 0.0861,-0.17212 0,-0.0861 0,-0.17211 0,-0.25817 0,-0.43029 -0.17211,-0.68847 -0.43028,-0.86058 -0.34425,-0.0861 -0.60242,-0.25818 -0.94665,-0.25818 -0.17212,0 -0.25818,0 -0.34424,0 -0.17211,0 -0.25817,0 -0.34423,0 -0.60241,0 -1.03271,0.0861 -1.37694,0.25818 v -2.83993 c 0.51636,-0.17213 0.94665,-0.17213 1.463,-0.25818 0.0861,0 0.25817,0 0.43029,0 0.17212,0 0.34424,0 0.51635,0 0.25817,0 0.51636,0 0.77453,0 0.34423,0.0861 0.60241,0.0861 0.94664,0.17211 0.68846,0.0861 1.37693,0.4303 1.97934,0.86059 0.60241,0.43029 0.94665,1.11876 0.94665,1.97935 0,0.17211 0,0.25817 -0.0861,0.43029 0,0.17212 0,0.25818 0,0.43029 v 0 l -1.54906,7.31496 c -0.0861,0.25817 -0.0861,0.43029 -0.17212,0.68847 0,0.17211 0,0.34423 0,0.43028 0,0.34424 0,0.60242 0.17212,0.68847 0.0861,0.17212 0.17212,0.25819 0.25818,0.25819 l -0.0861,0.51634 h -3.78657 c 0,-0.0861 -0.0861,-0.17211 -0.0861,-0.34423 0,-0.0861 0,-0.17211 0,-0.25818 v -0.0861 0 c 0,-0.17211 0,-0.25817 0,-0.43029 0,-0.0861 0.0861,-0.25818 0.0861,-0.43029 -0.0861,0.0861 -0.25817,0.17211 -0.34423,0.25818 -0.0861,0.0861 -0.17212,0.17211 -0.34424,0.25817 -0.25817,0.25817 -0.68846,0.51636 -1.11876,0.68847 z m 17.03956,-4.56109 h 3.61444 c -0.0861,0.25817 -0.25817,0.68847 -0.43028,1.11875 -0.25817,0.43029 -0.51635,0.86059 -0.86058,1.29088 -0.51635,0.68847 -1.29088,1.37693 -2.32358,1.97935 -0.94664,0.6024 -2.15146,0.86058 -3.70051,0.86058 -1.97934,0 -3.27022,-0.4303 -3.95867,-1.463 -0.68847,-0.94664 -1.03271,-2.0654 -1.03271,-3.27021 0,-0.34424 0,-0.68847 0.0861,-0.94664 0,-0.34424 0.0861,-0.68847 0.0861,-0.94665 0.51636,-2.23752 1.37693,-3.95868 2.66781,-5.42167 1.37693,-1.37694 3.09811,-2.06541 5.42167,-2.06541 0.25819,0 0.51636,0 0.77453,0 0.25818,0.0861 0.51636,0.0861 0.77453,0.17211 0.86058,0.17213 1.63511,0.60242 2.32357,1.20483 0.68847,0.60241 1.0327,1.54905 1.0327,2.92598 0,0.0861 0,0.25817 0,0.43029 0,0.0861 0,0.25817 -0.0861,0.4303 h -3.52838 c 0,-0.0861 0,-0.0861 0,-0.0861 0,0 0,0 0,-0.0861 0,-0.0861 0,-0.17211 0,-0.25817 -0.0861,-0.0861 -0.0861,-0.25817 -0.0861,-0.34423 -0.0861,-0.34423 -0.25817,-0.68846 -0.4303,-0.94664 -0.25817,-0.34423 -0.68846,-0.51635 -1.29087,-0.43029 v 0 c -0.0861,0 -0.0861,0 -0.0861,0 -0.94664,0 -1.6351,0.25817 -2.15146,0.86058 -0.60241,0.60241 -0.94664,1.20481 -1.20481,1.97933 -0.0861,0.17213 -0.17213,0.34424 -0.17213,0.51636 -0.0861,0.17211 -0.0861,0.34423 -0.17211,0.51635 v 0.0861 c 0,0.0861 0,0.0861 0,0.17212 -0.0861,0.17211 -0.0861,0.4303 -0.17212,0.68847 0,0.17211 -0.0861,0.43028 -0.0861,0.68847 0,0.0861 0,0.17211 0,0.25817 0,0 0,0.0861 0,0.17211 0,0.60242 0.17211,1.11876 0.43028,1.63511 0.25819,0.43029 0.86059,0.68847 1.63511,0.68847 0.60242,0 1.0327,-0.17212 1.46299,-0.43029 0.34424,-0.25818 0.68847,-0.60241 0.94664,-0.86059 0.17213,-0.25818 0.25819,-0.43028 0.34424,-0.6024 0.0861,-0.17211 0.17212,-0.34424 0.17212,-0.51635 v 0 z m 11.53182,-8.51978 -2.83993,13.4251 h -3.52839 l 2.83993,-13.4251 z m 0.34424,-1.6351 h -3.5284 l 0.68846,-3.27023 h 3.5284 z m -28.91562,1.54904 v 2.83993 c -0.0861,0 -0.17211,0.0861 -0.17211,0.17211 -0.4303,0.25818 -0.60241,0.51636 -0.77453,0.86059 -0.0861,0.0861 -0.0861,0.17211 -0.1721,0.25817 0,0.17211 0,0.25817 -0.0861,0.34423 l -3.44235,-0.0861 c 0.60241,-1.80722 1.463,-3.01204 2.58175,-3.61445 0.68847,-0.34423 1.37693,-0.6024 2.0654,-0.77452 z m 0,5.42167 v 2.32358 c -0.60241,0.17212 -1.11874,0.34423 -1.6351,0.51636 -0.51635,0.25817 -0.86058,0.77452 -1.0327,1.46298 0,0.0861 0,0.17212 0,0.17212 0,0.0861 0,0.0861 0,0.17211 v 0.0861 c 0,0 0,0 0,0.0861 0,0.34424 0.0861,0.60241 0.25817,0.77453 0.25818,0.17211 0.4303,0.25817 0.68847,0.34424 0.0861,0 0.17212,0 0.17212,0 0.0861,0 0.17211,0 0.17211,0 0.17213,0 0.25819,0 0.34424,0 0.17211,0 0.25817,0 0.43028,-0.0861 0.17212,0 0.4303,-0.0861 0.60241,-0.17212 v 2.06541 c -0.17211,0.0861 -0.34423,0.17212 -0.51635,0.25818 -0.68845,0.34423 -1.46298,0.43029 -2.40963,0.43029 -0.94664,0 -1.72117,-0.17212 -2.40964,-0.68847 -0.25817,-0.17211 -0.43029,-0.34424 -0.6024,-0.60241 v -3.52838 c 0.34423,-0.86059 0.77453,-1.54906 1.463,-2.06541 0.86058,-0.68847 1.89328,-1.11876 3.09809,-1.29088 l 1.37693,-0.25818 z m -5.93802,-8.2616 v -1.80722 h 0.34423 z m 0,-1.80722 v 1.80722 l -3.5284,16.35109 h -3.78656 l -4.64715,-12.90876 h -0.0861 l -2.75388,12.90876 h -3.52838 l 3.87262,-18.15831 h 4.04475 l 4.47503,12.65057 h 0.0861 l 2.66781,-12.65057 z m 0,13.68328 c -0.0861,0.25818 -0.25818,0.6024 -0.25818,0.94664 -0.0861,0.17211 -0.0861,0.34423 -0.0861,0.51634 0,0.17213 -0.0861,0.34424 -0.0861,0.4303 0,0.68847 0.1721,1.20481 0.43029,1.63511 v -3.52839 z m -33.39064,4.7332 v -2.92598 c 0.68846,-0.17211 1.20481,-0.4303 1.63511,-0.86058 0.51634,-0.60242 0.94664,-1.29088 1.29087,-1.97935 0.0861,-0.17211 0.0861,-0.43028 0.17211,-0.6024 0.0861,-0.17212 0.0861,-0.4303 0.17213,-0.60241 v 0 c 0,-0.17211 0,-0.25817 0.0861,-0.4303 0,-0.17211 0,-0.34423 0,-0.51634 0,-0.0861 0.0861,-0.17212 0.0861,-0.25818 0,-0.0861 0,-0.17212 0,-0.25818 0,-0.68847 -0.25817,-1.29087 -0.60241,-1.80721 -0.34423,-0.51636 -0.94664,-0.77453 -1.97933,-0.77453 -0.34424,0 -0.60241,0 -0.86058,0 v -2.92599 c 0.34423,0 0.68845,-0.0861 1.0327,-0.0861 0.0861,0 0.1721,0 0.25816,0 0.0861,0 0.0861,0 0.17211,0 1.54906,0 2.926,0.4303 3.9587,1.29088 1.11875,0.77453 1.6351,2.15146 1.6351,3.87263 0,0.25817 0,0.6024 0,0.94664 0,0.25817 -0.0861,0.6024 -0.17212,0.94664 v 0 c -0.51634,2.32358 -1.46298,4.04474 -3.01204,5.24955 -1.20481,0.86059 -2.4957,1.463 -3.87261,1.72117 z m 0,-13.94145 v 2.92599 c -0.68847,0.17211 -1.20482,0.43029 -1.63511,0.86058 -0.60241,0.60241 -1.03271,1.29088 -1.29088,1.97934 -0.0861,0.25818 -0.0861,0.43029 -0.17211,0.60241 -0.0861,0.25817 -0.0861,0.4303 -0.17212,0.60241 0,0.25817 -0.0861,0.51636 -0.0861,0.77453 0,0.25817 -0.0861,0.51634 -0.0861,0.77452 0,0.60242 0.17213,1.20481 0.60242,1.80722 0.34424,0.51636 0.94664,0.77453 1.97935,0.77453 0.25817,0 0.6024,0 0.86058,-0.0861 v 2.92598 c -0.34424,0 -0.68847,0.0861 -1.03271,0.0861 -0.0861,0 -0.17211,0 -0.25817,0 -0.0861,0 -0.17211,0 -0.25817,0 -1.54905,0 -2.83993,-0.4303 -3.95868,-1.20482 -1.0327,-0.86059 -1.63512,-2.15147 -1.63512,-3.87263 0,-0.34423 0.0861,-0.6024 0.0861,-0.94664 0.0861,-0.34423 0.0861,-0.68847 0.17212,-1.0327 0.51635,-2.32358 1.46299,-4.04474 3.01204,-5.1635 1.20481,-0.94665 2.49569,-1.54905 3.87263,-1.80724 z m -22.80547,13.68328 v -1.11876 l 3.70051,-17.03955 h 3.52839 l -1.37693,6.45438 v 0 c 0.34423,-0.51636 0.94665,-1.03271 1.72117,-1.463 0.77452,-0.4303 1.72116,-0.60241 2.66781,-0.60241 1.11876,0 2.0654,0.25818 2.75387,0.86058 0.68845,0.51636 1.11875,1.37694 1.11875,2.4957 0,0.17212 -0.0861,0.34424 -0.0861,0.51635 0,0.25818 -0.0861,0.43029 -0.0861,0.60241 v 0 l -1.97934,9.2943 h -3.52839 l 1.72117,-8.17555 c 0.0861,-0.0861 0.0861,-0.25817 0.0861,-0.34423 0.0861,-0.17212 0.0861,-0.34424 0.0861,-0.51635 0,0 0,0 0,-0.0861 v -0.0861 c 0,-0.43029 -0.17211,-0.77451 -0.43028,-1.11876 -0.17212,-0.34422 -0.68847,-0.43028 -1.463,-0.43028 -0.77452,0 -1.46299,0.25817 -2.15146,0.77453 -0.6024,0.51634 -1.0327,1.29086 -1.29087,2.32357 l -1.63511,7.65919 h -3.35628 z m 0,-17.03956 0.25818,-1.11875 h -0.25818 z m 0,-1.11875 v 1.11875 l -3.61444,17.03956 h -3.5284 l 3.87263,-18.15831 z m 0,17.03955 -0.17211,1.11876 h 0.17211 z m -14.285684,1.37693 v -2.83992 c 0.344233,-0.0861 0.602408,-0.17212 0.860583,-0.34423 0.344235,-0.25818 0.688468,-0.60241 0.860584,-0.94665 v -0.0861 h 3.614451 c -0.51635,1.11877 -1.204817,1.97935 -1.979342,2.66782 -0.774525,0.6024 -1.635109,1.0327 -2.495693,1.29087 -0.258175,0.0861 -0.51635,0.17212 -0.860583,0.25817 z m 0,-6.02408 v -2.32358 h 2.753868 c 0,-0.0861 0,-0.17211 0,-0.25817 0,-0.0861 0,-0.17212 0,-0.25817 0,-0.77453 -0.172117,-1.37693 -0.602409,-1.72117 -0.344233,-0.34423 -0.860583,-0.51635 -1.290876,-0.51635 -0.08606,0 -0.08606,0 -0.08606,0 -0.08606,0 -0.08606,0 -0.172116,0 -0.172117,0 -0.344233,0 -0.602409,0 v -2.83993 c 0.430292,-0.0861 0.860583,-0.0861 1.290876,-0.0861 0.172116,0 0.344233,0 0.602407,0 0.172117,0 0.344234,0 0.51635,0.0861 0.946643,0.0861 1.893285,0.51635 2.667809,1.29088 0.860585,0.68847 1.290876,1.89328 1.290876,3.52838 0,0.4303 -0.08606,0.77453 -0.08606,1.20483 -0.08606,0.34423 -0.08606,0.86058 -0.258174,1.29087 l -0.08606,0.60241 z m 0,-7.91737 v 2.83993 c -0.516351,0.0861 -1.0327,0.34423 -1.462992,0.68847 -0.51635,0.51635 -0.946642,1.20481 -1.290875,2.06539 h 2.753867 v 2.32358 H 88.46799 c 0,0.17212 0,0.25817 0,0.4303 0,0.17211 0,0.34423 0,0.51634 0,0.0861 0,0.17212 0,0.25819 0,0.0861 0,0.0861 0,0.17211 0.08606,0.51634 0.258176,0.94663 0.602409,1.37692 0.344233,0.34424 0.946642,0.60241 1.893284,0.60241 0.08606,0 0.172116,0 0.258174,-0.0861 0.08606,0 0.172118,0 0.258176,0 0.08606,0 0.258175,-0.0861 0.344233,-0.0861 v 2.83992 c -0.08606,0 -0.172117,0 -0.344233,0 -0.344234,0.0861 -0.774526,0.0861 -1.118759,0.0861 -1.54905,0 -2.925984,-0.34424 -3.872626,-1.03271 -1.032701,-0.77453 -1.549051,-1.97934 -1.549051,-3.78656 0,-0.43029 0,-0.77452 0.08606,-1.20482 0,-0.34423 0.08606,-0.86059 0.172117,-1.29087 0.08606,-0.34424 0.258174,-0.77453 0.430292,-1.37694 0.172116,-0.60242 0.430291,-1.20482 0.860583,-1.80722 0.51635,-0.86058 1.376933,-1.72117 2.409635,-2.4957 0.774524,-0.60241 1.807224,-0.94665 2.925983,-1.03271 z m -44.49217,13.94145 v -2.92598 c 0.602409,-0.17211 1.204817,-0.4303 1.54905,-0.86058 0.602409,-0.60242 1.0327,-1.29088 1.290875,-1.97935 0.08606,-0.17211 0.172117,-0.43028 0.258175,-0.6024 0.08606,-0.17212 0.08606,-0.4303 0.172118,-0.60241 v 0 c 0,-0.17211 0,-0.25817 0.08606,-0.4303 0,-0.17211 0,-0.34423 0,-0.51634 0,-0.0861 0,-0.17212 0,-0.25818 0,-0.0861 0,-0.17212 0,-0.25818 0,-0.68847 -0.172117,-1.29087 -0.516352,-1.80721 -0.344233,-0.51636 -1.0327,-0.77453 -1.979342,-0.77453 -0.344233,0 -0.602408,0 -0.860583,0 v -2.92599 c 0.344233,0 0.688467,-0.0861 1.0327,-0.0861 0.08606,0 0.172117,0 0.172117,0 0.08606,0 0.172116,0 0.258174,0 1.549051,0 2.925985,0.4303 3.958686,1.29088 1.118759,0.77453 1.635108,2.15146 1.635108,3.87263 0,0.25817 0,0.6024 0,0.94664 0,0.25817 -0.08606,0.6024 -0.172117,0.94664 v 0 c -0.516349,2.32358 -1.462991,4.04474 -3.012042,5.24955 -1.204817,0.86059 -2.495693,1.463 -3.872626,1.72117 z m 22.030938,-9.55247 -1.979341,9.2943 h -3.528392 l 1.807225,-8.17555 c 0,-0.0861 0,-0.25817 0.08606,-0.34423 0,-0.17212 0,-0.34424 0,-0.51635 0,0 0,0 0,-0.0861 v -0.0861 c 0,-0.43029 -0.08606,-0.77451 -0.344233,-1.11876 -0.258175,-0.34422 -0.774526,-0.43028 -1.54905,-0.43028 -0.774526,0 -1.462993,0.25817 -2.15146,0.77453 -0.602408,0.51634 -1.0327,1.29086 -1.290876,2.32357 l -1.635108,7.65919 h -3.528394 l 2.839926,-13.42504 h 3.442334 l -0.430292,1.97934 h 0.08606 c 0.08606,-0.17212 0.172116,-0.25817 0.344232,-0.43029 0.08606,-0.17212 0.258176,-0.34424 0.430292,-0.51635 0.430292,-0.34424 0.860584,-0.68847 1.462993,-0.94665 0.602408,-0.25818 1.376933,-0.43029 2.237517,-0.43029 1.204817,0 2.0654,0.25818 2.839926,0.86058 0.688466,0.51636 1.0327,1.37694 1.0327,2.4957 0,0.17212 0,0.34424 -0.08606,0.51635 0,0.25817 0,0.43029 -0.08606,0.6024 v 0 z m 14.457804,-0.0861 h -3.442333 c 0,0 0,0 0,-0.0861 v 0 c 0,-0.43029 -0.172117,-0.77452 -0.344234,-1.11876 -0.258174,-0.34423 -0.774525,-0.51634 -1.721167,-0.51634 -0.774525,0 -1.376933,0.0861 -1.721167,0.34423 -0.344234,0.17211 -0.51635,0.43028 -0.602408,0.68847 -0.08606,0 -0.08606,0.0861 -0.08606,0.17211 0,0 0,0.0861 -0.08606,0.0861 0,0.0861 0,0.0861 0,0.0861 v 0 0.0861 0 c 0,0.34423 0.258175,0.6024 0.688467,0.77451 0.430292,0.17212 0.946642,0.34424 1.54905,0.4303 0.258175,0.0861 0.516351,0.0861 0.774526,0.17212 0.258174,0 0.430291,0.0861 0.688466,0.17211 0.946642,0.17212 1.807226,0.51636 2.58175,0.94664 0.774527,0.4303 1.118759,1.11877 1.118759,2.15147 0,0.0861 0,0.17211 0,0.34423 0,0.17212 -0.08606,0.25818 -0.08606,0.4303 -0.258174,1.2048 -0.774525,2.15145 -1.54905,2.83991 -0.774525,0.60242 -1.635109,1.03271 -2.495693,1.37694 -0.516349,0.0861 -1.0327,0.25817 -1.54905,0.25817 -0.430291,0.0861 -0.946642,0.0861 -1.290876,0.0861 0,0 0,0 -0.08606,0 v 0 c -1.376934,0 -2.667809,-0.25818 -3.786568,-0.77452 -1.118758,-0.51636 -1.721168,-1.463 -1.721168,-2.926 0,-0.0861 0,-0.25817 0,-0.43029 0.08606,-0.17212 0.08606,-0.34424 0.08606,-0.51634 h 3.614451 c 0,0.0861 0,0.1721 0,0.25816 0,0.0861 0,0.17212 0,0.25818 0,0.43029 0.172117,0.77452 0.51635,1.11876 0.430291,0.25817 1.118759,0.34423 2.065401,0.34423 0.602408,0 1.118758,-0.0861 1.462992,-0.25817 0.430292,-0.17212 0.688466,-0.34423 0.774525,-0.60241 0.08606,-0.0861 0.172117,-0.17212 0.172117,-0.25818 0.08606,-0.0861 0.08606,-0.17211 0.08606,-0.25817 v 0 c 0,-0.0861 0.08606,-0.0861 0.08606,-0.0861 v -0.0861 c 0,-0.34422 -0.258175,-0.6024 -0.688466,-0.77452 -0.430292,-0.17212 -1.032702,-0.34423 -1.635109,-0.43029 -0.258175,-0.0861 -0.430293,-0.0861 -0.688467,-0.17211 -0.172117,0 -0.430292,-0.0861 -0.688467,-0.17213 -0.860584,-0.17211 -1.721167,-0.51634 -2.495692,-0.94664 -0.774526,-0.43029 -1.118759,-1.11876 -1.118759,-2.15146 0,-0.0861 0,-0.25818 0,-0.34424 0.08606,-0.17211 0.08606,-0.25817 0.08606,-0.43028 0,-0.17212 0.08606,-0.34423 0.172118,-0.51635 0.08606,-0.17211 0.08606,-0.43029 0.172116,-0.60241 0.430291,-0.86059 1.118758,-1.63511 2.0654,-2.32358 0.946643,-0.68846 2.237518,-1.0327 3.958685,-1.0327 0.172117,0 0.258174,0 0.430291,0 0.08606,0 0.258176,0 0.344233,0 1.118759,0.0861 2.15146,0.34424 3.012043,0.77453 0.946642,0.51635 1.376933,1.46299 1.376933,2.83993 0,0.0861 0,0.25817 0,0.34423 0,0.17212 0,0.34423 0,0.51635 z M 39.75896,172.15152 h -3.786567 c 0,-0.17211 0,-0.34423 -0.08606,-0.51635 0,-0.25818 0,-0.43029 -0.08606,-0.68846 -0.172117,-0.51636 -0.430292,-0.94665 -0.946642,-1.29088 -0.430291,-0.43028 -1.204816,-0.60241 -2.237517,-0.60241 -0.344234,0 -0.688466,0 -1.118758,0.17213 -0.430293,0.0861 -0.860584,0.25817 -1.290876,0.51633 -0.688467,0.34424 -1.290874,1.0327 -1.979342,1.89329 -0.602408,0.94665 -1.118758,2.15146 -1.462992,3.78657 -0.08606,0.34424 -0.172117,0.68846 -0.172117,1.11876 -0.08606,0.34423 -0.08606,0.68846 -0.08606,1.0327 0,1.11876 0.258175,2.0654 0.774526,2.83992 0.602407,0.77452 1.462992,1.20482 2.667808,1.20482 1.032701,0 1.979343,-0.34424 2.839925,-0.86058 0.774526,-0.6024 1.462992,-1.46299 1.893285,-2.58175 h 3.786568 c -0.774525,1.97935 -1.979343,3.61445 -3.528393,4.81926 -1.54905,1.29088 -3.528393,1.8933 -5.76591,1.8933 -1.979342,0 -3.614451,-0.60242 -4.819268,-1.72117 -1.204817,-1.03271 -1.807225,-2.75388 -1.807225,-4.90533 0,-0.4303 0,-0.94665 0.08606,-1.37694 0.08606,-0.51635 0.172118,-1.0327 0.258176,-1.54905 0.688467,-3.18416 1.979342,-5.5938 3.958684,-7.14284 1.979343,-1.63511 4.130802,-2.40964 6.454377,-2.40964 2.0654,0 3.61445,0.4303 4.647152,1.37694 0.946642,0.94664 1.54905,1.97934 1.807224,3.0981 0,0.17211 0,0.34423 0.08606,0.60241 0,0.17212 0,0.34423 0,0.51634 0,0.17212 0,0.25818 0,0.4303 0,0.0861 -0.08606,0.25817 -0.08606,0.34423 v 0 z m 7.573136,-1.463 v 2.926 c -0.688467,0.17211 -1.204817,0.43029 -1.635109,0.86058 -0.602408,0.60241 -1.0327,1.29088 -1.290876,1.97933 -0.08606,0.25819 -0.08606,0.4303 -0.172116,0.60242 -0.08606,0.25817 -0.08606,0.43029 -0.172117,0.60241 0,0.25817 -0.08606,0.51635 -0.08606,0.77453 -0.08606,0.25817 -0.08606,0.51634 -0.08606,0.77452 0,0.60242 0.172117,1.20481 0.51635,1.80722 0.344235,0.51636 1.032701,0.77453 2.065401,0.77453 0.258176,0 0.602408,0 0.860584,-0.0861 v 2.92598 c -0.344234,0 -0.688467,0.0861 -1.0327,0.0861 -0.08606,0 -0.172117,0 -0.258176,0 -0.08606,0 -0.172116,0 -0.258174,0 -1.549051,0 -2.839927,-0.4303 -3.958685,-1.20482 -1.0327,-0.86059 -1.635109,-2.15147 -1.635109,-3.87263 0,-0.34423 0,-0.6024 0.08606,-0.94664 0,-0.34423 0.08606,-0.68847 0.172117,-1.0327 0.51635,-2.32358 1.462992,-4.04474 3.012042,-5.1635 1.204817,-0.94665 2.495691,-1.54905 3.872626,-1.80724 z" /><path
     style="stroke-width:1.19525492"
     inkscape:connector-curvature="0"
     id="path10"
     d="m 492.8562,184.63002 v -2.92598 c 0.68847,-0.17211 1.20482,-0.4303 1.63511,-0.86058 0.60241,-0.60242 1.03271,-1.29088 1.29088,-1.97935 0.0861,-0.17211 0.17212,-0.43028 0.17212,-0.6024 0.0861,-0.17212 0.17211,-0.4303 0.17211,-0.60241 v 0 c 0,-0.17211 0.0861,-0.25817 0.0861,-0.4303 0,-0.17211 0,-0.34423 0,-0.51634 0.0861,-0.0861 0.0861,-0.17212 0.0861,-0.25818 0,-0.0861 0,-0.17212 0,-0.25818 0,-0.68847 -0.17213,-1.29087 -0.51636,-1.80721 -0.34422,-0.51636 -1.03269,-0.77453 -2.0654,-0.77453 -0.25818,0 -0.60241,0 -0.86059,0 v -2.92599 c 0.34424,0 0.68847,-0.0861 1.03271,-0.0861 0.0861,0 0.17212,0 0.25817,0 0.0861,0 0.17212,0 0.25818,0 1.54905,0 2.83992,0.4303 3.95868,1.29088 1.0327,0.77453 1.63511,2.15146 1.63511,3.87263 0,0.25817 -0.0861,0.6024 -0.0861,0.94664 0,0.25817 -0.0861,0.6024 -0.17211,0.94664 v 0 c -0.4303,2.32358 -1.463,4.04474 -3.01205,5.24955 -1.20481,0.86059 -2.49569,1.463 -3.87263,1.72117 z m 0,-13.94145 v 2.92599 c -0.68846,0.17211 -1.20481,0.43029 -1.63511,0.86058 -0.51634,0.60241 -0.94663,1.29088 -1.29086,1.97934 0,0.25818 -0.0861,0.43029 -0.17212,0.60241 0,0.25817 -0.0861,0.4303 -0.0861,0.60241 -0.0861,0.25817 -0.0861,0.51636 -0.17211,0.77453 0,0.25817 0,0.51634 0,0.77452 0,0.60242 0.17211,1.20481 0.51635,1.80722 0.34423,0.51636 1.0327,0.77453 1.97934,0.77453 0.34424,0 0.60241,0 0.86058,-0.0861 v 2.92598 c -0.34423,0 -0.68846,0.0861 -1.0327,0.0861 -0.0861,0 -0.17211,0 -0.25817,0 0,0 -0.0861,0 -0.17212,0 -1.54904,0 -2.92598,-0.4303 -3.95868,-1.20482 -0.86058,-0.68847 -1.37694,-1.54906 -1.54905,-2.75387 v -2.23752 c 0,-0.34423 0.0861,-0.60241 0.0861,-0.86058 0.51636,-2.32358 1.54906,-4.04474 3.01206,-5.1635 1.20481,-0.94665 2.49568,-1.54905 3.87261,-1.80724 z m -6.97072,0.68847 0.0861,-0.43029 h -0.0861 z m 0,-0.43029 v 0.43029 l -0.51635,2.0654 h -2.15145 l -1.54906,7.31496 c -0.0861,0.0861 -0.0861,0.25817 -0.0861,0.34423 0,0.0861 0,0.17211 0,0.25817 0,0.17213 0.0861,0.34424 0.25817,0.4303 0.17212,0.0861 0.51635,0.0861 1.0327,0.0861 0.0861,0 0.25818,0 0.34424,0 0.17212,0 0.25818,0 0.43029,-0.0861 l -0.60241,2.66781 c -0.25817,0.0861 -0.51635,0.0861 -0.77453,0.0861 -0.34423,0 -0.6024,0 -0.86058,0 h -0.51635 c -1.20481,0 -2.0654,-0.17212 -2.49568,-0.51635 -0.4303,-0.34424 -0.60242,-0.77452 -0.60242,-1.37694 0,-0.17211 0,-0.34423 0,-0.51635 0.0861,-0.17212 0.0861,-0.34423 0.0861,-0.51635 l 1.80723,-8.17553 h -1.89329 l 0.60242,-2.4957 h 1.80722 l 0.77452,-3.70051 h 3.5284 l -0.77453,3.70051 h 2.15146 z m 0,7.57313 c 0,0 -0.0861,0.0861 -0.0861,0.17212 0,0.34424 0,0.60241 0,0.94664 0,0.34424 0,0.77452 0.0861,1.11876 z m -31.49736,6.11014 v -2.83992 c 0.34423,-0.0861 0.60241,-0.17212 0.86058,-0.34423 0.34424,-0.25818 0.68847,-0.60241 0.86058,-0.94665 v -0.0861 h 3.61446 c -0.51635,1.11877 -1.20482,1.97935 -1.97934,2.66782 -0.77453,0.6024 -1.63512,1.0327 -2.4957,1.29087 -0.25817,0.0861 -0.51635,0.17212 -0.86058,0.25817 z m 0,-6.02408 v -2.32358 h 2.75386 c 0,-0.0861 0,-0.17211 0,-0.25817 0,-0.0861 0,-0.17212 0,-0.25817 0,-0.77453 -0.17211,-1.37693 -0.6024,-1.72117 -0.34424,-0.34423 -0.86058,-0.51635 -1.29088,-0.51635 -0.0861,0 -0.0861,0 -0.0861,0 -0.0861,0 -0.0861,0 -0.17211,0 -0.17212,0 -0.34424,0 -0.60241,0 v -2.83993 c 0.43029,-0.0861 0.86058,-0.0861 1.29088,-0.0861 0.17211,0 0.34423,0 0.6024,0 0.17212,0 0.34424,0 0.51635,0.0861 0.94665,0.0861 1.89329,0.51635 2.66781,1.29088 0.86058,0.68847 1.29088,1.89328 1.29088,3.52838 0,0.4303 -0.0861,0.77453 -0.0861,1.20483 -0.0861,0.34423 -0.0861,0.86058 -0.25818,1.29087 l -0.0861,0.60241 h -5.93803 z m 21.17035,-3.52839 -1.97933,9.2943 h -3.52841 l 1.72117,-8.17555 c 0.0861,-0.0861 0.0861,-0.25817 0.17213,-0.34423 0,-0.17212 0,-0.34424 0,-0.51635 0,0 0,0 0,-0.0861 v -0.0861 c 0,-0.43029 -0.0861,-0.77451 -0.34424,-1.11876 -0.25817,-0.34422 -0.77453,-0.43028 -1.54906,-0.43028 -0.77451,0 -1.46297,0.25817 -2.15144,0.77453 -0.60242,0.51634 -1.03271,1.29086 -1.29088,2.32357 l -1.63512,7.65919 h -3.52838 l 2.83992,-13.4251 h 3.44233 l -0.43029,1.97934 v 0 c 0.17212,-0.17212 0.25818,-0.25817 0.43029,-0.43029 0.0861,-0.17212 0.25818,-0.34424 0.4303,-0.51635 0.4303,-0.34424 0.86058,-0.68847 1.463,-0.94665 0.6024,-0.25818 1.37693,-0.43029 2.23751,-0.43029 1.11876,0 2.0654,0.25818 2.75387,0.86058 0.77452,0.51636 1.11875,1.37694 1.11875,2.4957 0,0.17212 0,0.34424 -0.0861,0.51635 0,0.25817 0,0.43029 -0.0861,0.6024 z m -21.17035,-4.38898 v 2.83993 c -0.51635,0.0861 -1.03269,0.34423 -1.46299,0.68847 -0.51635,0.51635 -0.94664,1.20481 -1.29087,2.06539 h 2.75386 v 2.32358 h -3.35627 c 0,0.17212 0,0.25817 0,0.4303 0,0.17211 0,0.34423 0,0.51634 0,0.0861 0,0.17212 0,0.25819 0,0.0861 0,0.0861 0,0.17211 0.0861,0.51634 0.25817,0.94663 0.60241,1.37692 0.34423,0.34424 0.94664,0.60241 1.89328,0.60241 0.0861,0 0.17212,0 0.25817,-0.0861 0.0861,0 0.17212,0 0.25818,0 0.0861,0 0.25817,-0.0861 0.34423,-0.0861 v 2.83992 c -0.0861,0 -0.17212,0 -0.34423,0 -0.34423,0.0861 -0.77452,0.0861 -1.11876,0.0861 -1.54906,0 -2.92598,-0.34424 -3.87263,-1.03271 -1.0327,-0.77453 -1.54904,-1.97934 -1.54904,-3.78656 0,-0.43029 0,-0.77452 0.0861,-1.20482 0,-0.34423 0.0861,-0.86059 0.17211,-1.29087 0.0861,-0.34424 0.25817,-0.77453 0.43029,-1.37694 0.17212,-0.60242 0.43029,-1.20482 0.86058,-1.80722 0.51635,-0.86058 1.37693,-1.72117 2.40963,-2.4957 0.77453,-0.60241 1.80724,-0.94665 2.92599,-1.03271 z m -36.05845,13.68328 v -1.80722 l 2.40964,-11.61788 h 3.61444 l -2.92597,13.4251 z m 0,-12.73664 0.34423,-0.68846 h -0.34423 z m 6.28225,-2.32356 h -3.52838 l 0.68847,-3.27023 h 3.61444 z m 21.5146,5.7659 -1.97935,9.2943 h -3.61445 l 1.80723,-8.17555 c 0,-0.17211 0,-0.34423 0.0861,-0.51635 0,-0.17212 0,-0.34423 0,-0.43029 0,-0.6024 -0.17212,-1.03269 -0.43029,-1.29087 -0.25817,-0.25817 -0.60241,-0.34423 -1.0327,-0.34423 -0.86059,0 -1.54905,0.25817 -2.06541,0.77453 -0.43029,0.51634 -0.77452,1.11874 -0.94663,1.97933 l -1.72117,8.00343 h -3.5284 l 1.72118,-8.08949 c 0,-0.0861 0.0861,-0.25817 0.0861,-0.43029 0,-0.0861 0.0861,-0.25818 0.0861,-0.43029 0,0 0,-0.0861 0,-0.17212 0,-0.0861 0,-0.17211 0,-0.25817 0,-0.34423 -0.0861,-0.68846 -0.34424,-0.94664 -0.25817,-0.34423 -0.68847,-0.43029 -1.37693,-0.43029 -0.86057,0 -1.46298,0.17211 -1.89328,0.68847 -0.43029,0.51634 -0.68847,1.2048 -0.86059,1.89327 l -1.72116,8.17555 h -3.61445 l 2.92598,-13.4251 h 3.35628 l -0.43029,1.97934 h 0.0861 c 0.0861,-0.17212 0.17211,-0.25817 0.34423,-0.43029 0.0861,-0.0861 0.17212,-0.25818 0.34424,-0.43029 0.34423,-0.34423 0.86058,-0.68847 1.46298,-1.0327 0.60241,-0.25819 1.29088,-0.4303 2.15146,-0.4303 0.94664,0 1.72117,0.17211 2.15147,0.51635 0.43028,0.34423 0.86057,0.86059 1.11874,1.63511 0.0861,-0.17211 0.25819,-0.25817 0.4303,-0.43029 0.17212,-0.17212 0.34423,-0.34423 0.51635,-0.51635 0.34424,-0.25818 0.77452,-0.60241 1.29088,-0.86058 0.51635,-0.25818 1.11875,-0.34424 1.80722,-0.34424 1.20482,0 2.0654,0.25818 2.83993,0.86058 0.68847,0.51636 1.0327,1.37694 1.0327,2.4957 0,0.17212 0,0.34424 0,0.51635 -0.0861,0.25818 -0.0861,0.43029 -0.0861,0.60241 z m -27.79685,-4.1308 v 0.68846 l -7.31495,12.73664 h -3.78658 l -1.97933,-13.4251 h 3.95867 l 0.68847,9.89671 h 0.0861 l 4.90532,-9.89671 h 3.44234 z m 0,11.61788 -0.4303,1.80722 h 0.4303 z m -29.60408,2.06539 v -2.92598 c 0.68847,-0.17211 1.20483,-0.4303 1.63511,-0.86058 0.60241,-0.60242 1.03271,-1.29088 1.29088,-1.97935 0.0861,-0.17211 0.17211,-0.43028 0.25817,-0.6024 0,-0.17212 0.0861,-0.4303 0.0861,-0.60241 v 0 c 0.0861,-0.17211 0.0861,-0.25817 0.0861,-0.4303 0.0861,-0.17211 0.0861,-0.34423 0.0861,-0.51634 0,-0.0861 0,-0.17212 0,-0.25818 0,-0.0861 0,-0.17212 0,-0.25818 0,-0.68847 -0.17212,-1.29087 -0.51635,-1.80721 -0.34424,-0.51636 -1.0327,-0.77453 -1.97934,-0.77453 -0.34423,0 -0.6024,0 -0.94664,0 v -2.92599 c 0.34424,0 0.68847,-0.0861 1.03271,-0.0861 0.0861,0 0.17211,0 0.25817,0 0.0861,0 0.17211,0 0.25816,0 1.54905,0 2.83994,0.4303 3.95869,1.29088 1.11876,0.77453 1.6351,2.15146 1.6351,3.87263 0,0.25817 0,0.6024 -0.0861,0.94664 0,0.25817 0,0.6024 -0.0861,0.94664 v 0 c -0.51635,2.32358 -1.54905,4.04474 -3.0981,5.24955 -1.20481,0.86059 -2.49569,1.463 -3.87263,1.72117 z m 11.61789,-0.25817 h -3.5284 l 3.87263,-18.15831 h 3.52839 z m -11.61789,-13.68328 v 2.92599 c -0.6024,0.17211 -1.11875,0.43029 -1.54905,0.86058 -0.6024,0.60241 -1.0327,1.29088 -1.29087,1.97934 -0.0861,0.25818 -0.17212,0.43029 -0.25818,0.60241 0,0.25817 -0.0861,0.4303 -0.0861,0.60241 -0.0861,0.25817 -0.0861,0.51636 -0.17212,0.77453 0,0.25817 0,0.51634 0,0.77452 0,0.60242 0.17212,1.20481 0.51636,1.80722 0.34423,0.51636 1.0327,0.77453 1.97934,0.77453 0.34424,0 0.60241,0 0.86058,-0.0861 v 2.92598 c -0.34423,0 -0.68847,0.0861 -1.0327,0.0861 -0.0861,0 -0.0861,0 -0.17211,0 -0.0861,0 -0.17212,0 -0.25818,0 -1.54905,0 -2.92598,-0.4303 -3.95868,-1.20482 -0.43029,-0.34423 -0.77452,-0.77453 -1.03271,-1.20482 v -6.02409 c 0.51636,-1.6351 1.463,-2.92597 2.66782,-3.78656 1.20481,-0.94665 2.49569,-1.54905 3.78656,-1.80724 z m -6.45438,1.29088 0.60242,-1.0327 h -0.60242 z m 0,-1.0327 v 1.0327 l -7.14283,12.3924 h -3.70051 l -1.97935,-13.4251 h 3.95869 l 0.68847,9.89671 v 0 l 4.99138,-9.89671 z m 0,5.33561 c -0.17211,0.4303 -0.25817,0.86059 -0.34422,1.37694 -0.0861,0.34423 -0.17212,0.68847 -0.17212,1.0327 -0.0861,0.34424 -0.0861,0.60241 -0.0861,0.94664 0,1.0327 0.17212,1.89329 0.6024,2.66781 v -6.02409 z m -35.80027,8.34766 v -2.83992 c 0.25818,-0.0861 0.51636,-0.17212 0.77453,-0.34423 0.4303,-0.25818 0.68846,-0.60241 0.86057,-0.94665 v -0.0861 h 3.70052 c -0.60241,1.11877 -1.29088,1.97935 -2.0654,2.66782 -0.77453,0.6024 -1.63512,1.0327 -2.49569,1.29087 -0.25817,0.0861 -0.51635,0.17212 -0.77453,0.25817 z m 0,-6.02408 v -2.32358 h 2.66781 c 0.0861,-0.0861 0.0861,-0.17211 0.0861,-0.25817 0,-0.0861 0,-0.17212 0,-0.25817 0,-0.77453 -0.25818,-1.37693 -0.60241,-1.72117 -0.4303,-0.34423 -0.86059,-0.51635 -1.37693,-0.51635 h -0.0861 c -0.0861,0 -0.0861,0 -0.0861,0 -0.25817,0 -0.43028,0 -0.60241,0 v -2.83993 c 0.34424,-0.0861 0.77453,-0.0861 1.20483,-0.0861 0.25816,0 0.43027,0 0.6024,0 0.17211,0 0.34423,0 0.51634,0.0861 1.0327,0.0861 1.89329,0.51635 2.75388,1.29088 0.77452,0.68847 1.20482,1.89328 1.20482,3.52838 0,0.4303 0,0.77453 -0.0861,1.20483 0,0.34423 -0.0861,0.86058 -0.17212,1.29087 l -0.17212,0.60241 h -5.85197 z m 21.17036,-3.52839 -1.97934,9.2943 h -3.61446 l 1.80723,-8.17555 c 0,-0.0861 0,-0.25817 0.0861,-0.34423 0,-0.17212 0,-0.34424 0,-0.51635 0,0 0,0 0,-0.0861 v -0.0861 c 0,-0.43029 -0.0861,-0.77451 -0.34423,-1.11876 -0.25818,-0.34422 -0.77453,-0.43028 -1.54906,-0.43028 -0.77451,0 -1.46298,0.25817 -2.0654,0.77453 -0.68847,0.51634 -1.11875,1.29086 -1.37694,2.32357 l -1.6351,7.65919 h -3.52839 l 2.83992,-13.4251 h 3.44234 l -0.4303,1.97934 h 0.0861 c 0.0861,-0.17212 0.17212,-0.25817 0.34424,-0.43029 0.0861,-0.17212 0.25817,-0.34424 0.43029,-0.51635 0.4303,-0.34424 0.94664,-0.68847 1.54905,-0.94665 0.60242,-0.25818 1.29089,-0.43029 2.15146,-0.43029 1.20481,0 2.0654,0.25818 2.83993,0.86058 0.68847,0.51636 1.0327,1.37694 1.0327,2.4957 0,0.17212 0,0.34424 0,0.51635 -0.0861,0.25817 -0.0861,0.43029 -0.0861,0.6024 z m -21.17036,-4.38898 v 2.83993 c -0.6024,0.0861 -1.11876,0.34423 -1.54905,0.68847 -0.51635,0.51635 -0.94664,1.20481 -1.20482,2.06539 h 2.75387 v 2.32358 h -3.35628 c -0.0861,0.17212 -0.0861,0.25817 -0.0861,0.4303 0,0.17211 0,0.34423 0,0.51634 0,0.0861 0,0.17212 0,0.25819 0,0.0861 0,0.0861 0,0.17211 0.0861,0.51634 0.25817,0.94663 0.60242,1.37692 0.34422,0.34424 1.03269,0.60241 1.89328,0.60241 0.0861,0 0.17211,0 0.25817,-0.0861 0.0861,0 0.17213,0 0.25818,0 0.17212,0 0.25818,-0.0861 0.43029,-0.0861 v 2.83992 c -0.17211,0 -0.25817,0 -0.34423,0 -0.4303,0.0861 -0.77453,0.0861 -1.20482,0.0861 -1.54906,0 -2.83992,-0.34424 -3.87262,-1.03271 -1.03271,-0.77453 -1.54905,-1.97934 -1.54905,-3.78656 0,-0.43029 0,-0.77452 0.0861,-1.20482 0.0861,-0.34423 0.0861,-0.86059 0.25817,-1.29087 0,-0.34424 0.17211,-0.77453 0.34424,-1.37694 0.17211,-0.60242 0.51634,-1.20482 0.86058,-1.80722 0.6024,-0.86058 1.37692,-1.72117 2.40963,-2.4957 0.86059,-0.60241 1.80723,-0.94665 3.01204,-1.03271 z m -28.14108,13.94145 v -2.83992 c 0.25817,-0.0861 0.51635,-0.17212 0.77453,-0.34423 0.34423,-0.25818 0.68846,-0.60241 0.86058,-0.94665 v -0.0861 h 3.7005 c -0.60241,1.11877 -1.29087,1.97935 -2.06539,2.66782 -0.77452,0.6024 -1.63511,1.0327 -2.49569,1.29087 -0.25818,0.0861 -0.51636,0.17212 -0.77453,0.25817 z m 0,-6.02408 v -2.32358 h 2.66781 c 0,-0.0861 0.0861,-0.17211 0.0861,-0.25817 0,-0.0861 0,-0.17212 0,-0.25817 0,-0.77453 -0.25817,-1.37693 -0.60241,-1.72117 -0.43029,-0.34423 -0.86059,-0.51635 -1.37693,-0.51635 h -0.0861 c -0.0861,0 -0.0861,0 -0.0861,0 -0.25817,0 -0.43028,0 -0.6024,0 v -2.83993 c 0.34423,-0.0861 0.77453,-0.0861 1.20482,-0.0861 0.17211,0 0.43029,0 0.60241,0 0.17211,0 0.34423,0 0.51635,0.0861 1.03269,0.0861 1.89328,0.51635 2.66781,1.29088 0.86058,0.68847 1.29087,1.89328 1.29087,3.52838 0,0.4303 0,0.77453 -0.0861,1.20483 0,0.34423 -0.0861,0.86058 -0.17212,1.29087 l -0.17211,0.60241 h -5.85197 z m 20.05159,-3.61445 h -3.44233 c 0,0 0,0 0,-0.0861 v 0 c 0,-0.43029 -0.0861,-0.77452 -0.34423,-1.11876 -0.25818,-0.34423 -0.77452,-0.51634 -1.63511,-0.51634 -0.86058,0 -1.37693,0.0861 -1.72116,0.34423 -0.34424,0.17211 -0.60241,0.43029 -0.68847,0.68847 0,0 -0.0861,0.0861 -0.0861,0.17211 v 0.0861 c 0,0.0861 0,0.0861 0,0.0861 v 0 l -0.0861,0.0861 v 0 c 0.0861,0.34423 0.25818,0.6024 0.68847,0.77451 0.43029,0.17212 1.0327,0.34424 1.6351,0.4303 0.17212,0.0861 0.43029,0.0861 0.68847,0.17212 0.25818,0 0.51635,0.0861 0.68847,0.17211 0.94664,0.17212 1.80722,0.51636 2.58175,0.94664 0.77452,0.4303 1.11876,1.11877 1.11876,2.15147 0,0.0861 0,0.17212 0,0.34423 0,0.17213 0,0.25818 -0.0861,0.4303 -0.25817,1.2048 -0.77451,2.15145 -1.54903,2.83991 -0.77453,0.60242 -1.54906,1.03271 -2.4957,1.37694 -0.51636,0.0861 -1.03271,0.25818 -1.463,0.25818 -0.51634,0.0861 -0.94663,0.0861 -1.37693,0.0861 v 0 h -0.0861 c -1.37694,0 -2.66782,-0.25818 -3.78658,-0.77452 -1.11875,-0.51636 -1.72116,-1.463 -1.72116,-2.926 0,-0.0861 0,-0.25817 0.0861,-0.43028 0,-0.17213 0,-0.34424 0,-0.51635 h 3.70051 c -0.0861,0.0861 -0.0861,0.17211 -0.0861,0.25816 0,0.0861 0,0.17212 0,0.25819 0,0.43028 0.17211,0.77451 0.6024,1.11875 0.34424,0.25817 1.03271,0.34423 1.97935,0.34423 0.68846,0 1.11875,-0.0861 1.54905,-0.25817 0.34423,-0.17212 0.60241,-0.34423 0.77452,-0.60241 0,-0.0861 0.0861,-0.17212 0.0861,-0.25818 0.0861,-0.0861 0.0861,-0.17211 0.0861,-0.25817 h 0.0861 c 0,-0.0861 0,-0.0861 0,-0.0861 v -0.0861 c 0,-0.34422 -0.25817,-0.6024 -0.68847,-0.77452 -0.43029,-0.17212 -1.0327,-0.34423 -1.6351,-0.43029 -0.25818,-0.0861 -0.43029,-0.0861 -0.68847,-0.17211 -0.17212,0 -0.43029,-0.0861 -0.68847,-0.17213 -0.86059,-0.17211 -1.72117,-0.51634 -2.4957,-0.94664 -0.77453,-0.43029 -1.11876,-1.11876 -1.11876,-2.15146 0,-0.0861 0,-0.25818 0,-0.34424 0.0861,-0.17211 0.0861,-0.25817 0.0861,-0.43028 0.0861,-0.17212 0.0861,-0.34423 0.17212,-0.51635 0.0861,-0.17211 0.17212,-0.43028 0.25818,-0.60241 0.34423,-0.86058 1.0327,-1.63511 1.97934,-2.32358 0.94664,-0.68846 2.32358,-1.0327 4.04474,-1.0327 0.0861,0 0.17212,0 0.34424,0 0.0861,0 0.25817,0 0.34423,0 1.11876,0.0861 2.15147,0.34424 3.09811,0.77453 0.86057,0.51635 1.37692,1.46299 1.37692,2.83993 0,0.0861 0,0.25817 0,0.34423 0,0.17212 -0.0861,0.34423 -0.0861,0.51635 v -0.0861 z m -20.05159,-4.30292 v 2.83993 c -0.60241,0.0861 -1.11876,0.34423 -1.54905,0.68847 -0.51636,0.51635 -0.94663,1.20481 -1.29087,2.06539 h 2.83992 v 2.32358 h -3.44234 c 0,0.17212 0,0.25817 0,0.4303 0,0.17211 0,0.34423 0,0.51634 0,0.0861 0,0.17212 0,0.25819 0,0.0861 0,0.0861 0,0.17211 0.0861,0.51634 0.25819,0.94663 0.60242,1.37692 0.34424,0.34424 0.94663,0.60241 1.89328,0.60241 0.0861,0 0.17212,0 0.25817,-0.0861 0.0861,0 0.17212,0 0.25818,0 0.17211,0 0.25817,-0.0861 0.43029,-0.0861 v 2.83992 c -0.17212,0 -0.25818,0 -0.34424,0 -0.43028,0.0861 -0.86058,0.0861 -1.20481,0.0861 -1.54905,0 -2.83993,-0.34424 -3.87263,-1.03271 -1.0327,-0.77453 -1.54905,-1.97934 -1.54905,-3.78656 0,-0.43029 0,-0.77452 0.0861,-1.20482 0,-0.34423 0.0861,-0.86059 0.17211,-1.29087 0.0861,-0.34424 0.25818,-0.77453 0.4303,-1.37694 0.17211,-0.60242 0.51635,-1.20482 0.86058,-1.80722 0.60242,-0.86058 1.37694,-1.72117 2.40964,-2.4957 0.77452,-0.60241 1.80722,-0.94665 3.01204,-1.03271 z m -16.00685,13.59722 v -3.0981 c 1.03269,-0.25818 1.80722,-0.77453 2.49569,-1.72116 0.86058,-1.20482 1.46299,-2.4957 1.80722,-3.9587 0.0861,-0.0861 0.0861,-0.0861 0.0861,-0.17211 0,-0.0861 0,-0.0861 0,-0.17212 0.17212,-0.51634 0.17212,-0.94663 0.25818,-1.37693 0,-0.34423 0.0861,-0.68847 0.0861,-1.0327 0,-1.20482 -0.25819,-2.0654 -0.77453,-2.49569 -0.4303,-0.4303 -0.94664,-0.77452 -1.54904,-0.86058 -0.17212,0 -0.34423,0 -0.51636,0 -0.0861,-0.0861 -0.25817,-0.0861 -0.43029,-0.0861 h -1.46299 v -3.09811 h 2.83992 c 2.23752,0 3.78657,0.60241 4.5611,1.89328 0.86057,1.20483 1.20481,2.49569 1.20481,3.95988 0,0.0861 0,0.0861 0,0.0861 v 0 c 0,0.51635 0,0.94664 -0.0861,1.463 0,0.43028 -0.0861,0.86058 -0.17211,1.29086 -0.0861,0.43029 -0.25816,0.94665 -0.34422,1.37694 -0.17211,0.51635 -0.34424,1.0327 -0.60241,1.54905 -0.68847,1.63511 -1.72117,3.0981 -3.09811,4.47504 -1.11876,1.11756 -2.58174,1.80603 -4.30291,1.97814 z m -21.77277,-3.87263 h 3.70051 c -0.6024,1.11877 -1.29087,1.97935 -2.0654,2.66782 -0.77453,0.6024 -1.63511,1.0327 -2.4957,1.29087 -0.25817,0.0861 -0.51635,0.17212 -0.77452,0.25817 v -2.83992 c 0.25817,-0.0861 0.51635,-0.17212 0.77452,-0.34423 0.4303,-0.25818 0.68847,-0.60241 0.86059,-0.94665 v -0.0861 z m -1.63511,-9.72459 c 0.34424,-0.0861 0.77452,-0.0861 1.20482,-0.0861 0.25817,0 0.43029,0 0.6024,0 0.17213,0 0.34424,0 0.51636,0.0861 1.0327,0.0861 1.89328,0.51635 2.75387,1.29088 0.77451,0.68847 1.20481,1.89328 1.20481,3.52838 0,0.4303 0,0.77453 -0.0861,1.20483 0,0.34423 -0.0861,0.86058 -0.17211,1.29087 l -0.17213,0.60241 h -5.85196 v -2.32358 h 2.75387 c 0,-0.0861 0,-0.17211 0,-0.25817 0,-0.0861 0,-0.17212 0,-0.25817 0,-0.77453 -0.25818,-1.37693 -0.60241,-1.72117 -0.4303,-0.34423 -0.86058,-0.51635 -1.37694,-0.51635 h -0.0861 -0.0861 c -0.25818,0 -0.4303,0 -0.60242,0 v -2.83993 z m 23.40788,-4.47503 v 3.09811 h -2.15147 l -2.58175,11.96209 h 3.70052 c 0.34423,0 0.68847,-0.0861 1.0327,-0.0861 v 3.09811 c -0.4303,0.0861 -0.77453,0.0861 -1.20483,0.0861 h -7.91736 l 3.87263,-18.15831 z m -23.40788,18.41648 c -0.17212,0 -0.25817,0 -0.34422,0 -0.4303,0.0861 -0.77453,0.0861 -1.20483,0.0861 -1.54905,0 -2.83992,-0.34424 -3.87262,-1.03271 -1.0327,-0.77453 -1.54905,-1.97934 -1.54905,-3.78656 0,-0.43029 0,-0.77452 0.0861,-1.20482 0.0861,-0.34423 0.0861,-0.86059 0.25817,-1.29087 0,-0.34424 0.17212,-0.77453 0.34423,-1.37694 0.17213,-0.60241 0.51636,-1.20482 0.86059,-1.80722 0.6024,-0.86058 1.37693,-1.72117 2.40963,-2.49569 0.86059,-0.60242 1.80723,-0.94666 3.01204,-1.03271 v 2.83993 c -0.60241,0.0861 -1.11875,0.34423 -1.46299,0.68847 -0.6024,0.51635 -1.0327,1.20481 -1.29087,2.06539 h 2.75386 v 2.32358 h -3.35627 c -0.0861,0.17212 -0.0861,0.25817 -0.0861,0.4303 0,0.17211 0,0.34423 0,0.51634 0,0.0861 0,0.17212 0,0.25819 0,0.0861 0,0.0861 0,0.17211 0.0861,0.51634 0.25817,0.94663 0.60241,1.37692 0.34423,0.34424 1.0327,0.60241 1.89328,0.60241 0.0861,0 0.17212,0 0.25818,-0.0861 0.0861,0 0.17212,0 0.25818,0 0.17211,0 0.25816,-0.0861 0.43028,-0.0861 v 2.83992 z m -177.7105,29.86225 v -3.95868 l 1.97934,-9.46641 h 3.61445 l -2.92599,13.42509 z m 0,-15.4905 v -2.83993 c 0.0861,0 0.17211,0 0.25817,0 0.25818,0 0.4303,0 0.60241,0 l -0.60241,2.83993 z m 5.85197,0.4303 h -3.5284 l 0.77452,-3.27023 h 3.52841 z m -5.85197,-3.27023 v 2.83993 h -0.77453 c -0.516349,0 -0.860582,0.17211 -1.032698,0.34424 -0.172117,0.17211 -0.344234,0.43029 -0.430292,0.86058 0,0.0861 0,0.0861 0,0.17212 0,0.0861 0,0.0861 -0.08606,0.17211 l -0.08606,0.51636 h 2.32357 l -0.51635,2.49569 h -2.323571 l -2.323576,10.9294 h -1.979342 v -7.31496 l 0.774526,-3.61444 h -0.774526 v -2.49569 h 1.290876 l 0.172116,-1.11877 c 0.344235,-1.37693 0.946642,-2.32358 1.721167,-2.92598 0.860583,-0.60241 1.893284,-0.86059 3.0981,-0.86059 0.43029,0 0.68846,0 0.94664,0 z m 0,14.37175 -0.86059,3.95868 h 0.86059 z m -7.228905,-13.76934 1.54905,-1.20481 h -1.54905 z m 0,-1.20481 v 1.20481 l -3.012042,2.49569 H 88.46799 l 3.098102,-3.7005 z m 0,5.50774 v 2.49569 h -1.204818 l 0.516351,-2.49569 z m 0,6.11013 v 7.31496 h -1.549051 z m -8.864011,7.31496 v -1.20481 l 2.66781,-12.22028 h 3.528391 l -2.839925,13.42509 z m 0,-12.22029 0.258175,-1.2048 h -0.258175 z m 0,-1.2048 v 1.2048 l -0.258175,1.29089 h -2.151458 l -1.63511,7.31496 c 0,0.17211 0,0.25817 0,0.34423 0,0.0861 -0.08606,0.17211 -0.08606,0.25818 0,0.17212 0.08606,0.34423 0.344235,0.43029 0.172116,0.0861 0.51635,0.0861 1.0327,0.0861 0.08606,0 0.258175,0 0.344234,0 0.172117,0 0.258175,0 0.430291,0 l -0.602408,2.58174 c -0.258176,0.0861 -0.602409,0.0861 -0.860584,0.0861 -0.258174,0 -0.51635,0 -0.860584,0 h -0.430291 c -1.204817,0 -2.065401,-0.17212 -2.495693,-0.51635 -0.430291,-0.34424 -0.602408,-0.77452 -0.602408,-1.37694 0,-0.17211 0,-0.34422 0,-0.51635 0,-0.17212 0.08606,-0.34422 0.08606,-0.51633 l 1.721167,-8.17555 h -1.807226 l 0.516349,-2.49569 h 1.893284 l 0.774526,-3.70052 h 3.528392 l -0.774525,3.70052 h 1.893284 z m 0,12.22028 -0.258175,1.20481 h 0.258175 z m -31.239182,1.463 v -2.83993 c 0.258174,-0.0861 0.602407,-0.17212 0.860582,-0.34423 0.344234,-0.25818 0.602409,-0.60241 0.860584,-0.94665 v -0.0861 h 3.61445 c -0.51635,1.11877 -1.204815,1.97934 -1.979341,2.66781 -0.860583,0.6024 -1.635109,1.0327 -2.495693,1.29087 -0.258175,0.0861 -0.602408,0.17212 -0.860582,0.25818 z m 0,-6.0241 v -2.32357 h 2.753866 c 0,-0.0861 0,-0.17211 0,-0.25817 0,-0.0861 0,-0.17212 0,-0.25817 0,-0.77453 -0.172116,-1.37694 -0.602409,-1.72117 -0.430291,-0.34424 -0.860582,-0.51636 -1.290875,-0.51636 -0.08606,0 -0.08606,0 -0.172117,0 0,0 0,0 -0.08606,0 -0.172116,0 -0.430291,0 -0.602407,0 V 200.809 c 0.430291,-0.0861 0.860582,-0.0861 1.290875,-0.0861 0.172117,0 0.344232,0 0.516349,0 0.172117,0 0.430292,0 0.602409,0.0861 0.946642,0.17212 1.893284,0.60241 2.667809,1.29087 0.860583,0.68847 1.204817,1.89328 1.204817,3.61445 0,0.34424 0,0.68847 0,1.11876 -0.08606,0.43029 -0.172117,0.86058 -0.258175,1.29087 l -0.172116,0.60241 z m 21.170355,-3.52838 -1.979343,9.29429 h -3.528392 l 1.721167,-8.17554 c 0.08606,-0.0861 0.08606,-0.17211 0.08606,-0.34423 0.08606,-0.17211 0.08606,-0.34424 0.08606,-0.43029 0,-0.0861 0,-0.0861 0,-0.17212 v -0.0861 c 0,-0.43029 -0.172116,-0.77452 -0.430291,-1.11875 -0.172117,-0.34424 -0.688467,-0.4303 -1.462992,-0.4303 -0.774526,0 -1.462992,0.25817 -2.151459,0.77453 -0.688467,0.51635 -1.118759,1.29088 -1.290875,2.32357 l -1.635109,7.65919 h -3.528391 l 2.839926,-13.42509 h 3.356276 l -0.344233,1.97933 v 0 c 0.08606,-0.17212 0.258175,-0.25817 0.344233,-0.43029 0.172116,-0.17212 0.344233,-0.34424 0.51635,-0.51635 0.344233,-0.34423 0.860584,-0.68846 1.462992,-0.94663 0.602409,-0.25819 1.376933,-0.4303 2.237518,-0.4303 1.118759,0 2.0654,0.25818 2.753867,0.86057 0.688466,0.51636 1.118758,1.37694 1.118758,2.4957 0,0.17212 -0.08606,0.34424 -0.08606,0.51635 0,0.25818 -0.08606,0.4303 -0.08606,0.60242 z M 53.872532,200.809 v 2.83992 c -0.516352,0.0861 -1.032702,0.34423 -1.462993,0.68847 -0.602409,0.51635 -1.032701,1.20482 -1.290875,2.0654 h 2.753868 v 2.32357 h -3.356276 c 0,0.17212 0,0.25817 0,0.4303 -0.08606,0.17212 -0.08606,0.34423 -0.08606,0.51634 0,0.0861 0,0.17213 0.08606,0.25819 0,0.0861 0,0.17211 0,0.17211 0,0.51635 0.258174,0.94664 0.602408,1.37694 0.344233,0.34423 0.946642,0.60239 1.893283,0.60239 0.08606,0 0.172117,0 0.258175,0 0.08606,-0.0861 0.172117,-0.0861 0.258176,-0.0861 0.08606,0 0.258175,0 0.344234,-0.0861 v 2.83992 c -0.08606,0 -0.258176,0 -0.344234,0 -0.344234,0.0861 -0.774525,0.0861 -1.118759,0.0861 -1.635109,0 -2.925984,-0.34424 -3.958684,-1.03271 -1.032701,-0.68846 -1.549051,-1.97933 -1.549051,-3.78656 0,-0.34424 0.08606,-0.77452 0.08606,-1.20482 0.08606,-0.34423 0.172117,-0.77453 0.258175,-1.29087 0.08606,-0.34424 0.172117,-0.77453 0.430292,-1.37693 0.172117,-0.60241 0.430292,-1.11876 0.860584,-1.80723 0.516351,-0.86058 1.376933,-1.72117 2.409634,-2.49569 0.774525,-0.51635 1.721167,-0.94665 2.925985,-1.0327 z m -14.113572,1.46298 h -3.786567 c 0,-0.17211 0,-0.34423 -0.08606,-0.51634 0,-0.25818 0,-0.43029 -0.08606,-0.68846 -0.172117,-0.4303 -0.430292,-0.94664 -0.946642,-1.29088 -0.430291,-0.43029 -1.204816,-0.60242 -2.237517,-0.60242 -0.344234,0 -0.688466,0.0861 -1.118758,0.17213 -0.430293,0.0861 -0.860584,0.25817 -1.290876,0.51634 -0.688467,0.34424 -1.290874,1.0327 -1.979342,1.89329 -0.602408,0.94664 -1.118758,2.15145 -1.462992,3.78657 -0.08606,0.34424 -0.172117,0.68847 -0.172117,1.11876 -0.08606,0.34422 -0.08606,0.68845 -0.08606,1.03269 0,1.20482 0.258175,2.15147 0.774526,2.92599 0.602407,0.68847 1.462992,1.11876 2.667808,1.11876 1.032701,0 1.979343,-0.25817 2.839925,-0.86058 0.774526,-0.60241 1.462992,-1.463 1.893285,-2.58175 h 3.786568 c -0.774525,1.97934 -1.979343,3.61445 -3.528393,4.81926 -1.54905,1.29088 -3.528393,1.89329 -5.76591,1.89329 -1.979342,0 -3.614451,-0.60241 -4.819268,-1.63511 -1.204817,-1.11877 -1.807225,-2.75387 -1.807225,-4.99139 0,-0.43029 0,-0.86058 0.08606,-1.37694 0.08606,-0.51634 0.172118,-1.03269 0.258176,-1.54904 0.688467,-3.18417 1.979342,-5.50774 3.958684,-7.14285 1.979343,-1.63511 4.130802,-2.40963 6.454377,-2.40963 2.0654,0 3.61445,0.43029 4.647152,1.37693 0.946642,0.94664 1.54905,1.97934 1.807224,3.09811 0,0.17211 0,0.34423 0.08606,0.60241 0,0.17212 0,0.34423 0,0.51634 0,0.17211 0,0.25818 0,0.43029 0,0.0861 -0.08606,0.25818 -0.08606,0.34423 v 0 z m 6.540436,-1.2048 -2.839926,13.42509 h -3.614451 l 2.925983,-13.42509 z m 0.344233,-1.63511 h -3.614451 l 0.774525,-3.27023 h 3.528393 z" /><path
     style="stroke-width:1.19525492"
     inkscape:connector-curvature="0"
     id="path12"
     d="m 304.56053,214.75046 v -2.92599 c 0.68847,-0.0861 1.2048,-0.4303 1.6351,-0.86058 0.6024,-0.60242 1.0327,-1.20483 1.29087,-1.97936 0.0861,-0.17211 0.17213,-0.43028 0.17213,-0.6024 0.0861,-0.17212 0.17211,-0.43029 0.17211,-0.60241 v 0 c 0,-0.17211 0.0861,-0.25817 0.0861,-0.4303 0,-0.17211 0,-0.34423 0,-0.51634 0.0861,-0.0861 0.0861,-0.17211 0.0861,-0.25817 0,-0.0861 0,-0.17212 0,-0.17212 0,-0.77453 -0.17212,-1.37693 -0.51636,-1.89328 -0.34423,-0.51636 -1.0327,-0.77453 -2.06539,-0.77453 -0.25818,0 -0.60241,0 -0.86058,0.0861 v -2.92599 c 0.34423,-0.0861 0.68847,-0.17211 1.03269,-0.17211 0.0861,0 0.17211,0 0.25817,0 0.0861,0 0.17213,0 0.25818,0 1.54906,0 2.83993,0.4303 3.9587,1.29087 1.03269,0.77453 1.6351,2.15147 1.6351,3.87264 0,0.34423 0,0.6024 -0.0861,0.94663 0,0.34423 -0.0861,0.60241 -0.17211,0.94664 v 0 c -0.43029,2.32358 -1.46299,4.13081 -3.01204,5.24956 -1.20482,0.86058 -2.4957,1.46299 -3.87262,1.72118 z m 0,-13.85541 v 2.92599 c -0.60241,0.0861 -1.20483,0.34424 -1.54906,0.77452 -0.60241,0.60242 -1.03269,1.29089 -1.29088,1.97935 -0.0861,0.25817 -0.17211,0.43028 -0.25817,0.68846 0,0.17212 -0.0861,0.34424 -0.0861,0.51635 -0.0861,0.25817 -0.0861,0.51636 -0.17211,0.77453 0,0.25817 0,0.51635 0,0.77453 0,0.60241 0.17211,1.29087 0.51634,1.80722 0.34424,0.51636 1.03271,0.77453 1.97935,0.77453 0.34423,0 0.60241,0 0.86059,-0.0861 v 2.92598 c -0.34424,0 -0.68847,0.0861 -1.03271,0.0861 -0.0861,0 -0.17212,0 -0.25817,0 0,0 -0.0861,0 -0.17212,0 -1.54905,0 -2.92599,-0.34424 -3.95868,-1.20482 -1.11876,-0.86059 -1.63511,-2.15145 -1.63511,-3.87263 0,-0.34423 0,-0.6024 0,-0.94664 0.0861,-0.34423 0.17211,-0.68847 0.17211,-1.0327 0.51636,-2.32357 1.54906,-4.04474 3.01204,-5.1635 1.20482,-0.94665 2.4957,-1.54904 3.87264,-1.72117 z m -36.74692,18.84679 v -2.92599 c 0.0861,-0.0861 0.25818,-0.0861 0.34422,-0.17211 0.51636,-0.51636 0.94665,-1.29088 1.20482,-2.40964 l 0.34424,-1.63511 h -0.0861 c -0.34424,0.51635 -0.86058,0.94664 -1.463,1.37694 -0.1721,0.0861 -0.25816,0.17211 -0.34422,0.17211 v -2.58174 c 0.68845,-0.17213 1.20481,-0.51636 1.63511,-1.03271 0.51634,-0.68846 0.94664,-1.46299 1.20481,-2.32358 0,-0.0861 0,-0.17212 0,-0.25817 0.0861,-0.0861 0.0861,-0.17212 0.0861,-0.25818 0.0861,-0.17211 0.0861,-0.43029 0.0861,-0.60241 0,-0.25817 0,-0.43028 0,-0.6024 0,-0.77453 -0.17212,-1.46299 -0.51635,-1.97934 -0.4303,-0.51636 -0.94665,-0.68847 -1.80724,-0.68847 -0.17211,0 -0.34423,0 -0.51633,0 -0.0861,0 -0.0861,0 -0.17212,0.0861 v -3.18416 c 0.0861,0 0.17212,0 0.25818,0 0.0861,0 0.1721,0 0.25816,0 0.94664,0 1.63511,0.17211 2.06541,0.4303 0.51634,0.34422 0.86058,0.68846 1.11876,1.03269 0.0861,0.17211 0.0861,0.34424 0.17211,0.51635 0,0.0861 0.0861,0.25817 0.0861,0.34423 h 0.0861 l 0.43029,-1.97933 h 3.35627 l -2.6678,12.73662 c -0.0861,0.34424 -0.17211,0.68847 -0.25817,1.11877 -0.0861,0.34423 -0.25818,0.68847 -0.4303,1.11876 -0.43029,1.0327 -1.20481,1.89327 -2.23752,2.75387 -0.6024,0.43028 -1.37693,0.68846 -2.2375,0.94664 z m 14.62992,-18.67466 -2.83993,13.42509 h -3.61445 l 2.92598,-13.42509 z m 0.34423,-1.63511 h -3.52839 l 0.68846,-3.27023 h 3.5284 z m 9.20824,10.15488 h 3.61445 c -0.0861,0.34424 -0.25818,0.68847 -0.43029,1.11876 -0.17212,0.43029 -0.51635,0.86059 -0.86058,1.29088 -0.51635,0.77451 -1.29087,1.37693 -2.23752,1.97934 -1.0327,0.6024 -2.23752,0.86058 -3.78656,0.86058 -1.97935,0 -3.27022,-0.43029 -3.95869,-1.46299 -0.68846,-0.94665 -1.03269,-2.0654 -1.03269,-3.27022 0,-0.34424 0,-0.60241 0.0861,-0.94664 0,-0.34424 0.0861,-0.68847 0.17212,-0.94665 0.43029,-2.23751 1.29086,-3.95867 2.6678,-5.42167 1.29088,-1.37693 3.09811,-2.0654 5.33562,-2.0654 0.25818,0 0.51635,0 0.77453,0 0.25817,0.0861 0.6024,0.0861 0.86059,0.17211 0.77452,0.17213 1.54904,0.60241 2.23751,1.20482 0.68846,0.60241 1.0327,1.63511 1.0327,2.92599 0,0.0861 0,0.25817 0,0.43029 0,0.0861 0,0.25817 0,0.4303 h -3.61446 c 0,-0.0861 0,-0.0861 0,-0.0861 0,0 0,0 0,-0.0861 0,-0.0861 0,-0.17211 0,-0.25817 0,-0.0861 -0.0861,-0.17212 -0.0861,-0.34423 -0.0861,-0.34424 -0.17212,-0.68847 -0.43029,-0.94664 -0.25818,-0.34424 -0.68847,-0.51636 -1.20482,-0.4303 -0.0861,0 -0.0861,0 -0.0861,0 h -0.0861 c -0.94664,0 -1.6351,0.25817 -2.15146,0.86058 -0.6024,0.60242 -0.94664,1.20483 -1.20481,1.97935 -0.0861,0.17211 -0.17212,0.34423 -0.17212,0.51634 -0.0861,0.17212 -0.0861,0.34424 -0.17212,0.51636 v 0.0861 c 0,0.0861 0,0.0861 0,0.17212 -0.0861,0.17211 -0.0861,0.4303 -0.17212,0.68847 0,0.25817 0,0.43028 -0.0861,0.68847 0,0.0861 0,0.17211 0,0.25817 0,0 0,0.0861 0,0.17211 0,0.60242 0.17211,1.11877 0.43029,1.63512 0.25817,0.43029 0.86059,0.68847 1.63511,0.68847 0.6024,0 1.03269,-0.17212 1.46298,-0.43029 0.4303,-0.25818 0.68847,-0.51636 0.94665,-0.86059 0.17212,-0.25818 0.25818,-0.43029 0.34423,-0.60241 0.0861,-0.17211 0.17212,-0.34424 0.17212,-0.51635 z m -24.18239,-8.86401 v 3.18415 c -0.0861,0 -0.25818,0 -0.34424,0.0861 -0.51635,0.17213 -1.0327,0.60242 -1.46299,1.20483 -0.51635,0.60241 -0.86059,1.54904 -1.11876,2.6678 v 0 c 0,0.0861 0,0.25817 -0.0861,0.34423 0,0.0861 0,0.17212 0,0.34424 0,0.0861 0,0.17211 -0.0861,0.25817 0,0.0861 0,0.25818 0,0.34424 0,0.68847 0.17212,1.20482 0.51635,1.72117 0.34424,0.51634 0.86058,0.77453 1.63511,0.77453 0.34424,0 0.68847,-0.0861 0.94665,-0.0861 v 2.58174 c -0.60241,0.25818 -1.29088,0.43029 -2.23752,0.43029 -1.29088,0 -2.40964,-0.34423 -3.27021,-1.11876 -0.86059,-0.77452 -1.29089,-1.97933 -1.29089,-3.61444 0,-0.34424 0.0861,-0.68847 0.0861,-1.03271 0.0861,-0.34423 0.0861,-0.77453 0.17212,-1.11876 0.51635,-2.23751 1.29088,-3.87262 2.58175,-4.99138 1.20481,-1.20482 2.4957,-1.80723 3.95869,-1.97934 v 0 z m 0,16.09291 v 2.92599 c -0.86059,0.17211 -1.80723,0.25817 -3.01205,0.25817 -1.20482,0 -2.40963,-0.25817 -3.44233,-0.77453 -1.03271,-0.60241 -1.54905,-1.46299 -1.54905,-2.6678 0,-0.0861 0,-0.17211 0,-0.25818 0,-0.17212 0,-0.25817 0,-0.34423 h 3.87262 c 0,0.34423 0.0861,0.68847 0.34424,0.94664 0.17211,0.25818 0.77452,0.4303 1.80722,0.4303 0.77453,0 1.463,-0.17212 1.97935,-0.51636 z m -15.31839,-2.06539 v -2.92599 c 0.68847,-0.0861 1.20481,-0.4303 1.63511,-0.86058 0.6024,-0.60242 1.0327,-1.20483 1.29087,-1.97936 0.0861,-0.17211 0.17211,-0.43028 0.25818,-0.6024 0,-0.17212 0.0861,-0.43029 0.0861,-0.60241 v 0 c 0.0861,-0.17211 0.0861,-0.25817 0.0861,-0.4303 0,-0.17211 0.0861,-0.34423 0.0861,-0.51634 0,-0.0861 0,-0.17211 0,-0.25817 0,-0.0861 0,-0.17212 0,-0.17212 0,-0.77453 -0.17212,-1.37693 -0.51636,-1.89328 -0.34423,-0.51636 -1.0327,-0.77453 -2.0654,-0.77453 -0.25818,0 -0.60241,0 -0.86058,0.0861 v -2.92599 c 0.34423,-0.0861 0.68847,-0.17211 1.0327,-0.17211 0.0861,0 0.17211,0 0.25817,0 0.0861,0 0.17211,0 0.25818,0 1.54905,0 2.83993,0.4303 3.95868,1.29087 1.11876,0.77453 1.63511,2.15147 1.63511,3.87264 0,0.34423 0,0.6024 -0.0861,0.94663 0,0.34423 -0.0861,0.60241 -0.0861,0.94664 v 0 c -0.51634,2.32358 -1.54905,4.13081 -3.0981,5.24956 -1.20481,0.86058 -2.49569,1.46299 -3.87262,1.72118 z m 2.92598,-15.49052 h -2.58175 l 3.18416,-3.7005 h 3.87263 z m -2.92598,1.63511 v 2.92599 c -0.60241,0.0861 -1.11876,0.34424 -1.54905,0.77452 -0.60241,0.60242 -0.94664,1.29089 -1.20482,1.97935 -0.0861,0.25817 -0.17212,0.43028 -0.25818,0.68846 0,0.17212 -0.0861,0.34424 -0.0861,0.51635 -0.0861,0.25817 -0.0861,0.51636 -0.17212,0.77453 0,0.25817 0,0.51635 0,0.77453 0,0.60241 0.17212,1.29087 0.51635,1.80722 0.25818,0.51636 0.94664,0.77453 1.89329,0.77453 0.34423,0 0.60239,0 0.86058,-0.0861 v 2.92598 c -0.34423,0 -0.68846,0.0861 -1.0327,0.0861 -0.0861,0 -0.0861,0 -0.17212,0 -0.0861,0 -0.17211,0 -0.25817,0 -1.463,0 -2.83994,-0.34424 -3.87264,-1.20482 -0.94663,-0.77453 -1.54904,-1.80722 -1.6351,-3.27022 v -1.20481 c 0,-0.0861 0,-0.25818 0.0861,-0.34424 0,-0.34423 0.0861,-0.68847 0.0861,-1.0327 0.51635,-2.32357 1.54904,-4.04474 3.01204,-5.1635 1.29088,-0.94665 2.49569,-1.54904 3.78657,-1.72117 z m -6.97073,-4.47503 v -0.0861 0 z m 0,-0.0861 v 0.0861 l -3.87263,18.07225 h -3.52839 l 3.87263,-18.15831 h 3.52839 z m 0,12.8227 c 0,0.17211 0,0.43029 0,0.6024 0,0.17213 0,0.4303 0,0.60241 z m -15.40444,5.59379 v -2.92598 c 0.60241,-0.0861 1.20481,-0.4303 1.54904,-0.86058 0.60241,-0.60242 1.0327,-1.20483 1.29088,-1.97936 0.0861,-0.17211 0.17212,-0.43028 0.25818,-0.6024 0.0861,-0.17212 0.0861,-0.4303 0.17211,-0.60241 v 0 c 0,-0.17211 0,-0.25817 0.0861,-0.4303 0,-0.17211 0,-0.34423 0,-0.51634 0,-0.0861 0,-0.17211 0,-0.25817 0,-0.0861 0,-0.17212 0,-0.17212 0,-0.77453 -0.17212,-1.37693 -0.51635,-1.89328 -0.34424,-0.51636 -0.94665,-0.77453 -1.97935,-0.77453 -0.34422,0 -0.6024,0 -0.86057,0.0861 v -2.92599 c 0.34424,-0.0861 0.68847,-0.17211 1.03269,-0.17211 0.0861,0 0.17212,0 0.25818,0 0,0 0.0861,0 0.17211,0 1.54906,0 2.926,0.4303 3.9587,1.29087 1.11874,0.77453 1.6351,2.15147 1.6351,3.87264 0,0.34423 0,0.6024 0,0.94663 0,0.34423 -0.0861,0.60241 -0.17212,0.94664 v 0 c -0.51635,2.32358 -1.46298,4.13081 -3.01204,5.24956 -1.20482,0.86058 -2.49569,1.46299 -3.87262,1.72118 z m 0,-13.8554 v 2.92599 c -0.68847,0.0861 -1.20482,0.34424 -1.63512,0.77452 -0.60241,0.60242 -1.03269,1.29089 -1.29087,1.97935 -0.0861,0.25817 -0.0861,0.43028 -0.17212,0.68846 -0.0861,0.17212 -0.0861,0.34424 -0.17212,0.51635 0,0.25817 -0.0861,0.51636 -0.0861,0.77453 -0.0861,0.25817 -0.0861,0.51635 -0.0861,0.77452 0,0.60242 0.17211,1.29088 0.51635,1.80723 0.43029,0.51636 1.0327,0.77453 2.0654,0.77453 0.25817,0 0.60241,0 0.86059,-0.0861 v 2.92598 c -0.34423,0 -0.68847,0.0861 -1.0327,0.0861 -0.0861,0 -0.17212,0 -0.25818,0 -0.0861,0 -0.17212,0 -0.25818,0 -1.54905,0 -2.83993,-0.34424 -3.95868,-1.20482 -1.0327,-0.86059 -1.63511,-2.15145 -1.63511,-3.87263 0,-0.34423 0.0861,-0.6024 0.0861,-0.94664 0.0861,-0.34423 0.0861,-0.68847 0.17213,-1.0327 0.51634,-2.32357 1.46299,-4.04474 3.01203,-5.1635 1.20482,-0.94665 2.4957,-1.54904 3.87264,-1.72117 z m -44.14794,13.8554 v -2.83992 c 0.34423,-0.0861 0.60241,-0.17212 0.86058,-0.34423 0.34423,-0.25818 0.68847,-0.60241 0.86059,-0.94665 v -0.0861 h 3.7005 c -0.6024,1.11877 -1.29087,1.97934 -2.0654,2.66781 -0.77453,0.6024 -1.6351,1.0327 -2.49569,1.29087 -0.25817,0.0861 -0.51635,0.17212 -0.86058,0.25818 z m 0,-6.02409 v -2.32357 h 2.75386 c 0,-0.0861 0.0861,-0.17211 0.0861,-0.25817 0,-0.0861 0,-0.17212 0,-0.25817 0,-0.77453 -0.25818,-1.37694 -0.68846,-1.72117 -0.34423,-0.34424 -0.77452,-0.51636 -1.29087,-0.51636 -0.0861,0 -0.0861,0 -0.0861,0 -0.0861,0 -0.0861,0 -0.0861,0 -0.25818,0 -0.4303,0 -0.68847,0 v -2.83992 c 0.43029,-0.0861 0.86058,-0.0861 1.29087,-0.0861 0.17213,0 0.4303,0 0.60241,0 0.17212,0 0.34424,0 0.51636,0.0861 0.94663,0.17212 1.89327,0.60241 2.6678,1.29087 0.86058,0.68847 1.29088,1.89328 1.29088,3.61445 0,0.34424 -0.0861,0.68847 -0.0861,1.11876 -0.0861,0.43029 -0.0861,0.86058 -0.25818,1.29087 l -0.0861,0.60241 h -5.93802 z m 16.09292,0.86059 h 3.61444 c -0.0861,0.34424 -0.25817,0.68847 -0.43029,1.11876 -0.25818,0.43029 -0.51635,0.86059 -0.86058,1.29088 -0.51635,0.77451 -1.29088,1.37693 -2.32357,1.97934 -0.94666,0.6024 -2.15147,0.86058 -3.70052,0.86058 -1.97934,0 -3.27022,-0.4303 -3.95869,-1.46299 -0.68846,-0.94665 -1.03269,-2.0654 -1.03269,-3.27022 0,-0.34424 0,-0.60241 0.0861,-0.94664 0,-0.34424 0.0861,-0.68847 0.0861,-0.94665 0.51634,-2.23751 1.37693,-3.95868 2.6678,-5.42167 1.37694,-1.37693 3.18415,-2.0654 5.42168,-2.0654 0.25817,0 0.51635,0 0.77453,0 0.25817,0.0861 0.51635,0.0861 0.86058,0.17211 0.77453,0.17213 1.54904,0.60241 2.23751,1.20482 0.68847,0.60241 1.0327,1.63511 1.0327,2.92599 0,0.0861 0,0.25817 0,0.43029 0,0.0861 0,0.25817 -0.0861,0.4303 h -3.52839 c 0,-0.0861 0,-0.0861 0,-0.0861 0,0 0,0 0,-0.0861 0,-0.0861 0,-0.17211 0,-0.25817 -0.0861,-0.0861 -0.0861,-0.17212 -0.0861,-0.34423 -0.0861,-0.34424 -0.17212,-0.68847 -0.4303,-0.94664 -0.25817,-0.34424 -0.68847,-0.51636 -1.29088,-0.4303 v 0 c -0.0861,0 -0.0861,0 -0.0861,0 -0.94664,0 -1.63511,0.25817 -2.15144,0.86058 -0.60241,0.60242 -0.94664,1.20483 -1.20483,1.97934 -0.0861,0.17212 -0.17211,0.34423 -0.17211,0.51635 -0.0861,0.17211 -0.0861,0.34424 -0.17212,0.51635 v 0.0861 c 0,0.0861 0,0.0861 0,0.17212 -0.0861,0.17211 -0.0861,0.4303 -0.17211,0.68847 0,0.25817 0,0.43028 -0.0861,0.68847 0,0.0861 0,0.17211 0,0.25817 0,0 0,0.0861 0,0.17211 0,0.60242 0.17213,1.11877 0.4303,1.63512 0.25817,0.43029 0.86058,0.68847 1.6351,0.68847 0.60241,0 1.0327,-0.17212 1.463,-0.43029 0.34423,-0.25818 0.68847,-0.51636 0.94664,-0.86059 0.17211,-0.25818 0.25817,-0.43029 0.34423,-0.60241 0.0861,-0.17211 0.17212,-0.34424 0.17212,-0.51635 v 0 z m 19.191,-4.38897 -1.97933,9.29429 h -3.52841 l 1.72118,-8.17554 c 0.0861,-0.0861 0.0861,-0.17211 0.0861,-0.34423 0,-0.17211 0.0861,-0.34424 0.0861,-0.43029 0,-0.0861 0,-0.0861 0,-0.17212 v -0.0861 c 0,-0.43029 -0.17212,-0.77452 -0.4303,-1.11875 -0.17212,-0.34424 -0.68847,-0.4303 -1.463,-0.4303 -0.7745,0 -1.46297,0.25817 -2.15144,0.77453 -0.68847,0.51635 -1.11877,1.29088 -1.29089,2.32357 l -1.63511,7.65919 h -3.52838 l 2.83991,-13.42509 h 3.35628 l -0.43028,1.97933 h 0.0861 c 0.0861,-0.17212 0.25818,-0.25817 0.34423,-0.43029 0.17213,-0.17212 0.34424,-0.34424 0.51636,-0.51635 0.34424,-0.34423 0.86058,-0.68846 1.46299,-0.94663 0.60241,-0.25819 1.37694,-0.4303 2.23752,-0.4303 1.11876,0 2.0654,0.25818 2.75387,0.86057 0.68846,0.51636 1.03269,1.37694 1.03269,2.4957 0,0.17212 0,0.34424 0,0.51635 0,0.25818 -0.0861,0.4303 -0.0861,0.60242 z m -35.28392,-4.38898 v 2.83992 c -0.51635,0.0861 -1.0327,0.34423 -1.463,0.68847 -0.51635,0.51635 -0.94664,1.20482 -1.29088,2.0654 h 2.75388 v 2.32357 h -3.35627 c 0,0.17212 0,0.25817 0,0.4303 0,0.17211 0,0.34423 0,0.51634 0,0.0861 0,0.17213 0,0.25819 0,0.0861 0,0.17211 0,0.17211 0.0861,0.51635 0.25817,0.94664 0.60239,1.37694 0.34424,0.34423 0.94665,0.60239 1.8933,0.60239 0.0861,0 0.17211,0 0.25817,0 0.0861,-0.0861 0.17211,-0.0861 0.25817,-0.0861 0.17213,0 0.25818,0 0.34424,-0.0861 v 2.83992 c -0.0861,0 -0.17211,0 -0.34424,0 -0.34423,0.0861 -0.77453,0.0861 -1.11876,0.0861 -1.54904,0 -2.75386,-0.34424 -3.78657,-0.94665 v -9.63853 c 0.51636,-0.86058 1.29089,-1.63511 2.32359,-2.40964 0.77451,-0.51634 1.80721,-0.94664 2.92598,-1.0327 z m -5.24957,-1.29088 v -3.18416 h 1.63512 l -0.68846,3.18416 z m 0,-3.18416 v 3.18416 h -4.56108 l -3.18417,14.97415 h -3.78656 l 3.18416,-14.97415 h -5.50774 l 0.68846,-3.18416 z m 0,7.91737 -0.0861,0.0861 c -0.34423,0.68847 -0.68847,1.20482 -0.86059,1.80723 -0.17211,0.6024 -0.34423,1.03269 -0.43028,1.37693 -0.0861,0.51634 -0.17213,0.94664 -0.17213,1.29087 -0.0861,0.4303 -0.0861,0.86058 -0.0861,1.20482 0,1.80723 0.51636,3.0981 1.54906,3.78656 0,0 0.0861,0 0.0861,0.0861 v -9.63852 z m -29.77618,10.49912 v -2.83992 c 0.25818,-0.0861 0.6024,-0.17212 0.86058,-0.34423 0.34423,-0.25818 0.60241,-0.60241 0.86058,-0.94665 v -0.0861 h 3.61446 c -0.51635,1.11877 -1.20482,1.97934 -1.97935,2.66781 -0.86058,0.6024 -1.63511,1.0327 -2.49569,1.29087 -0.25818,0.0861 -0.6024,0.17212 -0.86058,0.25818 z m 0,-6.02409 v -2.32357 h 2.75386 c 0,-0.0861 0,-0.17211 0,-0.25817 0,-0.0861 0,-0.17212 0,-0.25817 0,-0.77453 -0.17211,-1.37694 -0.60241,-1.72117 -0.43029,-0.34424 -0.86058,-0.51636 -1.37693,-0.51636 0,0 0,0 -0.0861,0 h -0.0861 c -0.17212,0 -0.43028,0 -0.6024,0 v -2.83992 c 0.43028,-0.0861 0.86058,-0.0861 1.29086,-0.0861 0.17213,0 0.34425,0 0.51636,0 0.17211,0 0.43029,0 0.60241,0.0861 0.94664,0.17212 1.80723,0.60241 2.66781,1.29087 0.86058,0.68847 1.20481,1.89328 1.20481,3.61445 0,0.34424 0,0.68847 0,1.11876 -0.0861,0.43029 -0.17212,0.86058 -0.25817,1.29087 l -0.17212,0.60241 h -5.85196 z m 0,-7.91736 v 2.83992 c -0.60241,0.0861 -1.03271,0.34423 -1.46299,0.68847 -0.60242,0.51635 -1.0327,1.20482 -1.29089,2.0654 h 2.75388 v 2.32357 h -3.35628 c 0,0.17212 0,0.25817 -0.0861,0.4303 0,0.17211 0,0.34423 0,0.51634 0,0.0861 0,0.17213 0,0.25819 0.0861,0.0861 0.0861,0.17211 0.0861,0.17211 0,0.51635 0.25818,0.94664 0.6024,1.37694 0.34425,0.34423 0.94665,0.60239 1.8933,0.60239 0.0861,0 0.17211,0 0.25817,0 0.0861,-0.0861 0.17212,-0.0861 0.25817,-0.0861 0.0861,0 0.25819,0 0.34424,-0.0861 v 2.83992 c -0.0861,0 -0.25818,0 -0.34424,0 -0.43028,0.0861 -0.77452,0.0861 -1.11875,0.0861 -1.63511,0 -2.926,-0.34424 -3.95869,-1.03271 -1.0327,-0.68846 -1.54905,-1.97933 -1.54905,-3.78656 0,-0.34424 0.0861,-0.77452 0.0861,-1.20482 0.0861,-0.34423 0.17211,-0.77453 0.25818,-1.29087 0.0861,-0.34424 0.17212,-0.77453 0.43029,-1.37693 0.17211,-0.60241 0.4303,-1.11876 0.86058,-1.80723 0.51635,-0.86058 1.29087,-1.72117 2.40963,-2.4957 0.77453,-0.51634 1.72117,-0.94664 2.92599,-1.0327 z m -22.03094,13.94145 v -2.92598 c 0.68846,-0.0861 1.20481,-0.4303 1.63511,-0.86058 0.51634,-0.60242 0.94664,-1.20483 1.29087,-1.97936 0.0861,-0.17211 0.0861,-0.43028 0.17211,-0.6024 0.0861,-0.17212 0.0861,-0.4303 0.17213,-0.60241 v 0 c 0,-0.17211 0,-0.25817 0.0861,-0.4303 0,-0.17211 0,-0.34423 0,-0.51634 0,-0.0861 0.0861,-0.17211 0.0861,-0.25817 0,-0.0861 0,-0.17212 0,-0.17212 0,-0.77453 -0.25817,-1.37693 -0.60241,-1.89328 -0.34423,-0.51636 -0.94664,-0.77453 -1.97933,-0.77453 -0.34424,0 -0.60241,0 -0.86058,0.0861 v -2.92599 c 0.34423,-0.0861 0.68845,-0.17211 1.0327,-0.17211 0.0861,0 0.1721,0 0.25816,0 0.0861,0 0.0861,0 0.17211,0 1.54906,0 2.926,0.4303 3.9587,1.29087 1.11875,0.77453 1.6351,2.15147 1.6351,3.87264 0,0.34423 0,0.6024 0,0.94663 0,0.34423 -0.0861,0.60241 -0.17212,0.94664 v 0 c -0.51634,2.32358 -1.46298,4.13081 -3.01204,5.24956 -1.20481,0.86058 -2.4957,1.46299 -3.87261,1.72118 z m -12.56452,-5.1635 h 3.61445 c -0.0861,0.34424 -0.25818,0.68847 -0.4303,1.11876 -0.25816,0.43029 -0.51634,0.86059 -0.86057,1.29088 -0.60242,0.77451 -1.29089,1.37693 -2.32358,1.97934 -0.94665,0.6024 -2.15146,0.86058 -3.70051,0.86058 -1.97935,0 -3.27022,-0.4303 -3.95868,-1.46299 -0.68847,-0.94665 -1.03271,-2.0654 -1.03271,-3.27022 0,-0.34424 0,-0.60241 0.0861,-0.94664 0,-0.34424 0.0861,-0.68847 0.0861,-0.94665 0.51634,-2.23751 1.37692,-3.95868 2.6678,-5.42167 1.37694,-1.37693 3.09811,-2.0654 5.42168,-2.0654 0.25817,0 0.51634,0 0.77453,0 0.25817,0.0861 0.51634,0.0861 0.77452,0.17211 0.86059,0.17213 1.63511,0.60241 2.32356,1.20482 0.68847,0.60241 1.03271,1.63511 1.03271,2.92599 0,0.0861 0,0.25817 0,0.43029 0,0.0861 0,0.25817 -0.0861,0.4303 h -3.5284 c 0,-0.0861 0,-0.0861 0,-0.0861 0,0 0,0 0,-0.0861 0,-0.0861 0,-0.17211 -0.0861,-0.25817 0,-0.0861 0,-0.17212 0,-0.34423 -0.0861,-0.34424 -0.25817,-0.68847 -0.43029,-0.94664 -0.25818,-0.34424 -0.68847,-0.51636 -1.29088,-0.4303 v 0 c -0.0861,0 -0.0861,0 -0.17211,0 -0.86059,0 -1.54905,0.25817 -2.15146,0.86058 -0.51635,0.60242 -0.86058,1.20483 -1.11876,1.97934 -0.0861,0.17212 -0.17211,0.34423 -0.17211,0.51635 -0.0861,0.17211 -0.0861,0.34424 -0.17213,0.51635 v 0.0861 c 0,0.0861 0,0.0861 0,0.17212 -0.0861,0.17211 -0.17211,0.4303 -0.17211,0.68847 0,0.25817 -0.0861,0.43028 -0.0861,0.68847 0,0.0861 0,0.17211 0,0.25817 0,0 0,0.0861 0,0.17211 0,0.60242 0.17212,1.11877 0.4303,1.63512 0.25817,0.43029 0.77452,0.68847 1.63511,0.68847 0.6024,0 1.03269,-0.17212 1.46298,-0.43029 0.34424,-0.25818 0.68847,-0.51636 0.94665,-0.86059 0.0861,-0.25818 0.25817,-0.43029 0.34423,-0.60241 0.0861,-0.17211 0.17211,-0.34424 0.17211,-0.51635 v 0 z m 12.56452,-8.6919 v 2.92599 c -0.68847,0.0861 -1.20482,0.34424 -1.63511,0.77452 -0.60241,0.60242 -1.03271,1.29089 -1.29088,1.97935 -0.0861,0.25817 -0.0861,0.43028 -0.17211,0.68846 -0.0861,0.17212 -0.0861,0.34424 -0.17212,0.51635 0,0.25817 -0.0861,0.51636 -0.0861,0.77453 0,0.25817 -0.0861,0.51635 -0.0861,0.77452 0,0.60242 0.17213,1.29088 0.60242,1.80723 0.34424,0.51636 0.94664,0.77453 1.97935,0.77453 0.25817,0 0.6024,0 0.86058,-0.0861 v 2.92598 c -0.34424,0 -0.68847,0.0861 -1.03271,0.0861 -0.0861,0 -0.17211,0 -0.25817,0 -0.0861,0 -0.17211,0 -0.25817,0 -1.54905,0 -2.83993,-0.34424 -3.95868,-1.20482 -1.0327,-0.86059 -1.63512,-2.15145 -1.63512,-3.87263 0,-0.34423 0.0861,-0.6024 0.0861,-0.94664 0.0861,-0.34423 0.0861,-0.68847 0.17212,-1.0327 0.51635,-2.32357 1.46299,-4.04474 3.01204,-5.1635 1.20481,-0.94665 2.49569,-1.54904 3.87263,-1.72117 z" /><path
     style="fill:#0067a6;stroke-width:1.19525492"
     inkscape:connector-curvature="0"
     id="path14"
     d="m 461.10067,146.50618 v -2.4957 l 5.76591,-28.14108 c -1.54905,1.80722 -2.92598,3.35627 -4.30292,4.47503 -0.51635,0.51635 -0.94664,0.86058 -1.46299,1.29088 v -9.89671 c 1.46299,-0.51635 2.83993,-1.29088 4.1308,-2.40964 2.32358,-2.0654 4.38899,-6.45437 6.11015,-13.166928 0.43028,-1.118758 0.68847,-2.323575 0.86058,-3.786567 0.17211,-1.376934 0.25817,-2.839926 0.25817,-4.302917 0,-2.753868 -0.51634,-5.249561 -1.72117,-7.487077 -1.11874,-2.237518 -3.35627,-3.356277 -6.62648,-3.356277 -1.11876,0 -2.06541,0.08606 -3.01205,0.430292 v -14.11357 c 2.83993,0.08606 5.33562,0.946642 7.57314,2.495692 2.32358,1.635109 4.21686,3.356276 5.76591,5.335617 0.34423,0.344234 0.60241,0.688468 0.77452,1.032701 0.25817,0.344233 0.51635,0.688468 0.68847,1.118759 l 1.89328,-7.31496 h 21.68671 l -17.21168,80.292455 z m 0,-82.960264 v 14.11357 c -1.63511,0.51635 -3.09809,1.54905 -4.30292,3.012042 -1.80722,2.323576 -3.27021,4.905326 -4.30291,7.745252 -0.51635,1.376934 -0.94664,2.753868 -1.20482,4.130802 -0.34423,1.290875 -0.51635,2.495692 -0.68847,3.61445 v -0.172116 c -0.17212,0.602408 -0.34423,1.204816 -0.43029,1.807225 -0.0861,0.688467 -0.17211,1.204817 -0.25817,1.721168 -0.0861,0.688471 -0.17213,1.204821 -0.17213,1.807221 -0.0861,0.60241 -0.0861,1.20482 -0.0861,1.80723 0,2.49569 0.51636,4.64715 1.54906,6.54044 1.0327,1.80722 2.92598,2.75386 5.67985,2.75386 1.463,0 2.92599,-0.25817 4.21686,-0.68846 v 9.89671 c -0.86059,0.6024 -1.63511,1.20481 -2.49569,1.63511 -1.72117,0.94664 -3.5284,1.6351 -5.42167,1.97934 -1.80724,0.43029 -3.87263,0.60241 -6.19621,0.60241 -6.88467,0 -11.70393,-1.63511 -14.37174,-4.81927 -2.58176,-3.0981 -4.21687,-6.6265 -4.81928,-10.49912 -0.25817,-1.37694 -0.43029,-2.75387 -0.51633,-4.1308 -0.0861,-1.46299 -0.0861,-2.75387 -0.0861,-3.95869 v -0.17211 c 0.0861,-1.54905 0.25816,-3.270222 0.43027,-4.991389 0.25818,-1.807225 0.51636,-3.528392 0.94665,-5.421677 1.63511,-6.884668 4.81926,-13.252987 9.63853,-19.018897 4.81928,-5.851968 12.22029,-8.950068 22.37518,-9.294301 0.17212,0 0.34423,0 0.51635,0 z m 0,80.464564 v 2.4957 h -0.51635 z M 388.29531,95.215391 c 10.49912,0 19.6213,-2.667809 27.28049,-8.003428 7.74525,-5.421677 11.61789,-14.113569 11.61789,-26.333857 0,-7.31496 -2.4957,-12.306344 -7.48709,-14.974153 -4.99138,-2.667809 -10.41305,-4.21686 -16.35109,-4.647151 -1.0327,-0.08606 -1.97934,-0.08606 -3.01203,-0.172117 -1.03271,0 -1.97935,-0.08606 -3.01205,-0.172116 h -9.03612 v 17.21167 h 2.75386 c 3.87263,0 6.71255,0.774525 8.34766,2.237518 1.6351,1.54905 2.40963,3.270217 2.40963,5.335617 0,0.516351 0,0.946642 -0.0861,1.376934 -0.0861,0.51635 -0.17211,0.946642 -0.34423,1.376933 -0.68846,2.581752 -2.32357,4.991386 -4.90532,7.228902 -2.32358,1.979343 -5.07744,3.012043 -8.17554,3.098101 v 16.437147 z m 0,-54.302822 v 17.21167 l -8.95007,-0.08606 -4.5611,20.740064 h 12.73664 c 0.25817,0 0.51634,0 0.77453,0 v 16.437147 0 l -17.12562,-0.08606 -6.28226,28.82955 h -21.77277 v -8.51978 l 15.4905,-74.526533 h 29.69015 z m -45.18065,8.261601 1.80723,-8.261601 h -1.80723 z m -97.07381,2.581751 c 0.86057,2.0654 1.2048,4.475034 1.2048,7.228901 0,0.946643 0,1.979343 -0.17211,3.098101 -0.0861,1.032701 -0.25817,2.151458 -0.60241,3.270217 h -0.43028 z M 343.11466,40.912569 H 323.23519 L 309.72403,100.46495 295.26621,40.912569 H 261.87558 L 246.04085,117.9348 v 6.02408 h 20.30977 l 12.65056,-63.166832 15.3184,63.166832 h 32.61611 l 16.17897,-74.78471 z m 0,74.526531 v 8.51978 H 341.3935 Z M 160.67096,94.18269 c 0,-3.012042 0.25817,-6.368318 0.68847,-10.068827 0.43028,-3.700509 1.29086,-7.401019 2.40963,-11.187587 2.66781,-8.433718 7.65919,-16.265029 14.97414,-23.407873 7.31497,-7.142842 18.4165,-10.929411 33.4767,-11.187586 1.72117,0 3.61446,0 5.5938,0.172117 1.97934,0.08606 4.04474,0.258175 6.11015,0.602409 5.76591,0.860583 11.10152,2.753867 16.00685,5.593793 2.83992,1.721167 4.90532,4.044743 6.11015,7.056785 V 65.35314 l -24.78482,-0.08606 c 0.0861,-0.430291 0.0861,-0.774524 0.17211,-1.204816 0,-0.430292 0.0861,-0.774526 0.0861,-1.118758 0,-2.753868 -0.86059,-4.733211 -2.40963,-6.024087 -1.54905,-1.290873 -3.27022,-2.237517 -5.07745,-2.667808 -1.0327,-0.258175 -1.97934,-0.344234 -2.92598,-0.430292 -0.94664,-0.08606 -1.80722,-0.172117 -2.49569,-0.172117 -0.68847,0 -1.37694,0.08606 -2.06541,0.172117 -0.68847,0.172117 -1.37694,0.258176 -2.0654,0.430292 -3.44233,1.0327 -6.71255,3.700509 -9.98277,7.83131 -3.18416,4.21686 -5.67985,10.413062 -7.57313,18.674664 -0.0861,0.688466 -0.25817,1.376934 -0.34423,2.0654 -0.17212,0.688467 -0.25818,1.376934 -0.34424,2.065402 -0.17211,1.462992 -0.34423,2.839925 -0.51634,4.216858 -0.0861,1.376934 -0.17213,2.753867 -0.17213,4.044743 0,4.388976 0.86059,8.089482 2.58176,11.101532 1.72117,3.0981 4.99139,4.56109 9.72459,4.56109 0.34424,0 0.77453,0 1.29087,0 0.4303,0 0.86059,0 1.37694,-0.0861 0.68847,0 1.54906,-0.0861 2.32358,-0.25818 0.77453,-0.17211 1.6351,-0.51635 2.58175,-0.86058 2.23752,-1.0327 4.30291,-2.49569 6.19619,-4.56109 1.8933,-1.97935 3.01205,-4.302922 3.35629,-6.884673 l 24.26845,-0.172116 c 0.0861,0.258174 0.17212,0.430291 0.17212,0.602408 0.0861,0.258176 0.0861,0.430293 0.0861,0.688467 0,1.376934 -0.51635,3.270214 -1.54905,5.679854 -0.94665,2.49569 -2.58175,5.07744 -4.73321,7.74525 -3.27022,3.78657 -7.83131,7.31496 -13.8554,10.41306 -6.02409,3.18416 -13.76934,4.73321 -23.23576,4.73321 -0.34423,0 -0.6024,0 -0.94664,0 -0.25817,0 -0.60241,0 -1.0327,0 -12.82269,0 -21.42853,-2.66781 -25.81751,-7.91737 -4.30291,-5.33562 -6.7986,-11.18758 -7.40101,-17.5559 -0.0861,-1.032704 -0.17211,-2.065404 -0.17211,-3.012046 -0.0861,-1.0327 -0.0861,-2.0654 -0.0861,-3.0981 v -0.08606 z m 85.36989,23.75211 -1.29089,6.02408 h 1.29089 z" /></g>
</svg>